SplineFontDB: 3.0
FontName: Vampiro
FullName: Vampiro
FamilyName: Vampiro
Weight: Book
Copyright: Copyright (c) 2012, Sorkin Type Co (www.sorkintype.com)\nwith Reserved Font Name "Vampiro".
Version: 1.000; ttfautohint (v0.92.18-e454-dirty) -l 9 -r 16 -G 200 -x 0 -w "gGD"
ItalicAngle: -35
UnderlinePosition: -50
UnderlineWidth: 50
Ascent: 800
Descent: 200
sfntRevision: 0x00010000
LayerCount: 2
Layer: 0 1 "Back"  1
Layer: 1 1 "Fore"  0
XUID: [1021 631 1661839179 9327883]
FSType: 0
OS2Version: 3
OS2_WeightWidthSlopeOnly: 0
OS2_UseTypoMetrics: 1
CreationTime: 1352558880
ModificationTime: 1352541594
PfmFamily: 17
TTFWeight: 400
TTFWidth: 5
LineGap: 0
VLineGap: 0
Panose: 2 0 5 3 2 0 0 9 0 4
OS2TypoAscent: 956
OS2TypoAOffset: 0
OS2TypoDescent: -294
OS2TypoDOffset: 0
OS2TypoLinegap: 0
OS2WinAscent: 956
OS2WinAOffset: 0
OS2WinDescent: 294
OS2WinDOffset: 0
HheadAscent: 956
HheadAOffset: 0
HheadDescent: -294
HheadDOffset: 0
OS2SubXSize: 700
OS2SubYSize: 650
OS2SubXOff: 0
OS2SubYOff: 140
OS2SupXSize: 700
OS2SupYSize: 650
OS2SupXOff: 0
OS2SupYOff: 477
OS2StrikeYSize: 50
OS2StrikeYPos: 250
OS2Vendor: 'STC '
OS2CodePages: 00000001.00000000
OS2UnicodeRanges: 800000bf.4000004b.00000000.00000000
DEI: 91125
TtTable: prep
MPPEM
PUSHW_1
 200
GT
IF
PUSHB_2
 1
 1
INSTCTRL
EIF
PUSHW_2
 2048
 2048
MUL
DUP
PUSHB_1
 1
SWAP
WCVTP
DUP
PUSHB_1
 3
SWAP
WCVTF
PUSHB_1
 20
RCVT
DUP
DUP
PUSHB_1
 40
ADD
FLOOR
DUP
ROLL
NEQ
IF
PUSHB_1
 2
CINDEX
SUB
PUSHB_1
 1
RCVT
MUL
SWAP
DIV
PUSHB_1
 2
SWAP
WCVTP
PUSHB_4
 10
 10
 5
 4
CALL
PUSHB_4
 11
 16
 5
 4
CALL
PUSHB_4
 17
 22
 5
 4
CALL
EIF
PUSHB_3
 4
 40
 8
RCVT
GT
WCVTP
PUSHB_4
 11
 16
 6
 4
CALL
PUSHB_2
 6
 3
WCVTP
PUSHB_2
 36
 1
GETINFO
LTEQ
IF
PUSHB_1
 64
GETINFO
IF
PUSHB_2
 6
 3
WCVTP
PUSHB_2
 38
 1
GETINFO
LTEQ
IF
PUSHW_1
 1024
GETINFO
IF
PUSHB_2
 6
 3
WCVTP
EIF
EIF
EIF
EIF
PUSHW_1
 511
SCANCTRL
PUSHB_1
 4
SCANTYPE
PUSHB_2
 5
 0
WCVTP
EndTTInstrs
TtTable: fpgm
PUSHB_1
 0
FDEF
PUSHB_1
 32
ADD
FLOOR
ENDF
PUSHB_1
 1
FDEF
DUP
ABS
DUP
PUSHB_1
 192
LT
PUSHB_1

StartChar: .notdef
Encoding: 65536 -1 0
Width: 636
Flags: W
LayerCount: 2
Fore
SplineSet
48 922 m 1,0,-1
 588 922 l 1,1,-1
 588 0 l 1,2,-1
 48 0 l 1,3,-1
 48 922 l 1,0,-1
249 189 m 1,4,-1
 291 286 l 1,5,-1
 318 361 l 1,6,-1
 345 286 l 1,7,-1
 387 189 l 1,8,-1
 495 189 l 1,9,-1
 367 448 l 1,10,-1
 495 703 l 1,11,-1
 381 703 l 1,12,-1
 340 606 l 1,13,-1
 317 540 l 1,14,-1
 295 606 l 1,15,-1
 255 703 l 1,16,-1
 141 703 l 1,17,-1
 269 449 l 1,18,-1
 141 189 l 1,19,-1
 249 189 l 1,4,-1
EndSplineSet
EndChar

StartChar: e
Encoding: 101 101 4
Width: 538
Flags: W
LayerCount: 2
Fore
SplineSet
-35 88 m 1,0,1
 -35 114 -35 114 -31.5 144.5 c 128,-1,2
 -28 175 -28 175 -19 208 c 128,-1,3
 -10 241 -10 241 4.5 274.5 c 128,-1,4
 19 308 19 308 40 340 c 0,5,6
 94 419 94 419 162.5 465 c 128,-1,7
 231 511 231 511 294 531 c 1,8,-1
 463 391 l 1,9,10
 438 287 438 287 368 240 c 128,-1,11
 298 193 298 193 201 193 c 0,12,13
 181 193 181 193 163.5 194 c 128,-1,14
 146 195 146 195 127 200 c 1,15,16
 119 180 119 180 114 155 c 128,-1,17
 109 130 109 130 107 103 c 1,18,19
 160 106 160 106 216.5 115.5 c 128,-1,20
 273 125 273 125 329 141 c 128,-1,21
 385 157 385 157 439 179.5 c 128,-1,22
 493 202 493 202 543 232 c 1,23,-1
 564 131 l 1,24,25
 518 102 518 102 462 75.5 c 128,-1,26
 406 49 406 49 344.5 27 c 128,-1,27
 283 5 283 5 218 -9.5 c 128,-1,28
 153 -24 153 -24 89 -27 c 1,29,-1
 -35 88 l 1,0,1
169 290 m 1,30,31
 194 290 194 290 221 298 c 128,-1,32
 248 306 248 306 270 322.5 c 128,-1,33
 292 339 292 339 306 365.5 c 128,-1,34
 320 392 320 392 320 428 c 1,35,36
 298 416 298 416 276 400.5 c 128,-1,37
 254 385 254 385 234 367 c 128,-1,38
 214 349 214 349 197.5 329.5 c 128,-1,39
 181 310 181 310 169 290 c 1,30,31
EndSplineSet
EndChar

StartChar: n
Encoding: 110 110 5
Width: 629
Flags: W
LayerCount: 2
Fore
SplineSet
-81 50 m 1,0,1
 -63 111 -63 111 -35 178 c 128,-1,2
 -7 245 -7 245 25 309 c 128,-1,3
 57 373 57 373 92.5 429.5 c 128,-1,4
 128 486 128 486 161 527 c 1,5,-1
 262 454 l 1,6,7
 227 407 227 407 195 348 c 1,8,9
 219 367 219 367 242 384 c 128,-1,10
 265 401 265 401 290 417.5 c 128,-1,11
 315 434 315 434 342.5 450.5 c 128,-1,12
 370 467 370 467 402 484 c 1,13,-1
 523 389 l 1,14,15
 506 317 506 317 476 252 c 128,-1,16
 446 187 446 187 407 133 c 1,17,18
 471 155 471 155 524 179 c 128,-1,19
 577 203 577 203 634 232 c 1,20,-1
 655 131 l 1,21,22
 629 114 629 114 585 91 c 128,-1,23
 541 68 541 68 493.5 44.5 c 128,-1,24
 446 21 446 21 402 1.5 c 128,-1,25
 358 -18 358 -18 331 -27 c 1,26,-1
 207 61 l 1,27,28
 267 133 267 133 307.5 203.5 c 128,-1,29
 348 274 348 274 360 327 c 1,30,31
 326 311 326 311 295.5 295.5 c 128,-1,32
 265 280 265 280 236 263 c 128,-1,33
 207 246 207 246 177.5 227.5 c 128,-1,34
 148 209 148 209 116 187 c 1,35,36
 70 77 70 77 38 -27 c 1,37,-1
 -81 50 l 1,0,1
EndSplineSet
EndChar

StartChar: h
Encoding: 104 104 6
Width: 629
Flags: W
LayerCount: 2
Fore
SplineSet
-81 50 m 1,0,1
 -69 91 -69 91 -46.5 146 c 128,-1,2
 -24 201 -24 201 4 262.5 c 128,-1,3
 32 324 32 324 64 388.5 c 128,-1,4
 96 453 96 453 128.5 513 c 128,-1,5
 161 573 161 573 191.5 625 c 128,-1,6
 222 677 222 677 247 714 c 1,7,-1
 349 637 l 1,8,9
 307 569 307 569 266.5 496.5 c 128,-1,10
 226 424 226 424 188 349 c 1,11,12
 238 387 238 387 288 418.5 c 128,-1,13
 338 450 338 450 402 484 c 1,14,-1
 523 389 l 1,15,16
 506 317 506 317 476 252 c 128,-1,17
 446 187 446 187 407 133 c 1,18,19
 471 155 471 155 524 179 c 128,-1,20
 577 203 577 203 634 232 c 1,21,-1
 655 131 l 1,22,23
 629 114 629 114 585 91 c 128,-1,24
 541 68 541 68 493.5 44.5 c 128,-1,25
 446 21 446 21 402 1.5 c 128,-1,26
 358 -18 358 -18 331 -27 c 1,27,-1
 207 61 l 1,28,29
 267 133 267 133 307.5 203.5 c 128,-1,30
 348 274 348 274 360 327 c 1,31,32
 326 310 326 310 295.5 294.5 c 128,-1,33
 265 279 265 279 235 262.5 c 128,-1,34
 205 246 205 246 175.5 227 c 128,-1,35
 146 208 146 208 113 185 c 1,36,37
 91 131 91 131 72 78.5 c 128,-1,38
 53 26 53 26 38 -27 c 1,39,-1
 -81 50 l 1,0,1
EndSplineSet
EndChar

StartChar: s
Encoding: 115 115 7
Width: 581
Flags: W
LayerCount: 2
Fore
SplineSet
9 56 m 1,0,1
 -16 78 -16 78 -41 102 c 128,-1,2
 -66 126 -66 126 -98 159 c 1,3,-1
 5 232 l 1,4,5
 29 207 29 207 47.5 188.5 c 128,-1,6
 66 170 66 170 84 154.5 c 128,-1,7
 102 139 102 139 121.5 124.5 c 128,-1,8
 141 110 141 110 167 93 c 1,9,10
 184 95 184 95 207 100 c 128,-1,11
 230 105 230 105 258 112 c 1,12,13
 232 138 232 138 202 165.5 c 128,-1,14
 172 193 172 193 144 219 c 128,-1,15
 116 245 116 245 92.5 269 c 128,-1,16
 69 293 69 293 56 312 c 1,17,18
 76 348 76 348 111 384.5 c 128,-1,19
 146 421 146 421 187 453 c 128,-1,20
 228 485 228 485 271.5 509 c 128,-1,21
 315 533 315 533 353 544 c 1,22,-1
 513 415 l 1,23,24
 507 391 507 391 497.5 365.5 c 128,-1,25
 488 340 488 340 476.5 316.5 c 128,-1,26
 465 293 465 293 453.5 272 c 128,-1,27
 442 251 442 251 433 235 c 1,28,-1
 326 315 l 1,29,30
 334 327 334 327 342.5 342 c 128,-1,31
 351 357 351 357 358.5 373 c 128,-1,32
 366 389 366 389 372.5 403.5 c 128,-1,33
 379 418 379 418 382 430 c 1,34,35
 369 425 369 425 350 414.5 c 128,-1,36
 331 404 331 404 309.5 388.5 c 128,-1,37
 288 373 288 373 267 353.5 c 128,-1,38
 246 334 246 334 229 313 c 1,39,40
 241 295 241 295 260 276.5 c 128,-1,41
 279 258 279 258 302 238.5 c 128,-1,42
 325 219 325 219 349.5 197.5 c 128,-1,43
 374 176 374 176 398 154 c 1,44,45
 448 171 448 171 496 190.5 c 128,-1,46
 544 210 544 210 586 232 c 1,47,-1
 607 131 l 1,48,49
 565 101 565 101 506 74 c 128,-1,50
 447 47 447 47 381.5 25 c 128,-1,51
 316 3 316 3 251.5 -12.5 c 128,-1,52
 187 -28 187 -28 135 -35 c 1,53,54
 94 -8 94 -8 64.5 13.5 c 128,-1,55
 35 35 35 35 9 56 c 1,0,1
EndSplineSet
EndChar

StartChar: c
Encoding: 99 99 8
Width: 531
Flags: W
LayerCount: 2
Fore
SplineSet
-32 88 m 1,0,1
 -32 114 -32 114 -30.5 143 c 128,-1,2
 -29 172 -29 172 -21.5 204 c 128,-1,3
 -14 236 -14 236 0 270 c 128,-1,4
 14 304 14 304 40 340 c 0,5,6
 67 379 67 379 100 410 c 128,-1,7
 133 441 133 441 168.5 464.5 c 128,-1,8
 204 488 204 488 239 504.5 c 128,-1,9
 274 521 274 521 306 531 c 1,10,-1
 466 412 l 1,11,12
 463 398 463 398 452.5 372.5 c 128,-1,13
 442 347 442 347 429 318.5 c 128,-1,14
 416 290 416 290 402 264 c 128,-1,15
 388 238 388 238 378 224 c 1,16,-1
 252 304 l 1,17,18
 275 333 275 333 294 364 c 128,-1,19
 313 395 313 395 320 418 c 1,20,21
 278 400 278 400 238.5 369.5 c 128,-1,22
 199 339 199 339 164 286 c 0,23,24
 133 239 133 239 121.5 191.5 c 128,-1,25
 110 144 110 144 110 103 c 1,26,27
 217 117 217 117 327 148 c 128,-1,28
 437 179 437 179 536 232 c 1,29,-1
 558 131 l 1,30,31
 512 102 512 102 456.5 75 c 128,-1,32
 401 48 401 48 340 26.5 c 128,-1,33
 279 5 279 5 216 -9.5 c 128,-1,34
 153 -24 153 -24 92 -27 c 1,35,-1
 -32 88 l 1,36,-1
 -32 88 l 1,0,1
EndSplineSet
EndChar

StartChar: g
Encoding: 103 103 9
Width: 620
Flags: W
LayerCount: 2
Fore
SplineSet
-37 78 m 1,0,1
 -37 157 -37 157 -11.5 232 c 128,-1,2
 14 307 14 307 63 366.5 c 128,-1,3
 112 426 112 426 183 465 c 128,-1,4
 254 504 254 504 345 512 c 1,5,-1
 401 418 l 1,6,7
 414 437 414 437 428 456 c 128,-1,8
 442 475 442 475 459 495 c 1,9,-1
 556 411 l 1,10,11
 537 386 537 386 515.5 354 c 128,-1,12
 494 322 494 322 473 287 c 128,-1,13
 452 252 452 252 432 216 c 128,-1,14
 412 180 412 180 397 146 c 1,15,16
 421 153 421 153 452.5 163 c 128,-1,17
 484 173 484 173 515.5 185 c 128,-1,18
 547 197 547 197 576 209 c 128,-1,19
 605 221 605 221 625 232 c 1,20,-1
 646 131 l 1,21,22
 630 119 630 119 600.5 99 c 128,-1,23
 571 79 571 79 537 59 c 128,-1,24
 503 39 503 39 468 21.5 c 128,-1,25
 433 4 433 4 407 -5 c 1,26,-1
 364 43 l 1,27,28
 350 -19 350 -19 333.5 -67 c 128,-1,29
 317 -115 317 -115 297 -155 c 128,-1,30
 277 -195 277 -195 252 -228.5 c 128,-1,31
 227 -262 227 -262 197 -294 c 1,32,33
 162 -293 162 -293 121 -288 c 128,-1,34
 80 -283 80 -283 38 -276 c 128,-1,35
 -4 -269 -4 -269 -44.5 -259 c 128,-1,36
 -85 -249 -85 -249 -120 -237 c 1,37,-1
 -125 -72 l 1,38,39
 -93 -43 -93 -43 -59 -20 c 128,-1,40
 -25 3 -25 3 19 25 c 1,41,-1
 -37 78 l 1,0,1
103 103 m 1,42,43
 128 110 128 110 152 119 c 128,-1,44
 176 128 176 128 199.5 142.5 c 128,-1,45
 223 157 223 157 246.5 178 c 128,-1,46
 270 199 270 199 293 229 c 1,47,48
 310 266 310 266 320.5 305 c 128,-1,49
 331 344 331 344 337 382 c 1,50,51
 285 377 285 377 242 353.5 c 128,-1,52
 199 330 199 330 168 293.5 c 128,-1,53
 137 257 137 257 120 208 c 128,-1,54
 103 159 103 159 103 103 c 1,42,43
-24 -145 m 1,55,56
 -7 -149 -7 -149 13 -153 c 128,-1,57
 33 -157 33 -157 53 -160 c 128,-1,58
 73 -163 73 -163 92.5 -165.5 c 128,-1,59
 112 -168 112 -168 128 -168 c 1,60,61
 156 -144 156 -144 182 -102.5 c 128,-1,62
 208 -61 208 -61 230 5 c 1,63,64
 158 -24 158 -24 90.5 -63.5 c 128,-1,65
 23 -103 23 -103 -24 -145 c 1,55,56
EndSplineSet
EndChar

StartChar: u
Encoding: 117 117 10
Width: 600
Flags: W
LayerCount: 2
Fore
SplineSet
-50 88 m 1,0,1
 -36 201 -36 201 20 311 c 128,-1,2
 76 421 76 421 164 540 c 1,3,-1
 267 461 l 1,4,5
 193 361 193 361 150 274.5 c 128,-1,6
 107 188 107 188 90 117 c 1,7,8
 91 117 91 117 108.5 122.5 c 128,-1,9
 126 128 126 128 153.5 143.5 c 128,-1,10
 181 159 181 159 215.5 187 c 128,-1,11
 250 215 250 215 285 259 c 1,12,13
 313 316 313 316 348.5 379 c 128,-1,14
 384 442 384 442 419 491 c 1,15,-1
 526 408 l 1,16,17
 485 348 485 348 444 276 c 128,-1,18
 403 204 403 204 373 135 c 1,19,-1
 369 133 l 1,20,21
 391 139 391 139 422.5 151 c 128,-1,22
 454 163 454 163 487.5 177 c 128,-1,23
 521 191 521 191 552.5 205.5 c 128,-1,24
 584 220 584 220 605 232 c 1,25,-1
 626 131 l 1,26,27
 615 123 615 123 594.5 110 c 128,-1,28
 574 97 574 97 547 81.5 c 128,-1,29
 520 66 520 66 490 50 c 128,-1,30
 460 34 460 34 431 19.5 c 128,-1,31
 402 5 402 5 376 -6 c 128,-1,32
 350 -17 350 -17 333 -23 c 1,33,-1
 245 75 l 1,34,35
 217 48 217 48 181 23.5 c 128,-1,36
 145 -1 145 -1 83 -27 c 1,37,-1
 -50 88 l 1,0,1
EndSplineSet
EndChar

StartChar: m
Encoding: 109 109 11
Width: 917
Flags: W
LayerCount: 2
Fore
SplineSet
-81 50 m 1,0,1
 -63 111 -63 111 -35 178 c 128,-1,2
 -7 245 -7 245 25 309 c 128,-1,3
 57 373 57 373 92.5 429.5 c 128,-1,4
 128 486 128 486 161 527 c 1,5,-1
 262 454 l 1,6,7
 245 431 245 431 229 406 c 128,-1,8
 213 381 213 381 198 353 c 1,9,10
 289 428 289 428 393 484 c 1,11,-1
 514 389 l 1,12,-1
 501 339 l 1,13,14
 541 371 541 371 584 399.5 c 128,-1,15
 627 428 627 428 681 457 c 1,16,-1
 802 362 l 1,17,18
 785 291 785 291 759 236 c 128,-1,19
 733 181 733 181 696 133 c 1,20,21
 760 155 760 155 812.5 179 c 128,-1,22
 865 203 865 203 922 232 c 1,23,-1
 943 131 l 1,24,25
 917 114 917 114 873 91 c 128,-1,26
 829 68 829 68 781.5 44.5 c 128,-1,27
 734 21 734 21 690 1.5 c 128,-1,28
 646 -18 646 -18 619 -27 c 1,29,-1
 495 61 l 1,30,31
 555 133 555 133 592 192.5 c 128,-1,32
 629 252 629 252 641 303 c 1,33,34
 586 276 586 276 539 248 c 128,-1,35
 492 220 492 220 443 185 c 1,36,37
 419 131 419 131 388.5 77.5 c 128,-1,38
 358 24 358 24 322 -27 c 1,39,-1
 207 52 l 1,40,41
 234 88 234 88 257.5 126 c 128,-1,42
 281 164 281 164 300.5 200 c 128,-1,43
 320 236 320 236 333.5 269.5 c 128,-1,44
 347 303 347 303 353 330 c 1,45,46
 319 314 319 314 289.5 298 c 128,-1,47
 260 282 260 282 232 265 c 128,-1,48
 204 248 204 248 176 228.5 c 128,-1,49
 148 209 148 209 117 187 c 1,50,51
 94 133 94 133 74 78.5 c 128,-1,52
 54 24 54 24 38 -27 c 1,53,-1
 -81 50 l 1,0,1
EndSplineSet
EndChar

StartChar: l
Encoding: 108 108 12
Width: 492
Flags: W
LayerCount: 2
Fore
SplineSet
-63 88 m 1,0,1
 -50 135 -50 135 -27.5 192.5 c 128,-1,2
 -5 250 -5 250 24.5 312.5 c 128,-1,3
 54 375 54 375 90 439 c 128,-1,4
 126 503 126 503 167.5 561.5 c 128,-1,5
 209 620 209 620 254.5 670.5 c 128,-1,6
 300 721 300 721 349 756 c 1,7,-1
 518 637 l 1,8,9
 506 541 506 541 473.5 468 c 128,-1,10
 441 395 441 395 390 341.5 c 128,-1,11
 339 288 339 288 270 252 c 128,-1,12
 201 216 201 216 116 195 c 1,13,14
 104 166 104 166 94.5 140 c 128,-1,15
 85 114 85 114 79 94 c 1,16,17
 129 101 129 101 182 111 c 128,-1,18
 235 121 235 121 288.5 137 c 128,-1,19
 342 153 342 153 394.5 176 c 128,-1,20
 447 199 447 199 497 232 c 1,21,-1
 518 131 l 1,22,23
 472 99 472 99 418 71.5 c 128,-1,24
 364 44 364 44 304.5 23 c 128,-1,25
 245 2 245 2 183.5 -11 c 128,-1,26
 122 -24 122 -24 61 -27 c 1,27,-1
 -63 88 l 1,0,1
174 320 m 1,28,29
 265 363 265 363 319 444 c 128,-1,30
 373 525 373 525 391 634 c 1,31,32
 361 607 361 607 332 571 c 128,-1,33
 303 535 303 535 275.5 494 c 128,-1,34
 248 453 248 453 222 408.5 c 128,-1,35
 196 364 196 364 174 320 c 1,28,29
EndSplineSet
EndChar

StartChar: q
Encoding: 113 113 13
Width: 616
Flags: W
LayerCount: 2
Fore
SplineSet
-34 88 m 1,0,1
 -34 167 -34 167 -10 243 c 128,-1,2
 14 319 14 319 61 380 c 128,-1,3
 108 441 108 441 177.5 481.5 c 128,-1,4
 247 522 247 522 338 530 c 1,5,-1
 404 429 l 1,6,7
 415 446 415 446 428 462 c 128,-1,8
 441 478 441 478 455 495 c 1,9,-1
 553 411 l 1,10,11
 533 385 533 385 510.5 351.5 c 128,-1,12
 488 318 488 318 466 281.5 c 128,-1,13
 444 245 444 245 424 207 c 128,-1,14
 404 169 404 169 389 135 c 1,15,-1
 386 133 l 1,16,17
 409 139 409 139 440.5 151 c 128,-1,18
 472 163 472 163 505 177.5 c 128,-1,19
 538 192 538 192 569 206.5 c 128,-1,20
 600 221 600 221 621 232 c 1,21,-1
 643 131 l 1,22,23
 632 123 632 123 611 110 c 128,-1,24
 590 97 590 97 563 81.5 c 128,-1,25
 536 66 536 66 506 50 c 128,-1,26
 476 34 476 34 447 19.5 c 128,-1,27
 418 5 418 5 392 -6 c 128,-1,28
 366 -17 366 -17 349 -23 c 1,29,-1
 318 11 l 1,30,31
 288 -58 288 -58 260 -129.5 c 128,-1,32
 232 -201 232 -201 206 -284 c 1,33,-1
 92 -207 l 1,34,35
 111 -153 111 -153 131.5 -101 c 128,-1,36
 152 -49 152 -49 175 3 c 1,37,38
 157 -5 157 -5 136 -12.5 c 128,-1,39
 115 -20 115 -20 90 -27 c 1,40,-1
 -34 88 l 1,0,1
106 117 m 1,41,42
 157 131 157 131 205.5 165 c 128,-1,43
 254 199 254 199 301 259 c 1,44,45
 318 297 318 297 326 330 c 128,-1,46
 334 363 334 363 340 401 c 1,47,48
 288 396 288 396 245 372 c 128,-1,49
 202 348 202 348 171 310 c 128,-1,50
 140 272 140 272 123 222.5 c 128,-1,51
 106 173 106 173 106 117 c 1,41,42
EndSplineSet
EndChar

StartChar: r
Encoding: 114 114 14
Width: 584
Flags: W
LayerCount: 2
Fore
SplineSet
-68 187 m 1,0,1
 -45 212 -45 212 -24.5 234.5 c 128,-1,2
 -4 257 -4 257 15.5 279.5 c 128,-1,3
 35 302 35 302 54 325.5 c 128,-1,4
 73 349 73 349 94 375 c 1,5,6
 65 407 65 407 38 448 c 1,7,8
 60 478 60 478 93.5 515.5 c 128,-1,9
 127 553 127 553 158 583 c 1,10,-1
 251 511 l 1,11,12
 245 487 245 487 241 472.5 c 128,-1,13
 237 458 237 458 232 444 c 1,14,15
 277 449 277 449 311.5 453.5 c 128,-1,16
 346 458 346 458 377.5 464 c 128,-1,17
 409 470 409 470 442 478 c 128,-1,18
 475 486 475 486 517 497 c 1,19,-1
 545 378 l 1,20,21
 504 366 504 366 459 357 c 1,22,23
 421 297 421 297 392.5 238 c 128,-1,24
 364 179 364 179 344 126 c 1,25,26
 376 137 376 137 410 150 c 128,-1,27
 444 163 444 163 477 177 c 128,-1,28
 510 191 510 191 539 205 c 128,-1,29
 568 219 568 219 589 232 c 1,30,-1
 611 131 l 1,31,32
 585 114 585 114 546 93 c 128,-1,33
 507 72 507 72 462 50 c 128,-1,34
 417 28 417 28 369.5 8 c 128,-1,35
 322 -12 322 -12 278 -27 c 1,36,-1
 172 79 l 1,37,38
 200 143 200 143 234 208 c 128,-1,39
 268 273 268 273 311 336 c 1,40,41
 276 333 276 333 245 331 c 128,-1,42
 214 329 214 329 187 328 c 1,43,44
 164 284 164 284 141 245.5 c 128,-1,45
 118 207 118 207 101 178 c 1,46,-1
 27 131 l 1,47,-1
 -68 187 l 1,0,1
EndSplineSet
EndChar

StartChar: t
Encoding: 116 116 15
Width: 447
Flags: W
LayerCount: 2
Fore
SplineSet
-63 88 m 1,0,1
 -43 155 -43 155 -13 224.5 c 128,-1,2
 17 294 17 294 55 363.5 c 128,-1,3
 93 433 93 433 137.5 501 c 128,-1,4
 182 569 182 569 232 632 c 1,5,-1
 321 550 l 1,6,7
 282 496 282 496 249 442 c 1,8,9
 287 446 287 446 322 451 c 128,-1,10
 357 456 357 456 386 464 c 1,11,-1
 409 356 l 1,12,13
 364 345 364 345 305 338.5 c 128,-1,14
 246 332 246 332 185 330 c 1,15,16
 155 271 155 271 132 216 c 128,-1,17
 109 161 109 161 94 112 c 1,18,19
 175 126 175 126 267 152.5 c 128,-1,20
 359 179 359 179 452 232 c 1,21,-1
 473 131 l 1,22,23
 427 99 427 99 373.5 71.5 c 128,-1,24
 320 44 320 44 265 23 c 128,-1,25
 210 2 210 2 157.5 -11 c 128,-1,26
 105 -24 105 -24 61 -27 c 1,27,-1
 -63 88 l 1,0,1
EndSplineSet
EndChar

StartChar: v
Encoding: 118 118 16
Width: 597
Flags: W
LayerCount: 2
Fore
SplineSet
-47 88 m 1,0,1
 -38 139 -38 139 -24 189.5 c 128,-1,2
 -10 240 -10 240 11 294 c 128,-1,3
 32 348 32 348 60.5 407 c 128,-1,4
 89 466 89 466 127 535 c 1,5,-1
 237 460 l 1,6,7
 207 407 207 407 184.5 360 c 128,-1,8
 162 313 162 313 146.5 272 c 128,-1,9
 131 231 131 231 120.5 194.5 c 128,-1,10
 110 158 110 158 103 126 c 1,11,12
 136 141 136 141 176 178 c 128,-1,13
 216 215 216 215 258.5 267 c 128,-1,14
 301 319 301 319 344.5 382 c 128,-1,15
 388 445 388 445 427 513 c 1,16,-1
 542 438 l 1,17,18
 502 372 502 372 456.5 308 c 128,-1,19
 411 244 411 244 358 184 c 1,20,21
 376 185 376 185 405.5 189.5 c 128,-1,22
 435 194 435 194 469 200.5 c 128,-1,23
 503 207 503 207 538 215 c 128,-1,24
 573 223 573 223 602 232 c 1,25,-1
 624 131 l 1,26,27
 594 115 594 115 556 99.5 c 128,-1,28
 518 84 518 84 478.5 70.5 c 128,-1,29
 439 57 439 57 402 46.5 c 128,-1,30
 365 36 365 36 339 31 c 1,31,-1
 278 103 l 1,32,33
 234 64 234 64 187 31 c 128,-1,34
 140 -2 140 -2 86 -27 c 1,35,-1
 -47 88 l 1,0,1
EndSplineSet
EndChar

StartChar: j
Encoding: 106 106 17
Width: 332
Flags: W
LayerCount: 2
Fore
SplineSet
243 566 m 1,0,1
 220 590 220 590 220 624 c 256,2,3
 220 658 220 658 243.5 681.5 c 128,-1,4
 267 705 267 705 301 705 c 256,5,6
 335 705 335 705 358.5 681.5 c 128,-1,7
 382 658 382 658 382 624 c 256,8,9
 382 590 382 590 358.5 566.5 c 128,-1,10
 335 543 335 543 301 543 c 256,11,12
 267 543 267 543 243 566 c 1,0,1
25 8 m 1,13,14
 -10 -68 -10 -68 -36.5 -141.5 c 128,-1,15
 -63 -215 -63 -215 -88 -294 c 1,16,-1
 -204 -221 l 1,17,18
 -175 -131 -175 -131 -133.5 -27 c 128,-1,19
 -92 77 -92 77 -41 180 c 0,20,21
 -21 220 -21 220 4.5 265.5 c 128,-1,22
 30 311 30 311 57.5 356 c 128,-1,23
 85 401 85 401 114 443 c 128,-1,24
 143 485 143 485 169 518 c 1,25,-1
 268 445 l 1,26,27
 244 412 244 412 217.5 371 c 128,-1,28
 191 330 191 330 166 287.5 c 128,-1,29
 141 245 141 245 119.5 202.5 c 128,-1,30
 98 160 98 160 83 124 c 1,31,32
 157 146 157 146 218.5 174.5 c 128,-1,33
 280 203 280 203 337 232 c 1,34,-1
 358 131 l 1,35,36
 332 114 332 114 297 94.5 c 128,-1,37
 262 75 262 75 222.5 55 c 128,-1,38
 183 35 183 35 139.5 16 c 128,-1,39
 96 -3 96 -3 52 -18 c 1,40,-1
 25 8 l 1,13,14
EndSplineSet
EndChar

StartChar: A
Encoding: 65 65 18
Width: 686
Flags: W
LayerCount: 2
Fore
SplineSet
-82 72 m 1,0,1
 -46 140 -46 140 -2.5 203.5 c 128,-1,2
 41 267 41 267 89 327 c 1,3,-1
 29 361 l 1,4,-1
 115 469 l 1,5,-1
 180 433 l 1,6,7
 240 497 240 497 299.5 551.5 c 128,-1,8
 359 606 359 606 416 649 c 1,9,-1
 490 582 l 1,10,11
 505 644 505 644 514 704 c 1,12,-1
 639 596 l 1,13,14
 612 459 612 459 553.5 296.5 c 128,-1,15
 495 134 495 134 400 -47 c 1,16,-1
 286 57 l 1,17,18
 297 77 297 77 308.5 98 c 128,-1,19
 320 119 320 119 332 142 c 1,20,21
 301 176 301 176 269 203.5 c 128,-1,22
 237 231 237 231 202 256 c 1,23,24
 152 192 152 192 107 120.5 c 128,-1,25
 62 49 62 49 27 -29 c 1,26,-1
 -82 72 l 1,0,1
289 358 m 1,27,28
 343 317 343 317 388 269 c 1,29,30
 414 334 414 334 437.5 401.5 c 128,-1,31
 461 469 461 469 478 536 c 1,32,33
 436 503 436 503 388 458 c 128,-1,34
 340 413 340 413 289 358 c 1,27,28
EndSplineSet
EndChar

StartChar: C
Encoding: 67 67 19
Width: 608
Flags: W
LayerCount: 2
Fore
SplineSet
-52 86 m 1,0,1
 -31 177 -31 177 9 268 c 128,-1,2
 49 359 49 359 108.5 441 c 128,-1,3
 168 523 168 523 247 590 c 128,-1,4
 326 657 326 657 426 699 c 1,5,-1
 616 562 l 1,6,7
 607 532 607 532 592 498 c 128,-1,8
 577 464 577 464 559 430 c 128,-1,9
 541 396 541 396 522 365 c 128,-1,10
 503 334 503 334 486 310 c 1,11,-1
 370 374 l 1,12,13
 398 422 398 422 422.5 472 c 128,-1,14
 447 522 447 522 461 571 c 1,15,16
 398 540 398 540 341.5 490.5 c 128,-1,17
 285 441 285 441 240.5 381 c 128,-1,18
 196 321 196 321 166.5 254.5 c 128,-1,19
 137 188 137 188 127 124 c 1,20,21
 200 129 200 129 270 145.5 c 128,-1,22
 340 162 340 162 415 199 c 1,23,-1
 454 85 l 1,24,25
 407 56 407 56 357.5 35.5 c 128,-1,26
 308 15 308 15 259 1 c 128,-1,27
 210 -13 210 -13 163 -21 c 128,-1,28
 116 -29 116 -29 75 -32 c 1,29,-1
 -52 86 l 1,0,1
EndSplineSet
EndChar

StartChar: H
Encoding: 72 72 20
Width: 730
Flags: W
LayerCount: 2
Fore
SplineSet
-50 78 m 1,0,1
 -24 136 -24 136 9 199 c 128,-1,2
 42 262 42 262 79 326 c 1,3,-1
 0 364 l 1,4,-1
 68 481 l 1,5,-1
 148 443 l 1,6,7
 194 518 194 518 237 581 c 128,-1,8
 280 644 280 644 313 686 c 1,9,-1
 421 589 l 1,10,11
 389 547 389 547 352 491.5 c 128,-1,12
 315 436 315 436 277 378 c 1,13,14
 311 359 311 359 343 340 c 128,-1,15
 375 321 375 321 407 301 c 1,16,17
 439 356 439 356 471.5 409.5 c 128,-1,18
 504 463 504 463 535 511 c 128,-1,19
 566 559 566 559 594 599 c 128,-1,20
 622 639 622 639 645 668 c 1,21,-1
 753 571 l 1,22,23
 702 502 702 502 642.5 411 c 128,-1,24
 583 320 583 320 526 220 c 1,25,-1
 611 157 l 1,26,-1
 533 43 l 1,27,28
 515 57 515 57 497 70.5 c 128,-1,29
 479 84 479 84 462 97 c 1,30,31
 442 57 442 57 424.5 18 c 128,-1,32
 407 -21 407 -21 393 -58 c 1,33,-1
 277 49 l 1,34,35
 291 80 291 80 307 112.5 c 128,-1,36
 323 145 323 145 341 180 c 1,37,38
 307 202 307 202 274 222 c 128,-1,39
 241 242 241 242 206 261 c 1,40,41
 165 183 165 183 130.5 111.5 c 128,-1,42
 96 40 96 40 67 -29 c 1,43,-1
 -50 78 l 1,0,1
EndSplineSet
EndChar

StartChar: I
Encoding: 73 73 21
Width: 360
Flags: W
LayerCount: 2
Fore
SplineSet
-63 77 m 1,0,1
 7 234 7 234 93 384 c 128,-1,2
 179 534 179 534 295 689 c 1,3,-1
 397 585 l 1,4,5
 349 519 349 519 301 444 c 128,-1,6
 253 369 253 369 209 289.5 c 128,-1,7
 165 210 165 210 125 129.5 c 128,-1,8
 85 49 85 49 52 -29 c 1,9,-1
 -63 77 l 1,0,1
EndSplineSet
EndChar

StartChar: w
Encoding: 119 119 22
Width: 912
Flags: W
LayerCount: 2
Fore
SplineSet
-41 88 m 1,0,1
 -31 139 -31 139 -17 189.5 c 128,-1,2
 -3 240 -3 240 17.5 294 c 128,-1,3
 38 348 38 348 66.5 407 c 128,-1,4
 95 466 95 466 133 535 c 1,5,-1
 243 460 l 1,6,7
 213 407 213 407 190.5 360 c 128,-1,8
 168 313 168 313 152.5 272 c 128,-1,9
 137 231 137 231 126.5 194.5 c 128,-1,10
 116 158 116 158 109 126 c 1,11,12
 142 141 142 141 185 180 c 128,-1,13
 228 219 228 219 274 273.5 c 128,-1,14
 320 328 320 328 366 393 c 128,-1,15
 412 458 412 458 451 526 c 1,16,-1
 561 451 l 1,17,18
 531 398 531 398 507 352.5 c 128,-1,19
 483 307 483 307 465.5 267.5 c 128,-1,20
 448 228 448 228 436.5 193 c 128,-1,21
 425 158 425 158 418 126 c 1,22,23
 451 141 451 141 491 178 c 128,-1,24
 531 215 531 215 573.5 267 c 128,-1,25
 616 319 616 319 659.5 382 c 128,-1,26
 703 445 703 445 742 513 c 1,27,-1
 857 438 l 1,28,29
 817 372 817 372 771.5 308 c 128,-1,30
 726 244 726 244 673 184 c 1,31,32
 691 185 691 185 720.5 189.5 c 128,-1,33
 750 194 750 194 784 200.5 c 128,-1,34
 818 207 818 207 853 215 c 128,-1,35
 888 223 888 223 917 232 c 1,36,-1
 939 131 l 1,37,38
 909 115 909 115 871 99.5 c 128,-1,39
 833 84 833 84 793.5 70.5 c 128,-1,40
 754 57 754 57 717 46.5 c 128,-1,41
 680 36 680 36 654 31 c 0,42,43
 653 31 653 31 645 40.5 c 128,-1,44
 637 50 637 50 626.5 62 c 128,-1,45
 616 74 616 74 606 85.5 c 128,-1,46
 596 97 596 97 592 102 c 1,47,48
 549 63 549 63 501.5 30.5 c 128,-1,49
 454 -2 454 -2 401 -27 c 1,50,-1
 271 70 l 1,51,-1
 280 119 l 1,52,53
 238 78 238 78 189.5 43.5 c 128,-1,54
 141 9 141 9 84 -18 c 1,55,-1
 -41 88 l 1,0,1
EndSplineSet
EndChar

StartChar: N
Encoding: 78 78 23
Width: 727
Flags: W
LayerCount: 2
Fore
SplineSet
-70 77 m 1,0,1
 -39 152 -39 152 4 235.5 c 128,-1,2
 47 319 47 319 95 402.5 c 128,-1,3
 143 486 143 486 194 563.5 c 128,-1,4
 245 641 245 641 293 704 c 1,5,-1
 392 607 l 1,6,7
 393 517 393 517 397.5 432 c 128,-1,8
 402 347 402 347 410 256 c 1,9,10
 458 357 458 357 517 459.5 c 128,-1,11
 576 562 576 562 651 665 c 1,12,-1
 753 571 l 1,13,14
 665 448 665 448 586 298 c 128,-1,15
 507 148 507 148 440 -10 c 1,16,-1
 307 -37 l 1,17,18
 290 90 290 90 280 200 c 128,-1,19
 270 310 270 310 265 413 c 1,20,21
 202 307 202 307 145 192.5 c 128,-1,22
 88 78 88 78 46 -29 c 1,23,-1
 -70 77 l 1,0,1
EndSplineSet
EndChar

StartChar: y
Encoding: 121 121 24
Width: 606
Flags: W
LayerCount: 2
Fore
SplineSet
-55 70 m 1,0,1
 -52 114 -52 114 -34.5 168.5 c 128,-1,2
 -17 223 -17 223 12.5 284 c 128,-1,3
 42 345 42 345 82 410 c 128,-1,4
 122 475 122 475 170 540 c 1,5,-1
 274 461 l 1,6,7
 193 347 193 347 142.5 252 c 128,-1,8
 92 157 92 157 85 99 c 1,9,10
 105 102 105 102 129 108.5 c 128,-1,11
 153 115 153 115 177.5 128 c 128,-1,12
 202 141 202 141 226.5 164 c 128,-1,13
 251 187 251 187 272 223 c 1,14,15
 286 251 286 251 305.5 287.5 c 128,-1,16
 325 324 325 324 346 361 c 128,-1,17
 367 398 367 398 388 432.5 c 128,-1,18
 409 467 409 467 426 491 c 1,19,-1
 532 408 l 1,20,21
 494 350 494 350 454 282 c 128,-1,22
 414 214 414 214 384 147 c 1,23,24
 408 154 408 154 439.5 164 c 128,-1,25
 471 174 471 174 502.5 185.5 c 128,-1,26
 534 197 534 197 563 209 c 128,-1,27
 592 221 592 221 611 232 c 1,28,-1
 633 131 l 1,29,30
 617 119 617 119 587.5 99 c 128,-1,31
 558 79 558 79 523.5 59 c 128,-1,32
 489 39 489 39 454 21.5 c 128,-1,33
 419 4 419 4 393 -5 c 1,34,-1
 344 49 l 1,35,36
 330 -14 330 -14 314 -63.5 c 128,-1,37
 298 -113 298 -113 277.5 -153.5 c 128,-1,38
 257 -194 257 -194 232 -227.5 c 128,-1,39
 207 -261 207 -261 176 -294 c 1,40,41
 141 -293 141 -293 100.5 -288 c 128,-1,42
 60 -283 60 -283 18 -276 c 128,-1,43
 -24 -269 -24 -269 -65 -259 c 128,-1,44
 -106 -249 -106 -249 -140 -237 c 1,45,-1
 -146 -72 l 1,46,47
 -113 -43 -113 -43 -78 -19 c 128,-1,48
 -43 5 -43 5 3 28 c 1,49,-1
 -55 70 l 1,0,1
-45 -145 m 1,50,51
 -10 -153 -10 -153 32.5 -160 c 128,-1,52
 75 -167 75 -167 107 -168 c 1,53,54
 135 -144 135 -144 161.5 -102.5 c 128,-1,55
 188 -61 188 -61 209 5 c 1,56,57
 138 -24 138 -24 70 -63 c 128,-1,58
 2 -102 2 -102 -45 -145 c 1,50,51
EndSplineSet
EndChar

StartChar: b
Encoding: 98 98 25
Width: 608
Flags: W
LayerCount: 2
Fore
SplineSet
-86 59 m 1,0,1
 -73 100 -73 100 -50.5 154 c 128,-1,2
 -28 208 -28 208 1 268.5 c 128,-1,3
 30 329 30 329 63.5 392.5 c 128,-1,4
 97 456 97 456 130 515.5 c 128,-1,5
 163 575 163 575 193.5 626 c 128,-1,6
 224 677 224 677 249 714 c 1,7,-1
 353 637 l 1,8,9
 321 591 321 591 285.5 533 c 128,-1,10
 250 475 250 475 210 408 c 1,11,12
 237 433 237 433 269.5 457 c 128,-1,13
 302 481 302 481 343 504 c 1,14,-1
 499 382 l 1,15,16
 490 320 490 320 468 262.5 c 128,-1,17
 446 205 446 205 415 155 c 1,18,19
 457 166 457 166 510.5 188 c 128,-1,20
 564 210 564 210 613 232 c 1,21,-1
 634 131 l 1,22,23
 573 100 573 100 523.5 78 c 128,-1,24
 474 56 474 56 421 38.5 c 128,-1,25
 368 21 368 21 304.5 6 c 128,-1,26
 241 -9 241 -9 154 -27 c 1,27,-1
 50 56 l 1,28,29
 42 33 42 33 36 12.5 c 128,-1,30
 30 -8 30 -8 24 -27 c 1,31,-1
 -86 59 l 1,0,1
116 108 m 1,32,33
 131 108 131 108 148 109.5 c 128,-1,34
 165 111 165 111 181.5 114 c 128,-1,35
 198 117 198 117 213 121.5 c 128,-1,36
 228 126 228 126 238 133 c 0,37,38
 257 146 257 146 277 173 c 128,-1,39
 297 200 297 200 313.5 234 c 128,-1,40
 330 268 330 268 342.5 306 c 128,-1,41
 355 344 355 344 359 381 c 1,42,43
 297 359 297 359 239 323.5 c 128,-1,44
 181 288 181 288 144 248 c 1,45,46
 132 216 132 216 125 185.5 c 128,-1,47
 118 155 118 155 116 108 c 1,32,33
EndSplineSet
EndChar

StartChar: p
Encoding: 112 112 26
Width: 610
Flags: W
LayerCount: 2
Fore
SplineSet
-23 -114 m 256,0,1
 -56 -200 -56 -200 -80 -284 c 1,2,-1
 -194 -207 l 1,3,4
 -163 -114 -163 -114 -124.5 -18.5 c 128,-1,5
 -86 77 -86 77 -42 171.5 c 128,-1,6
 2 266 2 266 51 358.5 c 128,-1,7
 100 451 100 451 151 537 c 1,8,-1
 252 463 l 1,9,10
 238 439 238 439 225.5 414.5 c 128,-1,11
 213 390 213 390 199 364 c 1,12,13
 235 396 235 396 276 424 c 128,-1,14
 317 452 317 452 374 484 c 1,15,-1
 495 389 l 1,16,17
 487 309 487 309 469 251 c 128,-1,18
 451 193 451 193 410 151 c 1,19,20
 465 169 465 169 514.5 188.5 c 128,-1,21
 564 208 564 208 615 232 c 1,22,-1
 636 131 l 1,23,24
 593 107 593 107 537 84.5 c 128,-1,25
 481 62 481 62 416.5 41.5 c 128,-1,26
 352 21 352 21 282 3.5 c 128,-1,27
 212 -14 212 -14 141 -27 c 1,28,-1
 48 58 l 1,29,30
 10 -28 10 -28 -23 -114 c 256,0,1
60 85 m 1,31,32
 111 93 111 93 154.5 103.5 c 128,-1,33
 198 114 198 114 218 122 c 1,34,35
 239 132 239 132 261 153 c 128,-1,36
 283 174 283 174 301 202.5 c 128,-1,37
 319 231 319 231 332.5 265.5 c 128,-1,38
 346 300 346 300 351 336 c 1,39,40
 315 317 315 317 284 298.5 c 128,-1,41
 253 280 253 280 223.5 261 c 128,-1,42
 194 242 194 242 164.5 220.5 c 128,-1,43
 135 199 135 199 102 174 c 1,44,-1
 60 85 l 1,31,32
EndSplineSet
EndChar

StartChar: k
Encoding: 107 107 27
Width: 552
Flags: W
LayerCount: 2
Fore
SplineSet
-86 50 m 1,0,1
 -57 128 -57 128 -19.5 212 c 128,-1,2
 18 296 18 296 61.5 381.5 c 128,-1,3
 105 467 105 467 153 551.5 c 128,-1,4
 201 636 201 636 251 714 c 1,5,-1
 354 637 l 1,6,7
 253 488 253 488 165 301 c 1,8,9
 228 360 228 360 295.5 416 c 128,-1,10
 363 472 363 472 443 529 c 1,11,-1
 545 434 l 1,12,13
 460 380 460 380 391 334.5 c 128,-1,14
 322 289 322 289 261 245 c 1,15,16
 271 216 271 216 283.5 188 c 128,-1,17
 296 160 296 160 312 128 c 1,18,19
 380 151 380 151 438.5 176 c 128,-1,20
 497 201 497 201 557 232 c 1,21,-1
 579 131 l 1,22,23
 549 111 549 111 514.5 89.5 c 128,-1,24
 480 68 480 68 443.5 47.5 c 128,-1,25
 407 27 407 27 370.5 8 c 128,-1,26
 334 -11 334 -11 300 -27 c 1,27,-1
 175 61 l 1,28,29
 144 149 144 149 134 231 c 1,30,31
 106 168 106 168 81 103.5 c 128,-1,32
 56 39 56 39 33 -27 c 1,33,-1
 -86 50 l 1,0,1
EndSplineSet
EndChar

StartChar: x
Encoding: 120 120 28
Width: 581
Flags: W
LayerCount: 2
Fore
SplineSet
-16 72 m 0,0,1
 -43 114 -43 114 -68 158 c 1,2,-1
 5 232 l 1,3,4
 14 216 14 216 23 201.5 c 128,-1,5
 32 187 32 187 43 173 c 1,6,7
 68 199 68 199 85.5 215.5 c 128,-1,8
 103 232 103 232 125 249 c 1,9,10
 106 306 106 306 94.5 361 c 128,-1,11
 83 416 83 416 76 476 c 1,12,-1
 201 534 l 1,13,14
 208 483 208 483 217 435 c 128,-1,15
 226 387 226 387 240 342 c 1,16,17
 290 389 290 389 339.5 432 c 128,-1,18
 389 475 389 475 452 518 c 1,19,-1
 565 441 l 1,20,21
 491 388 491 388 423.5 333.5 c 128,-1,22
 356 279 356 279 284 218 c 1,23,24
 292 198 292 198 301.5 177.5 c 128,-1,25
 311 157 311 157 322 137 c 1,26,27
 363 149 363 149 396 159 c 128,-1,28
 429 169 429 169 459 180 c 128,-1,29
 489 191 489 191 519.5 203.5 c 128,-1,30
 550 216 550 216 586 232 c 1,31,-1
 607 131 l 1,32,33
 571 111 571 111 525.5 88.5 c 128,-1,34
 480 66 480 66 432.5 44.5 c 128,-1,35
 385 23 385 23 339 4.5 c 128,-1,36
 293 -14 293 -14 256 -27 c 1,37,38
 232 14 232 14 212 51.5 c 128,-1,39
 192 89 192 89 175 126 c 1,40,41
 141 94 141 94 111 61.5 c 128,-1,42
 81 29 81 29 44 -9 c 1,43,44
 11 31 11 31 -16 72 c 0,0,1
EndSplineSet
EndChar

StartChar: V
Encoding: 86 86 29
Width: 655
Flags: W
LayerCount: 2
Fore
SplineSet
79 59 m 1,0,1
 94 69 94 69 109.5 80 c 128,-1,2
 125 91 125 91 140 104 c 1,3,-1
 38 193 l 1,4,5
 69 292 69 292 108 376.5 c 128,-1,6
 147 461 147 461 202 544 c 1,7,8
 171 529 171 529 143 514 c 128,-1,9
 115 499 115 499 89 485 c 1,10,-1
 40 600 l 1,11,12
 68 616 68 616 94 630.5 c 128,-1,13
 120 645 120 645 147.5 658 c 128,-1,14
 175 671 175 671 205.5 683 c 128,-1,15
 236 695 236 695 272 707 c 1,16,-1
 383 589 l 1,17,18
 315 483 315 483 260 368 c 128,-1,19
 205 253 205 253 173 131 c 1,20,21
 227 178 227 178 281.5 236 c 128,-1,22
 336 294 336 294 387.5 361.5 c 128,-1,23
 439 429 439 429 487.5 504 c 128,-1,24
 536 579 536 579 580 660 c 1,25,-1
 688 553 l 1,26,27
 640 463 640 463 581 377 c 128,-1,28
 522 291 522 291 456.5 214.5 c 128,-1,29
 391 138 391 138 322 73.5 c 128,-1,30
 253 9 253 9 184 -38 c 1,31,-1
 79 59 l 1,32,-1
 79 59 l 1,0,1
EndSplineSet
EndChar

StartChar: L
Encoding: 76 76 30
Width: 510
Flags: W
LayerCount: 2
Fore
SplineSet
-62 113 m 1,0,1
 -27 186 -27 186 17.5 264 c 128,-1,2
 62 342 62 342 110 417.5 c 128,-1,3
 158 493 158 493 206.5 562.5 c 128,-1,4
 255 632 255 632 297 689 c 1,5,-1
 400 585 l 1,6,7
 370 544 370 544 335.5 492.5 c 128,-1,8
 301 441 301 441 265 383.5 c 128,-1,9
 229 326 229 326 193.5 263.5 c 128,-1,10
 158 201 158 201 125 140 c 1,11,12
 186 127 186 127 247.5 118.5 c 128,-1,13
 309 110 309 110 391 102 c 1,14,-1
 348 -37 l 1,15,16
 301 -33 301 -33 262.5 -28.5 c 128,-1,17
 224 -24 224 -24 190 -19.5 c 128,-1,18
 156 -15 156 -15 124 -9 c 128,-1,19
 92 -3 92 -3 58 4 c 1,20,-1
 -62 113 l 1,0,1
EndSplineSet
EndChar

StartChar: f
Encoding: 102 102 31
Width: 553
Flags: W
LayerCount: 2
Fore
SplineSet
-19 58 m 0,0,1
 -1 100 -1 100 21 147 c 1,2,3
 -4 172 -4 172 -25 194.5 c 128,-1,4
 -46 217 -46 217 -75 251 c 1,5,-1
 -12 328 l 1,6,-1
 30 286 l 2,7,8
 48 268 48 268 65 253 c 1,9,10
 90 341 90 341 127.5 419 c 128,-1,11
 165 497 165 497 209.5 561.5 c 128,-1,12
 254 626 254 626 303 676.5 c 128,-1,13
 352 727 352 727 402 762 c 1,14,-1
 571 641 l 1,15,16
 545 498 545 498 476.5 377 c 128,-1,17
 408 256 408 256 303 171 c 1,18,19
 374 183 374 183 434 197.5 c 128,-1,20
 494 212 494 212 558 232 c 1,21,-1
 579 131 l 1,22,23
 529 115 529 115 484 102 c 128,-1,24
 439 89 439 89 392.5 77 c 128,-1,25
 346 65 346 65 296 54 c 128,-1,26
 246 43 246 43 186 31 c 1,27,-1
 125 70 l 1,28,29
 90 -15 90 -15 60.5 -100.5 c 128,-1,30
 31 -186 31 -186 5 -284 c 1,31,-1
 -115 -198 l 1,32,33
 -100 -149 -100 -149 -85 -106.5 c 128,-1,34
 -70 -64 -70 -64 -53.5 -23.5 c 128,-1,35
 -37 17 -37 17 -19 58 c 0,0,1
160 180 m 1,36,37
 211 223 211 223 259 281.5 c 128,-1,38
 307 340 307 340 345.5 403 c 128,-1,39
 384 466 384 466 410 527.5 c 128,-1,40
 436 589 436 589 444 637 c 1,41,42
 337 530 337 530 267 417.5 c 128,-1,43
 197 305 197 305 160 180 c 1,36,37
EndSplineSet
EndChar

StartChar: z
Encoding: 122 122 32
Width: 510
Flags: W
LayerCount: 2
Fore
SplineSet
-86 84 m 1,0,1
 -79 117 -79 117 -70.5 149 c 128,-1,2
 -62 181 -62 181 -53 201 c 1,3,4
 41 251 41 251 115 292 c 128,-1,5
 189 333 189 333 256 373 c 1,6,7
 232 382 232 382 208.5 386 c 128,-1,8
 185 390 185 390 148 390 c 0,9,10
 127 390 127 390 91.5 388 c 128,-1,11
 56 386 56 386 22 382 c 1,12,-1
 102 517 l 1,13,14
 116 520 116 520 128.5 521 c 128,-1,15
 141 522 141 522 154 522 c 0,16,17
 214 522 214 522 263.5 498.5 c 128,-1,18
 313 475 313 475 364 440 c 1,19,-1
 419 477 l 1,20,-1
 473 373 l 1,21,22
 425 339 425 339 380.5 309.5 c 128,-1,23
 336 280 336 280 288 250.5 c 128,-1,24
 240 221 240 221 184 188.5 c 128,-1,25
 128 156 128 156 56 117 c 1,26,27
 169 124 169 124 289 151.5 c 128,-1,28
 409 179 409 179 515 232 c 1,29,-1
 536 131 l 1,30,31
 490 102 490 102 428.5 75 c 128,-1,32
 367 48 367 48 299.5 26.5 c 128,-1,33
 232 5 232 5 163.5 -9.5 c 128,-1,34
 95 -24 95 -24 34 -27 c 1,35,-1
 -86 84 l 1,0,1
EndSplineSet
EndChar

StartChar: E
Encoding: 69 69 33
Width: 607
Flags: W
LayerCount: 2
Fore
SplineSet
-54 112 m 1,0,1
 -30 167 -30 167 4 229 c 128,-1,2
 38 291 38 291 76 352.5 c 128,-1,3
 114 414 114 414 153.5 471 c 128,-1,4
 193 528 193 528 230 573 c 1,5,6
 198 578 198 578 168.5 581 c 128,-1,7
 139 584 139 584 115 584 c 1,8,-1
 162 708 l 1,9,10
 283 704 283 704 408.5 682 c 128,-1,11
 534 660 534 660 661 606 c 1,12,-1
 604 460 l 1,13,14
 568 477 568 477 525.5 493 c 128,-1,15
 483 509 483 509 438.5 523 c 128,-1,16
 394 537 394 537 348.5 548.5 c 128,-1,17
 303 560 303 560 261 568 c 1,18,-1
 347 497 l 1,19,20
 324 469 324 469 302.5 440 c 128,-1,21
 281 411 281 411 260 379 c 1,22,23
 283 374 283 374 305.5 370 c 128,-1,24
 328 366 328 366 351 362 c 128,-1,25
 374 358 374 358 400 354.5 c 128,-1,26
 426 351 426 351 457 348 c 1,27,-1
 412 221 l 1,28,29
 373 228 373 228 341.5 233.5 c 128,-1,30
 310 239 310 239 284 244.5 c 128,-1,31
 258 250 258 250 234.5 255.5 c 128,-1,32
 211 261 211 261 188 267 c 1,33,34
 150 204 150 204 116 133 c 1,35,36
 188 117 188 117 261 108.5 c 128,-1,37
 334 100 334 100 421 97 c 1,38,-1
 380 -32 l 1,39,40
 286 -30 286 -30 207.5 -18.5 c 128,-1,41
 129 -7 129 -7 60 8 c 1,42,-1
 -54 112 l 1,0,1
EndSplineSet
EndChar

StartChar: W
Encoding: 87 87 34
Width: 974
Flags: W
LayerCount: 2
Fore
SplineSet
36 106 m 1,0,1
 59 221 59 221 100.5 328.5 c 128,-1,2
 142 436 142 436 202 533 c 1,3,4
 172 519 172 519 144.5 504.5 c 128,-1,5
 117 490 117 490 92 476 c 1,6,-1
 43 591 l 1,7,8
 71 607 71 607 97.5 622 c 128,-1,9
 124 637 124 637 152 650.5 c 128,-1,10
 180 664 180 664 211 677 c 128,-1,11
 242 690 242 690 278 702 c 1,12,-1
 390 590 l 1,13,14
 322 484 322 484 270.5 373 c 128,-1,15
 219 262 219 262 187 141 c 1,16,17
 297 233 297 233 397.5 367.5 c 128,-1,18
 498 502 498 502 584 660 c 1,19,-1
 688 564 l 1,20,-1
 670 531 l 2,21,22
 632 461 632 461 604.5 403 c 128,-1,23
 577 345 577 345 557.5 294.5 c 128,-1,24
 538 244 538 244 524.5 200 c 128,-1,25
 511 156 511 156 500 115 c 1,26,27
 605 201 605 201 695.5 325.5 c 128,-1,28
 786 450 786 450 861 618 c 1,29,-1
 970 518 l 1,30,31
 932 431 932 431 881 349.5 c 128,-1,32
 830 268 830 268 769 195 c 128,-1,33
 708 122 708 122 639 60.5 c 128,-1,34
 570 -1 570 -1 496 -47 c 1,35,-1
 364 70 l 1,36,37
 370 93 370 93 377 116.5 c 128,-1,38
 384 140 384 140 392 166 c 1,39,40
 366 136 366 136 341.5 110 c 128,-1,41
 317 84 317 84 292 60.5 c 128,-1,42
 267 37 267 37 240.5 15 c 128,-1,43
 214 -7 214 -7 186 -29 c 1,44,-1
 36 106 l 1,45,-1
 36 106 l 1,0,1
EndSplineSet
EndChar

StartChar: F
Encoding: 70 70 35
Width: 584
Flags: W
LayerCount: 2
Fore
SplineSet
-77 76 m 1,0,1
 -52 131 -52 131 -15.5 197.5 c 128,-1,2
 21 264 21 264 62.5 330.5 c 128,-1,3
 104 397 104 397 147 459 c 128,-1,4
 190 521 190 521 227 566 c 1,5,6
 195 571 195 571 165.5 574 c 128,-1,7
 136 577 136 577 112 577 c 1,8,-1
 158 701 l 1,9,10
 275 697 275 697 397.5 675.5 c 128,-1,11
 520 654 520 654 643 605 c 1,12,-1
 586 460 l 1,13,14
 550 476 550 476 509.5 491 c 128,-1,15
 469 506 469 506 426.5 519 c 128,-1,16
 384 532 384 532 341 542.5 c 128,-1,17
 298 553 298 553 258 561 c 1,18,-1
 344 490 l 1,19,20
 319 458 319 458 294 423.5 c 128,-1,21
 269 389 269 389 243 351 c 1,22,23
 288 342 288 342 332.5 329 c 128,-1,24
 377 316 377 316 441 296 c 1,25,-1
 392 174 l 1,26,27
 355 186 355 186 325 196 c 128,-1,28
 295 206 295 206 269.5 214 c 128,-1,29
 244 222 244 222 220.5 228.5 c 128,-1,30
 197 235 197 235 173 241 c 1,31,32
 134 175 134 175 99 106.5 c 128,-1,33
 64 38 64 38 37 -29 c 1,34,-1
 -77 76 l 1,0,1
EndSplineSet
EndChar

StartChar: U
Encoding: 85 85 36
Width: 680
Flags: W
LayerCount: 2
Fore
SplineSet
-50 96 m 1,0,1
 13 262 13 262 98.5 414 c 128,-1,2
 184 566 184 566 283 695 c 1,3,-1
 391 588 l 1,4,5
 353 542 353 542 316 487.5 c 128,-1,6
 279 433 279 433 245 374.5 c 128,-1,7
 211 316 211 316 180.5 256 c 128,-1,8
 150 196 150 196 126 140 c 1,9,10
 148 145 148 145 175 152 c 128,-1,11
 202 159 202 159 229.5 167 c 128,-1,12
 257 175 257 175 282.5 183.5 c 128,-1,13
 308 192 308 192 328 200 c 1,14,-1
 328 198 l 1,15,16
 360 264 360 264 394 330 c 128,-1,17
 428 396 428 396 462.5 456 c 128,-1,18
 497 516 497 516 531 568.5 c 128,-1,19
 565 621 565 621 597 660 c 1,20,-1
 707 553 l 1,21,22
 668 506 668 506 627 442.5 c 128,-1,23
 586 379 586 379 545.5 302.5 c 128,-1,24
 505 226 505 226 465 137 c 128,-1,25
 425 48 425 48 386 -50 c 1,26,-1
 273 57 l 1,27,28
 229 34 229 34 178 13.5 c 128,-1,29
 127 -7 127 -7 76 -25 c 1,30,-1
 -50 96 l 1,0,1
EndSplineSet
EndChar

StartChar: B
Encoding: 66 66 37
Width: 681
Flags: W
LayerCount: 2
Fore
SplineSet
-71 69 m 1,0,1
 -37 144 -37 144 -2.5 209.5 c 128,-1,2
 32 275 32 275 68.5 335 c 128,-1,3
 105 395 105 395 145 451 c 128,-1,4
 185 507 185 507 232 564 c 1,5,6
 197 569 197 569 166.5 572 c 128,-1,7
 136 575 136 575 110 575 c 1,8,-1
 153 694 l 1,9,10
 273 689 273 689 384 670.5 c 128,-1,11
 495 652 495 652 601 606 c 1,12,-1
 677 437 l 1,13,14
 621 378 621 378 553.5 339 c 128,-1,15
 486 300 486 300 411 278 c 1,16,17
 435 262 435 262 459 244 c 128,-1,18
 483 226 483 226 506 207 c 1,19,-1
 486 81 l 1,20,21
 436 49 436 49 379.5 27.5 c 128,-1,22
 323 6 323 6 265 -7.5 c 128,-1,23
 207 -21 207 -21 150 -27 c 128,-1,24
 93 -33 93 -33 42 -33 c 1,25,-1
 -71 69 l 1,0,1
246 347 m 1,26,27
 296 359 296 359 337 372.5 c 128,-1,28
 378 386 378 386 412 402 c 128,-1,29
 446 418 446 418 474.5 437 c 128,-1,30
 503 456 503 456 529 479 c 1,31,32
 503 492 503 492 471.5 503.5 c 128,-1,33
 440 515 440 515 405 525.5 c 128,-1,34
 370 536 370 536 332.5 544.5 c 128,-1,35
 295 553 295 553 259 559 c 1,36,-1
 348 487 l 1,37,38
 322 453 322 453 296 418.5 c 128,-1,39
 270 384 270 384 246 347 c 1,26,27
104 103 m 1,40,41
 184 106 184 106 252.5 123 c 128,-1,42
 321 140 321 140 369 166 c 1,43,44
 356 181 356 181 336 195 c 128,-1,45
 316 209 316 209 292.5 222.5 c 128,-1,46
 269 236 269 236 244 247.5 c 128,-1,47
 219 259 219 259 196 269 c 1,48,49
 172 230 172 230 149 189 c 128,-1,50
 126 148 126 148 104 103 c 1,40,41
EndSplineSet
EndChar

StartChar: T
Encoding: 84 84 38
Width: 576
Flags: W
LayerCount: 2
Fore
SplineSet
11 78 m 1,0,1
 72 230 72 230 144.5 345.5 c 128,-1,2
 217 461 217 461 282 551 c 1,3,4
 228 568 228 568 175 583.5 c 128,-1,5
 122 599 122 599 71 612 c 1,6,-1
 145 727 l 1,7,8
 266 704 266 704 395.5 663.5 c 128,-1,9
 525 623 525 623 651 574 c 1,10,-1
 582 436 l 1,11,12
 520 462 520 462 452 489 c 128,-1,13
 384 516 384 516 312 541 c 1,14,-1
 397 465 l 1,15,16
 355 408 355 408 320.5 353 c 128,-1,17
 286 298 286 298 254 239 c 128,-1,18
 222 180 222 180 191.5 114.5 c 128,-1,19
 161 49 161 49 128 -29 c 1,20,-1
 11 78 l 1,21,-1
 11 78 l 1,0,1
EndSplineSet
EndChar

StartChar: D
Encoding: 68 68 39
Width: 692
Flags: W
LayerCount: 2
Fore
SplineSet
-57 92 m 1,0,1
 -27 160 -27 160 3.5 221 c 128,-1,2
 34 282 34 282 68 339.5 c 128,-1,3
 102 397 102 397 141 452 c 128,-1,4
 180 507 180 507 227 564 c 1,5,6
 192 569 192 569 160 572 c 128,-1,7
 128 575 128 575 102 575 c 1,8,-1
 145 694 l 1,9,10
 265 689 265 689 376 670.5 c 128,-1,11
 487 652 487 652 593 606 c 1,12,-1
 652 472 l 1,13,14
 627 366 627 366 571.5 282 c 128,-1,15
 516 198 516 198 439 136 c 128,-1,16
 362 74 362 74 268 33.5 c 128,-1,17
 174 -7 174 -7 71 -26 c 1,18,-1
 -57 92 l 1,0,1
119 123 m 1,19,20
 185 142 185 142 246.5 176 c 128,-1,21
 308 210 308 210 360 257 c 128,-1,22
 412 304 412 304 450 363 c 128,-1,23
 488 422 488 422 506 490 c 1,24,25
 454 512 454 512 388 530 c 128,-1,26
 322 548 322 548 256 559 c 1,27,-1
 344 487 l 1,28,29
 277 402 277 402 221.5 314 c 128,-1,30
 166 226 166 226 119 123 c 1,19,20
EndSplineSet
EndChar

StartChar: G
Encoding: 71 71 40
Width: 667
Flags: W
LayerCount: 2
Fore
SplineSet
-47 97 m 1,0,1
 -26 187 -26 187 20 276 c 128,-1,2
 66 365 66 365 132 444 c 128,-1,3
 198 523 198 523 282.5 588 c 128,-1,4
 367 653 367 653 467 695 c 1,5,-1
 649 562 l 1,6,7
 639 527 639 527 620 485 c 128,-1,8
 601 443 601 443 578 404 c 1,9,-1
 455 472 l 1,10,11
 465 492 465 492 473.5 515.5 c 128,-1,12
 482 539 482 539 489 562 c 1,13,14
 423 528 423 528 365 483 c 128,-1,15
 307 438 307 438 261 384.5 c 128,-1,16
 215 331 215 331 182 269 c 128,-1,17
 149 207 149 207 133 140 c 1,18,19
 187 148 187 148 237.5 158 c 128,-1,20
 288 168 288 168 341 184 c 1,21,22
 353 208 353 208 365 234 c 128,-1,23
 377 260 377 260 391 292 c 1,24,-1
 525 223 l 1,25,26
 499 172 499 172 470.5 122 c 128,-1,27
 442 72 442 72 409.5 21.5 c 128,-1,28
 377 -29 377 -29 340.5 -80.5 c 128,-1,29
 304 -132 304 -132 261 -187 c 1,30,-1
 154 -90 l 1,31,32
 183 -53 183 -53 208 -20.5 c 128,-1,33
 233 12 233 12 254 43 c 1,34,35
 157 11 157 11 58 -1 c 1,36,-1
 -47 97 l 1,0,1
EndSplineSet
EndChar

StartChar: R
Encoding: 82 82 41
Width: 678
Flags: W
LayerCount: 2
Fore
SplineSet
-66 75 m 1,0,1
 -32 150 -32 150 1.5 214.5 c 128,-1,2
 35 279 35 279 70.5 337.5 c 128,-1,3
 106 396 106 396 146 451.5 c 128,-1,4
 186 507 186 507 233 563 c 1,5,6
 164 575 164 575 108 575 c 1,7,-1
 151 694 l 1,8,9
 211 692 211 692 266 686.5 c 128,-1,10
 321 681 321 681 373.5 671 c 128,-1,11
 426 661 426 661 478 645 c 128,-1,12
 530 629 530 629 583 606 c 1,13,-1
 661 434 l 1,14,15
 606 361 606 361 523.5 307 c 128,-1,16
 441 253 441 253 338 213 c 1,17,18
 367 167 367 167 402 121.5 c 128,-1,19
 437 76 437 76 482 28 c 1,20,-1
 349 -58 l 1,21,22
 300 5 300 5 257.5 73.5 c 128,-1,23
 215 142 215 142 172 226 c 1,24,25
 138 167 138 167 107 104 c 128,-1,26
 76 41 76 41 47 -29 c 1,27,-1
 -66 75 l 1,0,1
212 293 m 1,28,29
 251 308 251 308 294 328.5 c 128,-1,30
 337 349 337 349 377.5 373 c 128,-1,31
 418 397 418 397 454 423.5 c 128,-1,32
 490 450 490 450 516 477 c 1,33,34
 467 503 467 503 400 523.5 c 128,-1,35
 333 544 333 544 264 557 c 1,36,-1
 350 487 l 1,37,38
 313 440 313 440 278.5 392 c 128,-1,39
 244 344 244 344 212 293 c 1,28,29
EndSplineSet
EndChar

StartChar: K
Encoding: 75 75 42
Width: 674
Flags: W
LayerCount: 2
Fore
SplineSet
-77 73 m 1,0,1
 -23 176 -23 176 25 260.5 c 128,-1,2
 73 345 73 345 118.5 418 c 128,-1,3
 164 491 164 491 210 557 c 128,-1,4
 256 623 256 623 306 689 c 1,5,-1
 409 583 l 1,6,7
 365 528 365 528 322 467.5 c 128,-1,8
 279 407 279 407 234 334 c 1,9,10
 288 367 288 367 338.5 400.5 c 128,-1,11
 389 434 389 434 437 469 c 128,-1,12
 485 504 485 504 531.5 542.5 c 128,-1,13
 578 581 578 581 625 625 c 1,14,-1
 718 517 l 1,15,16
 670 471 670 471 625.5 434 c 128,-1,17
 581 397 581 397 536 365.5 c 128,-1,18
 491 334 491 334 444.5 306.5 c 128,-1,19
 398 279 398 279 346 251 c 1,20,21
 374 202 374 202 409.5 150 c 128,-1,22
 445 98 445 98 498 28 c 1,23,-1
 364 -58 l 1,24,25
 313 16 313 16 270.5 91.5 c 128,-1,26
 228 167 228 167 186 256 c 1,27,28
 150 195 150 195 112.5 124.5 c 128,-1,29
 75 54 75 54 33 -29 c 1,30,-1
 -77 73 l 1,0,1
EndSplineSet
EndChar

StartChar: P
Encoding: 80 80 43
Width: 674
Flags: W
LayerCount: 2
Fore
SplineSet
-66 75 m 1,0,1
 -32 150 -32 150 1.5 214.5 c 128,-1,2
 35 279 35 279 70.5 337.5 c 128,-1,3
 106 396 106 396 146 451.5 c 128,-1,4
 186 507 186 507 233 563 c 1,5,6
 164 575 164 575 109 575 c 1,7,-1
 152 694 l 1,8,9
 212 692 212 692 267 686.5 c 128,-1,10
 322 681 322 681 374.5 671 c 128,-1,11
 427 661 427 661 479 645 c 128,-1,12
 531 629 531 629 584 606 c 1,13,-1
 662 431 l 1,14,15
 593 333 593 333 485.5 261.5 c 128,-1,16
 378 190 378 190 253 156 c 1,17,-1
 187 250 l 1,18,19
 149 186 149 186 114.5 117 c 128,-1,20
 80 48 80 48 48 -30 c 1,21,-1
 -66 75 l 1,0,1
202 275 m 1,22,23
 303 310 303 310 384.5 361 c 128,-1,24
 466 412 466 412 519 476 c 1,25,26
 469 502 469 502 401 523 c 128,-1,27
 333 544 333 544 264 558 c 1,28,-1
 350 487 l 1,29,30
 270 386 270 386 202 275 c 1,22,23
EndSplineSet
EndChar

StartChar: S
Encoding: 83 83 44
Width: 612
Flags: W
LayerCount: 2
Fore
SplineSet
21 84 m 0,0,1
 -24 112 -24 112 -68 142 c 1,2,-1
 -1 264 l 1,3,4
 64 219 64 219 133 179 c 128,-1,5
 202 139 202 139 277 110 c 1,6,7
 257 159 257 159 232 204 c 128,-1,8
 207 249 207 249 182 292.5 c 128,-1,9
 157 336 157 336 135.5 378.5 c 128,-1,10
 114 421 114 421 102 463 c 1,11,12
 134 503 134 503 175 542 c 128,-1,13
 216 581 216 581 259.5 615 c 128,-1,14
 303 649 303 649 346.5 676.5 c 128,-1,15
 390 704 390 704 428 722 c 1,16,-1
 621 593 l 1,17,18
 614 561 614 561 600 523.5 c 128,-1,19
 586 486 586 486 568.5 449.5 c 128,-1,20
 551 413 551 413 534 381.5 c 128,-1,21
 517 350 517 350 504 331 c 1,22,-1
 384 400 l 1,23,24
 404 432 404 432 426.5 483 c 128,-1,25
 449 534 449 534 468 587 c 1,26,27
 417 560 417 560 366.5 520.5 c 128,-1,28
 316 481 316 481 274 435 c 1,29,30
 285 400 285 400 306 360.5 c 128,-1,31
 327 321 327 321 350.5 276.5 c 128,-1,32
 374 232 374 232 397 183 c 128,-1,33
 420 134 420 134 437 81 c 1,34,-1
 353 -53 l 1,35,36
 284 -35 284 -35 226.5 -14 c 128,-1,37
 169 7 169 7 118 31.5 c 128,-1,38
 67 56 67 56 21 84 c 0,0,1
EndSplineSet
EndChar

StartChar: M
Encoding: 77 77 45
Width: 891
Flags: W
LayerCount: 2
Fore
SplineSet
-78 86 m 1,0,1
 -32 179 -32 179 10 256.5 c 128,-1,2
 52 334 52 334 97 407 c 128,-1,3
 142 480 142 480 193 554 c 128,-1,4
 244 628 244 628 309 713 c 1,5,-1
 456 584 l 1,6,7
 440 532 440 532 427.5 486 c 128,-1,8
 415 440 415 440 404.5 396 c 128,-1,9
 394 352 394 352 385 308.5 c 128,-1,10
 376 265 376 265 368 217 c 1,11,12
 414 273 414 273 455.5 326.5 c 128,-1,13
 497 380 497 380 538 435 c 128,-1,14
 579 490 579 490 622 549.5 c 128,-1,15
 665 609 665 609 713 678 c 1,16,-1
 856 555 l 1,17,18
 839 500 839 500 823 450 c 128,-1,19
 807 400 807 400 791 353 c 128,-1,20
 775 306 775 306 757 259 c 128,-1,21
 739 212 739 212 719 161.5 c 128,-1,22
 699 111 699 111 675 55 c 128,-1,23
 651 -1 651 -1 622 -66 c 1,24,-1
 503 31 l 1,25,26
 533 92 533 92 557.5 144 c 128,-1,27
 582 196 582 196 601.5 242 c 128,-1,28
 621 288 621 288 637.5 329.5 c 128,-1,29
 654 371 654 371 669 412 c 1,30,31
 628 358 628 358 588.5 307 c 128,-1,32
 549 256 549 256 506.5 202.5 c 128,-1,33
 464 149 464 149 417 91.5 c 128,-1,34
 370 34 370 34 313 -34 c 1,35,-1
 207 58 l 1,36,37
 218 125 218 125 228.5 182.5 c 128,-1,38
 239 240 239 240 249.5 291.5 c 128,-1,39
 260 343 260 343 271 390 c 128,-1,40
 282 437 282 437 295 483 c 1,41,42
 261 429 261 429 229.5 376 c 128,-1,43
 198 323 198 323 166.5 264.5 c 128,-1,44
 135 206 135 206 101.5 138 c 128,-1,45
 68 70 68 70 29 -14 c 1,46,-1
 -78 86 l 1,0,1
EndSplineSet
EndChar

StartChar: O
Encoding: 79 79 46
Width: 686
Flags: W
LayerCount: 2
Fore
SplineSet
-18 84 m 1,0,1
 -9 181 -9 181 21 270 c 128,-1,2
 51 359 51 359 104 437 c 128,-1,3
 157 515 157 515 235 580.5 c 128,-1,4
 313 646 313 646 418 695 c 1,5,6
 485 661 485 661 541.5 619.5 c 128,-1,7
 598 578 598 578 652 521 c 1,8,-1
 607 386 l 1,9,10
 575 296 575 296 532.5 223 c 128,-1,11
 490 150 490 150 432.5 95 c 128,-1,12
 375 40 375 40 300.5 3 c 128,-1,13
 226 -34 226 -34 130 -52 c 1,14,-1
 -18 84 l 1,0,1
136 91 m 1,15,16
 184 104 184 104 231.5 132 c 128,-1,17
 279 160 279 160 322.5 203 c 128,-1,18
 366 246 366 246 403.5 304 c 128,-1,19
 441 362 441 362 469 436 c 1,20,-1
 607 386 l 1,21,22
 578 412 578 412 553.5 432.5 c 128,-1,23
 529 453 529 453 506.5 470.5 c 128,-1,24
 484 488 484 488 460.5 504 c 128,-1,25
 437 520 437 520 409 537 c 1,26,27
 359 511 359 511 312 464 c 128,-1,28
 265 417 265 417 227.5 357 c 128,-1,29
 190 297 190 297 165.5 228.5 c 128,-1,30
 141 160 141 160 136 91 c 1,15,16
EndSplineSet
EndChar

StartChar: X
Encoding: 88 88 47
Width: 604
Flags: W
LayerCount: 2
Fore
SplineSet
-90 112 m 1,0,1
 -24 183 -24 183 47.5 248 c 128,-1,2
 119 313 119 313 200 367 c 1,3,4
 191 449 191 449 191 534 c 1,5,6
 143 513 143 513 104 492 c 1,7,-1
 56 602 l 1,8,9
 103 631 103 631 150.5 653.5 c 128,-1,10
 198 676 198 676 249 694 c 1,11,-1
 336 598 l 1,12,13
 332 566 332 566 330.5 528.5 c 128,-1,14
 329 491 329 491 330 454 c 1,15,16
 388 505 388 505 448.5 550.5 c 128,-1,17
 509 596 509 596 578 640 c 1,18,-1
 668 520 l 1,19,20
 619 493 619 493 576.5 466.5 c 128,-1,21
 534 440 534 440 495.5 413.5 c 128,-1,22
 457 387 457 387 421.5 359.5 c 128,-1,23
 386 332 386 332 350 302 c 1,24,25
 367 228 367 228 393 149.5 c 128,-1,26
 419 71 419 71 448 -1 c 1,27,-1
 307 -38 l 1,28,29
 281 31 281 31 261 96 c 128,-1,30
 241 161 241 161 227 224 c 1,31,32
 167 178 167 178 114 123 c 128,-1,33
 61 68 61 68 3 3 c 1,34,-1
 -90 112 l 1,0,1
EndSplineSet
EndChar

StartChar: Y
Encoding: 89 89 48
Width: 566
Flags: W
LayerCount: 2
Fore
SplineSet
13 66 m 1,0,1
 26 98 26 98 35.5 122 c 128,-1,2
 45 146 45 146 55.5 168 c 128,-1,3
 66 190 66 190 79 214 c 128,-1,4
 92 238 92 238 112 270 c 1,5,6
 100 373 100 373 110.5 491.5 c 128,-1,7
 121 610 121 610 149 731 c 1,8,-1
 283 608 l 1,9,10
 267 546 267 546 257 483.5 c 128,-1,11
 247 421 247 421 245 353 c 1,12,13
 318 417 318 417 389 495 c 128,-1,14
 460 573 460 573 523 663 c 1,15,-1
 635 556 l 1,16,17
 544 441 544 441 448.5 351.5 c 128,-1,18
 353 262 353 262 245 196 c 1,19,20
 210 142 210 142 185.5 85 c 128,-1,21
 161 28 161 28 137 -41 c 1,22,-1
 13 66 l 1,23,-1
 13 66 l 1,0,1
EndSplineSet
EndChar

StartChar: Z
Encoding: 90 90 49
Width: 631
Flags: W
LayerCount: 2
Fore
SplineSet
-26 193 m 1,0,1
 41 221 41 221 109 258 c 128,-1,2
 177 295 177 295 241 335.5 c 128,-1,3
 305 376 305 376 362 418.5 c 128,-1,4
 419 461 419 461 463 499 c 1,5,6
 413 518 413 518 365.5 532.5 c 128,-1,7
 318 547 318 547 264 560 c 1,8,9
 269 531 269 531 273.5 505 c 128,-1,10
 278 479 278 479 283 455 c 1,11,-1
 151 439 l 1,12,13
 137 488 137 488 130 527.5 c 128,-1,14
 123 567 123 567 119 611 c 1,15,-1
 248 701 l 1,16,17
 302 689 302 689 350.5 675 c 128,-1,18
 399 661 399 661 446 643.5 c 128,-1,19
 493 626 493 626 541 605 c 128,-1,20
 589 584 589 584 642 559 c 1,21,-1
 601 437 l 1,22,23
 563 400 563 400 514.5 360.5 c 128,-1,24
 466 321 466 321 410.5 281.5 c 128,-1,25
 355 242 355 242 293 204.5 c 128,-1,26
 231 167 231 167 167 134 c 1,27,28
 230 116 230 116 295.5 103 c 128,-1,29
 361 90 361 90 430 79 c 1,30,-1
 379 -52 l 1,31,32
 252 -31 252 -31 137.5 1.5 c 128,-1,33
 23 34 23 34 -65 79 c 1,34,-1
 -26 193 l 1,0,1
EndSplineSet
EndChar

StartChar: Q
Encoding: 81 81 50
Width: 666
Flags: W
LayerCount: 2
Fore
SplineSet
32 94 m 1,0,1
 52 98 52 98 70 103 c 128,-1,2
 88 108 88 108 106 114 c 1,3,-1
 7 182 l 1,4,5
 14 272 14 272 47.5 354 c 128,-1,6
 81 436 81 436 135.5 503.5 c 128,-1,7
 190 571 190 571 263.5 621 c 128,-1,8
 337 671 337 671 426 697 c 1,9,-1
 490 596 l 1,10,11
 494 617 494 617 496.5 639 c 128,-1,12
 499 661 499 661 501 684 c 1,13,-1
 633 583 l 1,14,15
 607 366 607 366 503 219.5 c 128,-1,16
 399 73 399 73 202 10 c 1,17,18
 247 -12 247 -12 297 -33 c 128,-1,19
 347 -54 347 -54 411 -78 c 1,20,-1
 347 -203 l 1,21,22
 288 -181 288 -181 241 -159.5 c 128,-1,23
 194 -138 194 -138 151 -115 c 128,-1,24
 108 -92 108 -92 67 -65 c 128,-1,25
 26 -38 26 -38 -20 -4 c 1,26,-1
 32 94 l 1,0,1
131 123 m 1,27,28
 276 178 276 178 365.5 291.5 c 128,-1,29
 455 405 455 405 487 579 c 1,30,31
 338 529 338 529 246.5 411 c 128,-1,32
 155 293 155 293 131 123 c 1,27,28
EndSplineSet
EndChar

StartChar: J
Encoding: 74 74 51
Width: 494
Flags: W
LayerCount: 2
Fore
SplineSet
-23 -29 m 1,0,1
 -48 47 -48 47 -60.5 109 c 128,-1,2
 -73 171 -73 171 -78 219 c 1,3,-1
 54 245 l 1,4,5
 60 207 60 207 68 170.5 c 128,-1,6
 76 134 76 134 88 92 c 1,7,8
 120 164 120 164 158.5 242 c 128,-1,9
 197 320 197 320 240 397 c 128,-1,10
 283 474 283 474 330 548.5 c 128,-1,11
 377 623 377 623 427 689 c 1,12,-1
 531 585 l 1,13,14
 492 531 492 531 447 458 c 128,-1,15
 402 385 402 385 358 305.5 c 128,-1,16
 314 226 314 226 273.5 145.5 c 128,-1,17
 233 65 233 65 203 -2 c 1,18,-1
 -23 -29 l 1,19,-1
 -23 -29 l 1,0,1
EndSplineSet
EndChar

StartChar: period
Encoding: 46 46 52
Width: 366
Flags: W
LayerCount: 2
Fore
SplineSet
0 10 m 0,0,1
 0 49 0 49 27 76 c 128,-1,2
 54 103 54 103 93 103 c 256,3,4
 132 103 132 103 159 76 c 128,-1,5
 186 49 186 49 186 10 c 0,6,7
 186 -9 186 -9 179 -26 c 128,-1,8
 172 -43 172 -43 159 -55.5 c 128,-1,9
 146 -68 146 -68 129 -75.5 c 128,-1,10
 112 -83 112 -83 93 -83 c 0,11,12
 73 -83 73 -83 56.5 -75.5 c 128,-1,13
 40 -68 40 -68 27 -55.5 c 128,-1,14
 14 -43 14 -43 7 -26 c 128,-1,15
 0 -9 0 -9 0 10 c 0,0,1
EndSplineSet
EndChar

StartChar: exclam
Encoding: 33 33 53
Width: 482
Flags: W
LayerCount: 2
Fore
SplineSet
99 246 m 1,0,1
 129 314 129 314 156.5 369.5 c 128,-1,2
 184 425 184 425 215.5 479 c 128,-1,3
 247 533 247 533 285 590 c 128,-1,4
 323 647 323 647 374 718 c 1,5,-1
 486 619 l 1,6,7
 438 553 438 553 400 497 c 128,-1,8
 362 441 362 441 330 386 c 128,-1,9
 298 331 298 331 269.5 272.5 c 128,-1,10
 241 214 241 214 211 143 c 1,11,-1
 99 246 l 1,0,1
0 10 m 0,12,13
 0 49 0 49 27 76 c 128,-1,14
 54 103 54 103 93 103 c 256,15,16
 132 103 132 103 159 76 c 128,-1,17
 186 49 186 49 186 10 c 0,18,19
 186 -9 186 -9 179 -26 c 128,-1,20
 172 -43 172 -43 159 -55.5 c 128,-1,21
 146 -68 146 -68 129 -75.5 c 128,-1,22
 112 -83 112 -83 93 -83 c 0,23,24
 73 -83 73 -83 56.5 -75.5 c 128,-1,25
 40 -68 40 -68 27 -55.5 c 128,-1,26
 14 -43 14 -43 7 -26 c 128,-1,27
 0 -9 0 -9 0 10 c 0,12,13
EndSplineSet
EndChar

StartChar: comma
Encoding: 44 44 55
Width: 367
Flags: W
LayerCount: 2
Fore
SplineSet
23 29 m 256,0,1
 40 63 40 63 57 103 c 1,2,-1
 187 26 l 1,3,4
 149 -42 149 -42 109 -101 c 128,-1,5
 69 -160 69 -160 18 -223 c 1,6,-1
 -88 -165 l 1,7,8
 -67 -131 -67 -131 -48 -99.5 c 128,-1,9
 -29 -68 -29 -68 -11.5 -36.5 c 128,-1,10
 6 -5 6 -5 23 29 c 256,0,1
EndSplineSet
EndChar

StartChar: one
Encoding: 49 49 57
Width: 476
Flags: W
LayerCount: 2
Fore
SplineSet
22 68 m 1,0,1
 84 186 84 186 151 291 c 128,-1,2
 218 396 218 396 293 499 c 1,3,4
 250 482 250 482 213.5 464.5 c 128,-1,5
 177 447 177 447 141 428 c 1,6,-1
 90 552 l 1,7,8
 140 581 140 581 205 609 c 128,-1,9
 270 637 270 637 359 667 c 1,10,-1
 476 544 l 1,11,12
 385 414 385 414 298.5 273.5 c 128,-1,13
 212 133 212 133 131 -29 c 1,14,-1
 22 68 l 1,15,-1
 22 68 l 1,0,1
EndSplineSet
EndChar

StartChar: seven
Encoding: 55 55 58
Width: 554
Flags: W
LayerCount: 2
Fore
SplineSet
-9 87 m 1,0,1
 37 150 37 150 82.5 203 c 128,-1,2
 128 256 128 256 176.5 304.5 c 128,-1,3
 225 353 225 353 279 399 c 128,-1,4
 333 445 333 445 395 495 c 1,5,6
 320 509 320 509 244 517.5 c 128,-1,7
 168 526 168 526 85 529 c 1,8,-1
 149 665 l 1,9,10
 201 663 201 663 248.5 659.5 c 128,-1,11
 296 656 296 656 341 650 c 128,-1,12
 386 644 386 644 431 634.5 c 128,-1,13
 476 625 476 625 523 613 c 1,14,-1
 582 489 l 1,15,16
 504 427 504 427 441 369 c 128,-1,17
 378 311 378 311 322 250 c 128,-1,18
 266 189 266 189 213 121 c 128,-1,19
 160 53 160 53 102 -29 c 1,20,-1
 -9 87 l 1,21,-1
 -9 87 l 1,0,1
EndSplineSet
EndChar

StartChar: four
Encoding: 52 52 59
Width: 664
Flags: W
LayerCount: 2
Fore
SplineSet
192 67 m 1,0,1
 206 100 206 100 221.5 134 c 128,-1,2
 237 168 237 168 255 203 c 1,3,4
 205 217 205 217 154.5 230 c 128,-1,5
 104 243 104 243 48 257 c 1,6,-1
 27 402 l 1,7,8
 87 479 87 479 159 545.5 c 128,-1,9
 231 612 231 612 322 680 c 1,10,-1
 419 602 l 1,11,12
 347 542 347 542 286.5 488.5 c 128,-1,13
 226 435 226 435 168 372 c 1,14,15
 209 360 209 360 247 348.5 c 128,-1,16
 285 337 285 337 323 324 c 1,17,18
 374 409 374 409 431.5 491.5 c 128,-1,19
 489 574 489 574 550 651 c 1,20,-1
 645 573 l 1,21,22
 544 439 544 439 453 278 c 1,23,24
 483 267 483 267 514 255.5 c 128,-1,25
 545 244 545 244 578 230 c 1,26,-1
 525 112 l 1,27,28
 490 126 490 126 456 138 c 128,-1,29
 422 150 422 150 390 161 c 1,30,31
 366 113 366 113 343.5 66 c 128,-1,32
 321 19 321 19 301 -29 c 1,33,-1
 192 67 l 1,34,-1
 192 67 l 1,0,1
EndSplineSet
EndChar

StartChar: two
Encoding: 50 50 60
Width: 607
Flags: W
LayerCount: 2
Fore
SplineSet
-45 226 m 1,0,1
 -8 261 -8 261 36 286 c 128,-1,2
 80 311 80 311 127 330.5 c 128,-1,3
 174 350 174 350 220.5 366.5 c 128,-1,4
 267 383 267 383 310 401 c 128,-1,5
 353 419 353 419 389.5 441.5 c 128,-1,6
 426 464 426 464 452 495 c 1,7,8
 431 506 431 506 410 514.5 c 128,-1,9
 389 523 389 523 365 528.5 c 128,-1,10
 341 534 341 534 313 537 c 128,-1,11
 285 540 285 540 250 540 c 0,12,13
 240 540 240 540 227 539.5 c 128,-1,14
 214 539 214 539 200.5 538 c 128,-1,15
 187 537 187 537 175.5 535.5 c 128,-1,16
 164 534 164 534 157 533 c 1,17,-1
 216 654 l 1,18,19
 229 659 229 659 253.5 661.5 c 128,-1,20
 278 664 278 664 299 664 c 0,21,22
 328 664 328 664 360.5 659 c 128,-1,23
 393 654 393 654 424.5 645.5 c 128,-1,24
 456 637 456 637 484 625 c 128,-1,25
 512 613 512 613 533 599 c 1,26,-1
 589 444 l 1,27,28
 557 392 557 392 519 358.5 c 128,-1,29
 481 325 481 325 440 303.5 c 128,-1,30
 399 282 399 282 356 267.5 c 128,-1,31
 313 253 313 253 269 239 c 128,-1,32
 225 225 225 225 182 207 c 128,-1,33
 139 189 139 189 99 161 c 1,34,35
 160 140 160 140 237.5 125.5 c 128,-1,36
 315 111 315 111 424 99 c 1,37,-1
 366 -27 l 1,38,39
 317 -21 317 -21 269 -14.5 c 128,-1,40
 221 -8 221 -8 175.5 1 c 128,-1,41
 130 10 130 10 88 21.5 c 128,-1,42
 46 33 46 33 10 47 c 1,43,-1
 -45 226 l 1,0,1
EndSplineSet
EndChar

StartChar: bullet
Encoding: 8226 8226 62
Width: 380
Flags: W
LayerCount: 2
Fore
SplineSet
78 229 m 256,0,1
 62 245 62 245 53 266.5 c 128,-1,2
 44 288 44 288 44 313 c 256,3,4
 44 338 44 338 53 359.5 c 128,-1,5
 62 381 62 381 78 397 c 128,-1,6
 94 413 94 413 115.5 422 c 128,-1,7
 137 431 137 431 161 431 c 0,8,9
 186 431 186 431 208 422 c 128,-1,10
 230 413 230 413 246 397 c 128,-1,11
 262 381 262 381 271 359.5 c 128,-1,12
 280 338 280 338 280 313 c 256,13,14
 280 288 280 288 271 266.5 c 128,-1,15
 262 245 262 245 246 229 c 128,-1,16
 230 213 230 213 208 204 c 128,-1,17
 186 195 186 195 161 195 c 0,18,19
 137 195 137 195 115.5 204 c 128,-1,20
 94 213 94 213 78 229 c 256,0,1
EndSplineSet
EndChar

StartChar: at
Encoding: 64 64 63
Width: 1138
Flags: W
LayerCount: 2
Fore
SplineSet
50 127 m 0,0,1
 50 212 50 212 72.5 287.5 c 128,-1,2
 95 363 95 363 135 426.5 c 128,-1,3
 175 490 175 490 229 541 c 128,-1,4
 283 592 283 592 346.5 627 c 128,-1,5
 410 662 410 662 479.5 681 c 128,-1,6
 549 700 549 700 620 700 c 0,7,8
 701 700 701 700 770.5 671 c 128,-1,9
 840 642 840 642 891 591 c 128,-1,10
 942 540 942 540 971.5 470.5 c 128,-1,11
 1001 401 1001 401 1001 320 c 0,12,13
 1001 252 1001 252 979 180 c 1,14,15
 940 155 940 155 891 129.5 c 128,-1,16
 842 104 842 104 792 81.5 c 128,-1,17
 742 59 742 59 695.5 40.5 c 128,-1,18
 649 22 649 22 616 11 c 1,19,-1
 550 85 l 1,20,21
 521 64 521 64 481.5 43.5 c 128,-1,22
 442 23 442 23 394 8 c 1,23,-1
 288 106 l 1,24,25
 288 174 288 174 308.5 239 c 128,-1,26
 329 304 329 304 369.5 356.5 c 128,-1,27
 410 409 410 409 469.5 443.5 c 128,-1,28
 529 478 529 478 607 485 c 1,29,-1
 663 399 l 1,30,31
 672 411 672 411 683 424.5 c 128,-1,32
 694 438 694 438 707 454 c 1,33,-1
 791 387 l 1,34,35
 774 365 774 365 754.5 335.5 c 128,-1,36
 735 306 735 306 715.5 274 c 128,-1,37
 696 242 696 242 678 209 c 128,-1,38
 660 176 660 176 647 146 c 1,39,40
 668 151 668 151 698 160.5 c 128,-1,41
 728 170 728 170 759.5 180.5 c 128,-1,42
 791 191 791 191 819.5 201.5 c 128,-1,43
 848 212 848 212 864 221 c 1,44,45
 873 248 873 248 877.5 281 c 128,-1,46
 882 314 882 314 882 337 c 0,47,48
 882 391 882 391 860.5 437 c 128,-1,49
 839 483 839 483 802.5 516.5 c 128,-1,50
 766 550 766 550 717.5 569.5 c 128,-1,51
 669 589 669 589 615 589 c 0,52,53
 537 589 537 589 458 555.5 c 128,-1,54
 379 522 379 522 316 462.5 c 128,-1,55
 253 403 253 403 213.5 321.5 c 128,-1,56
 174 240 174 240 174 144 c 0,57,58
 174 87 174 87 193 38.5 c 128,-1,59
 212 -10 212 -10 247 -45 c 128,-1,60
 282 -80 282 -80 331.5 -100 c 128,-1,61
 381 -120 381 -120 442 -120 c 0,62,63
 560 -120 560 -120 669.5 -75.5 c 128,-1,64
 779 -31 779 -31 897 57 c 1,65,-1
 949 -28 l 1,66,67
 829 -125 829 -125 701.5 -177.5 c 128,-1,68
 574 -230 574 -230 435 -230 c 0,69,70
 349 -230 349 -230 278 -202 c 128,-1,71
 207 -174 207 -174 156.5 -126 c 128,-1,72
 106 -78 106 -78 78 -13 c 128,-1,73
 50 52 50 52 50 127 c 0,0,1
414 131 m 1,74,75
 461 144 461 144 494 164.5 c 128,-1,76
 527 185 527 185 549.5 213.5 c 128,-1,77
 572 242 572 242 585.5 279.5 c 128,-1,78
 599 317 599 317 607 364 c 1,79,80
 558 354 558 354 522 332 c 128,-1,81
 486 310 486 310 462.5 279.5 c 128,-1,82
 439 249 439 249 427 211 c 128,-1,83
 415 173 415 173 414 131 c 1,74,75
EndSplineSet
EndChar

StartChar: eth
Encoding: 240 240 65
Width: 581
Flags: W
LayerCount: 2
Fore
SplineSet
-51 92 m 1,0,1
 -49 117 -49 117 -43 148.5 c 128,-1,2
 -37 180 -37 180 -25.5 213 c 128,-1,3
 -14 246 -14 246 2 278.5 c 128,-1,4
 18 311 18 311 39 338 c 0,5,6
 81 392 81 392 131.5 423 c 128,-1,7
 182 454 182 454 249 474 c 1,8,-1
 340 382 l 1,9,10
 348 412 348 412 352.5 447.5 c 128,-1,11
 357 483 357 483 358 526 c 1,12,13
 335 523 335 523 312.5 519 c 128,-1,14
 290 515 290 515 267 510 c 1,15,-1
 252 619 l 1,16,17
 278 624 278 624 303.5 628 c 128,-1,18
 329 632 329 632 353 635 c 1,19,20
 351 655 351 655 348 672 c 128,-1,21
 345 689 345 689 343 705 c 1,22,-1
 481 725 l 1,23,24
 484 708 484 708 487 689.5 c 128,-1,25
 490 671 490 671 493 649 c 1,26,27
 517 651 517 651 542 652 c 128,-1,28
 567 653 567 653 593 654 c 1,29,-1
 599 545 l 1,30,31
 573 544 573 544 548 543.5 c 128,-1,32
 523 543 523 543 499 541 c 1,33,34
 499 438 499 438 477.5 356.5 c 128,-1,35
 456 275 456 275 422 212 c 1,36,37
 460 214 460 214 502.5 219 c 128,-1,38
 545 224 545 224 586 232 c 1,39,-1
 607 131 l 1,40,41
 491 82 491 82 386 58 c 1,42,-1
 345 106 l 1,43,44
 303 63 303 63 239.5 26 c 128,-1,45
 176 -11 176 -11 91 -27 c 1,46,-1
 -51 92 l 1,0,1
89 108 m 1,47,48
 133 118 133 118 174 143 c 128,-1,49
 215 168 215 168 248 207 c 0,50,51
 275 239 275 239 298 276.5 c 128,-1,52
 321 314 321 314 336 366 c 1,53,54
 280 354 280 354 236.5 329.5 c 128,-1,55
 193 305 193 305 162.5 271.5 c 128,-1,56
 132 238 132 238 113.5 196 c 128,-1,57
 95 154 95 154 89 108 c 1,47,48
EndSplineSet
EndChar

StartChar: dotlessi
Encoding: 305 305 66
Width: 332
Flags: W
LayerCount: 2
Fore
SplineSet
-81 79 m 1,0,1
 -67 117 -67 117 -39.5 173.5 c 128,-1,2
 -12 230 -12 230 22.5 291.5 c 128,-1,3
 57 353 57 353 95 413 c 128,-1,4
 133 473 133 473 169 518 c 1,5,-1
 268 445 l 1,6,7
 244 412 244 412 219 371.5 c 128,-1,8
 194 331 194 331 170.5 288.5 c 128,-1,9
 147 246 147 246 126.5 204 c 128,-1,10
 106 162 106 162 92 126 c 1,11,12
 162 147 162 147 222 175 c 128,-1,13
 282 203 282 203 337 232 c 1,14,-1
 358 131 l 1,15,16
 332 114 332 114 294.5 93 c 128,-1,17
 257 72 257 72 213.5 50 c 128,-1,18
 170 28 170 28 124 8 c 128,-1,19
 78 -12 78 -12 34 -27 c 1,20,-1
 -81 79 l 1,0,1
EndSplineSet
EndChar

StartChar: dotlessj
Encoding: 567 567 67
Width: 332
Flags: W
LayerCount: 2
Fore
SplineSet
25 8 m 1,0,1
 -10 -68 -10 -68 -36.5 -141.5 c 128,-1,2
 -63 -215 -63 -215 -88 -294 c 1,3,-1
 -204 -221 l 1,4,5
 -175 -131 -175 -131 -133.5 -27 c 128,-1,6
 -92 77 -92 77 -41 180 c 0,7,8
 -21 220 -21 220 4.5 265.5 c 128,-1,9
 30 311 30 311 57.5 356 c 128,-1,10
 85 401 85 401 114 443 c 128,-1,11
 143 485 143 485 169 518 c 1,12,-1
 268 445 l 1,13,14
 244 412 244 412 217.5 371 c 128,-1,15
 191 330 191 330 166 287.5 c 128,-1,16
 141 245 141 245 119.5 202.5 c 128,-1,17
 98 160 98 160 83 124 c 1,18,19
 157 146 157 146 218.5 174.5 c 128,-1,20
 280 203 280 203 337 232 c 1,21,-1
 358 131 l 1,22,23
 332 114 332 114 297 94.5 c 128,-1,24
 262 75 262 75 222.5 55 c 128,-1,25
 183 35 183 35 139.5 16 c 128,-1,26
 96 -3 96 -3 52 -18 c 1,27,-1
 25 8 l 1,28,-1
 25 8 l 1,0,1
EndSplineSet
EndChar

StartChar: kgreenlandic
Encoding: 312 312 68
Width: 552
Flags: W
LayerCount: 2
Fore
SplineSet
-81 50 m 1,0,1
 -63 111 -63 111 -37.5 176.5 c 128,-1,2
 -12 242 -12 242 20 308.5 c 128,-1,3
 52 375 52 375 90 440.5 c 128,-1,4
 128 506 128 506 172 568 c 1,5,-1
 282 491 l 1,6,7
 244 442 244 442 214.5 394 c 128,-1,8
 185 346 185 346 160 296 c 1,9,10
 225 356 225 356 293.5 414 c 128,-1,11
 362 472 362 472 443 529 c 1,12,-1
 545 434 l 1,13,14
 460 380 460 380 391 334.5 c 128,-1,15
 322 289 322 289 261 245 c 1,16,17
 271 216 271 216 283.5 188 c 128,-1,18
 296 160 296 160 312 128 c 1,19,20
 380 151 380 151 438.5 176 c 128,-1,21
 497 201 497 201 557 232 c 1,22,-1
 579 131 l 1,23,24
 549 111 549 111 514.5 89.5 c 128,-1,25
 480 68 480 68 443.5 47.5 c 128,-1,26
 407 27 407 27 370.5 8 c 128,-1,27
 334 -11 334 -11 300 -27 c 1,28,-1
 175 61 l 1,29,30
 160 104 160 104 148.5 149.5 c 128,-1,31
 137 195 137 195 132 237 c 1,32,33
 104 174 104 174 82 109 c 128,-1,34
 60 44 60 44 38 -27 c 1,35,-1
 -81 50 l 1,0,1
EndSplineSet
EndChar

StartChar: question
Encoding: 63 63 69
Width: 590
Flags: W
LayerCount: 2
Fore
SplineSet
117 222 m 1,0,1
 135 263 135 263 164 293 c 128,-1,2
 193 323 193 323 226.5 347.5 c 128,-1,3
 260 372 260 372 295 394 c 128,-1,4
 330 416 330 416 359.5 440.5 c 128,-1,5
 389 465 389 465 410.5 496.5 c 128,-1,6
 432 528 432 528 439 571 c 1,7,8
 418 574 418 574 396 574 c 0,9,10
 339 574 339 574 276.5 557 c 128,-1,11
 214 540 214 540 156 517 c 1,12,-1
 116 643 l 1,13,14
 180 672 180 672 253.5 692 c 128,-1,15
 327 712 327 712 397 712 c 0,16,17
 450 712 450 712 497 701 c 1,18,-1
 587 562 l 1,19,20
 580 497 580 497 556.5 451.5 c 128,-1,21
 533 406 533 406 500 372.5 c 128,-1,22
 467 339 467 339 428.5 313 c 128,-1,23
 390 287 390 287 353 261.5 c 128,-1,24
 316 236 316 236 284.5 206 c 128,-1,25
 253 176 253 176 235 135 c 1,26,-1
 117 222 l 1,0,1
9 10 m 0,27,28
 9 49 9 49 36 76 c 128,-1,29
 63 103 63 103 102 103 c 256,30,31
 141 103 141 103 168 76 c 128,-1,32
 195 49 195 49 195 10 c 0,33,34
 195 -9 195 -9 188 -26 c 128,-1,35
 181 -43 181 -43 168 -55.5 c 128,-1,36
 155 -68 155 -68 138 -75.5 c 128,-1,37
 121 -83 121 -83 102 -83 c 0,38,39
 82 -83 82 -83 65.5 -75.5 c 128,-1,40
 49 -68 49 -68 36 -55.5 c 128,-1,41
 23 -43 23 -43 16 -26 c 128,-1,42
 9 -9 9 -9 9 10 c 0,27,28
EndSplineSet
EndChar

StartChar: acute
Encoding: 180 180 70
Width: 355
Flags: W
LayerCount: 2
Fore
SplineSet
89 616 m 1,0,1
 155 667 155 667 206.5 717 c 128,-1,2
 258 767 258 767 303 817 c 1,3,-1
 400 723 l 1,4,5
 342 669 342 669 285 626 c 128,-1,6
 228 583 228 583 164 539 c 1,7,-1
 89 616 l 1,0,1
EndSplineSet
EndChar

StartChar: acute.cap
Encoding: 65537 -1 71
Width: 355
Flags: W
LayerCount: 2
Fore
SplineSet
75 805 m 1,0,1
 113 820 113 820 148 834 c 128,-1,2
 183 848 183 848 216 862.5 c 128,-1,3
 249 877 249 877 281.5 893 c 128,-1,4
 314 909 314 909 348 928 c 1,5,-1
 399 809 l 1,6,7
 328 777 328 777 260.5 753 c 128,-1,8
 193 729 193 729 114 708 c 1,9,-1
 75 805 l 1,0,1
EndSplineSet
EndChar

StartChar: dieresis
Encoding: 168 168 87
Width: 355
Flags: W
LayerCount: 2
Fore
SplineSet
95 648 m 0,0,1
 72 672 72 672 72 705 c 256,2,3
 72 738 72 738 95 761 c 128,-1,4
 118 784 118 784 151 784 c 256,5,6
 184 784 184 784 207 761 c 128,-1,7
 230 738 230 738 230 705 c 256,8,9
 230 672 230 672 207 648.5 c 128,-1,10
 184 625 184 625 151 625 c 256,11,12
 118 625 118 625 95 648 c 0,0,1
351 552 m 0,13,14
 328 575 328 575 328 608 c 256,15,16
 328 641 328 641 351.5 664.5 c 128,-1,17
 375 688 375 688 408 688 c 256,18,19
 441 688 441 688 464 664.5 c 128,-1,20
 487 641 487 641 487 608 c 256,21,22
 487 575 487 575 464 552 c 128,-1,23
 441 529 441 529 408 529 c 256,24,25
 375 529 375 529 351 552 c 0,13,14
EndSplineSet
EndChar

StartChar: dieresis.cap
Encoding: 65538 -1 93
Width: 355
Flags: W
LayerCount: 2
Fore
SplineSet
162 812 m 0,0,1
 139 835 139 835 139 868 c 256,2,3
 139 901 139 901 162.5 924.5 c 128,-1,4
 186 948 186 948 219 948 c 256,5,6
 252 948 252 948 275 924.5 c 128,-1,7
 298 901 298 901 298 868 c 256,8,9
 298 835 298 835 275 812 c 128,-1,10
 252 789 252 789 219 789 c 256,11,12
 186 789 186 789 162 812 c 0,0,1
419 716 m 256,13,14
 396 739 396 739 396 772 c 256,15,16
 396 805 396 805 419 828 c 128,-1,17
 442 851 442 851 475 851 c 256,18,19
 508 851 508 851 531 828 c 128,-1,20
 554 805 554 805 554 772 c 256,21,22
 554 739 554 739 531 716 c 128,-1,23
 508 693 508 693 475 693 c 256,24,25
 442 693 442 693 419 716 c 256,13,14
EndSplineSet
EndChar

StartChar: grave
Encoding: 96 96 100
Width: 355
Flags: W
LayerCount: 2
Fore
SplineSet
226 544 m 1,0,1
 193 621 193 621 159.5 681 c 128,-1,2
 126 741 126 741 88 797 c 1,3,-1
 201 859 l 1,4,5
 239 790 239 790 268 724.5 c 128,-1,6
 297 659 297 659 324 587 c 1,7,-1
 226 544 l 1,8,-1
 226 544 l 1,0,1
EndSplineSet
EndChar

StartChar: three
Encoding: 51 51 106
Width: 599
Flags: W
LayerCount: 2
Fore
SplineSet
-57 148 m 1,0,1
 -17 137 -17 137 28.5 128.5 c 128,-1,2
 74 120 74 120 122 120 c 0,3,4
 176 120 176 120 226.5 134 c 128,-1,5
 277 148 277 148 318 183 c 1,6,7
 296 198 296 198 265.5 214.5 c 128,-1,8
 235 231 235 231 201.5 246.5 c 128,-1,9
 168 262 168 262 134.5 275.5 c 128,-1,10
 101 289 101 289 73 297 c 1,11,-1
 130 412 l 1,12,13
 228 412 228 412 307 431.5 c 128,-1,14
 386 451 386 451 449 488 c 1,15,16
 401 514 401 514 351.5 527 c 128,-1,17
 302 540 302 540 238 540 c 0,18,19
 218 540 218 540 198.5 539 c 128,-1,20
 179 538 179 538 160 537 c 1,21,-1
 221 660 l 1,22,23
 238 662 238 662 257 663 c 128,-1,24
 276 664 276 664 294 664 c 0,25,26
 356 664 356 664 414 645.5 c 128,-1,27
 472 627 472 627 526 597 c 1,28,-1
 584 432 l 1,29,30
 546 407 546 407 511 388 c 128,-1,31
 476 369 476 369 442.5 355 c 128,-1,32
 409 341 409 341 376 332 c 128,-1,33
 343 323 343 323 309 317 c 1,34,35
 338 303 338 303 366.5 287 c 128,-1,36
 395 271 395 271 421 253 c 1,37,-1
 467 127 l 1,38,39
 399 53 399 53 314.5 18 c 128,-1,40
 230 -17 230 -17 136 -17 c 0,41,42
 50 -17 50 -17 -40 12 c 1,43,-1
 -57 148 l 1,0,1
EndSplineSet
EndChar

StartChar: five
Encoding: 53 53 107
Width: 603
Flags: W
LayerCount: 2
Fore
SplineSet
-61 148 m 1,0,1
 -24 135 -24 135 15.5 128 c 128,-1,2
 55 121 55 121 97 121 c 0,3,4
 161 121 161 121 221.5 142.5 c 128,-1,5
 282 164 282 164 327 217 c 1,6,7
 295 230 295 230 265.5 241 c 128,-1,8
 236 252 236 252 206.5 262 c 128,-1,9
 177 272 177 272 144.5 281.5 c 128,-1,10
 112 291 112 291 74 301 c 1,11,-1
 67 423 l 1,12,-1
 208 626 l 1,13,14
 241 640 241 640 281 651 c 128,-1,15
 321 662 321 662 353 667 c 1,16,17
 388 658 388 658 417 649.5 c 128,-1,18
 446 641 446 641 474.5 630.5 c 128,-1,19
 503 620 503 620 534.5 607 c 128,-1,20
 566 594 566 594 607 577 c 1,21,-1
 553 442 l 1,22,23
 513 459 513 459 479.5 472 c 128,-1,24
 446 485 446 485 415.5 496 c 128,-1,25
 385 507 385 507 355 516 c 128,-1,26
 325 525 325 525 292 533 c 1,27,-1
 196 395 l 1,28,29
 224 387 224 387 251.5 378.5 c 128,-1,30
 279 370 279 370 307.5 359.5 c 128,-1,31
 336 349 336 349 367 336.5 c 128,-1,32
 398 324 398 324 434 308 c 1,33,-1
 482 176 l 1,34,35
 417 79 417 79 325.5 33 c 128,-1,36
 234 -13 234 -13 126 -13 c 0,37,38
 41 -13 41 -13 -46 14 c 1,39,-1
 -61 148 l 1,0,1
EndSplineSet
EndChar

StartChar: six
Encoding: 54 54 108
Width: 610
Flags: W
LayerCount: 2
Fore
SplineSet
-5 102 m 1,0,1
 1 215 1 215 24.5 307 c 128,-1,2
 48 399 48 399 98.5 471 c 128,-1,3
 149 543 149 543 229.5 597 c 128,-1,4
 310 651 310 651 429 688 c 1,5,-1
 543 593 l 1,6,7
 418 559 418 559 342 511.5 c 128,-1,8
 266 464 266 464 223 401 c 1,9,10
 251 412 251 412 283 418.5 c 128,-1,11
 315 425 315 425 356 425 c 0,12,13
 369 425 369 425 379.5 424 c 128,-1,14
 390 423 390 423 403 422 c 1,15,-1
 523 321 l 1,16,17
 511 248 511 248 480 188.5 c 128,-1,18
 449 129 449 129 402 84 c 128,-1,19
 355 39 355 39 293 10.5 c 128,-1,20
 231 -18 231 -18 156 -28 c 1,21,-1
 -5 102 l 1,0,1
139 100 m 1,22,23
 177 104 177 104 213.5 119 c 128,-1,24
 250 134 250 134 281.5 160.5 c 128,-1,25
 313 187 313 187 336.5 224 c 128,-1,26
 360 261 360 261 373 310 c 1,27,28
 364 311 364 311 355 311 c 2,29,-1
 338 311 l 2,30,31
 293 311 293 311 251 303.5 c 128,-1,32
 209 296 209 296 167 282 c 1,33,34
 155 240 155 240 148.5 195 c 128,-1,35
 142 150 142 150 139 100 c 1,22,23
EndSplineSet
EndChar

StartChar: nine
Encoding: 57 57 109
Width: 608
Flags: W
LayerCount: 2
Fore
SplineSet
11 58 m 1,0,1
 129 90 129 90 202 135.5 c 128,-1,2
 275 181 275 181 317 240 c 1,3,4
 259 215 259 215 191 215 c 0,5,6
 166 215 166 215 139 218 c 1,7,-1
 19 320 l 1,8,9
 31 393 31 393 62 453 c 128,-1,10
 93 513 93 513 140 557.5 c 128,-1,11
 187 602 187 602 250 630.5 c 128,-1,12
 313 659 313 659 388 669 c 1,13,-1
 547 547 l 1,14,15
 547 451 547 451 526 361 c 128,-1,16
 505 271 505 271 456 194.5 c 128,-1,17
 407 118 407 118 326.5 58.5 c 128,-1,18
 246 -1 246 -1 127 -38 c 1,19,-1
 11 58 l 1,0,1
169 338 m 1,20,21
 178 337 178 337 186 337 c 2,22,-1
 204 337 l 2,23,24
 249 337 249 337 291 342.5 c 128,-1,25
 333 348 333 348 375 362 c 1,26,27
 387 404 387 404 393.5 450.5 c 128,-1,28
 400 497 400 497 404 549 c 1,29,30
 366 545 366 545 329.5 529 c 128,-1,31
 293 513 293 513 262 486 c 128,-1,32
 231 459 231 459 206.5 422 c 128,-1,33
 182 385 182 385 169 338 c 1,20,21
EndSplineSet
EndChar

StartChar: grave.cap
Encoding: 65539 -1 110
Width: 355
Flags: W
LayerCount: 2
Fore
SplineSet
322 666 m 1,0,1
 268 723 268 723 213 770 c 128,-1,2
 158 817 158 817 101 859 c 1,3,-1
 181 950 l 1,4,5
 241 898 241 898 292.5 848.5 c 128,-1,6
 344 799 344 799 394 741 c 1,7,-1
 322 666 l 1,8,-1
 322 666 l 1,0,1
EndSplineSet
EndChar

StartChar: parenleft
Encoding: 40 40 116
Width: 431
Flags: W
LayerCount: 2
Fore
SplineSet
69 170 m 256,0,1
 87 295 87 295 139 401.5 c 128,-1,2
 191 508 191 508 281 596.5 c 128,-1,3
 371 685 371 685 508 756 c 1,4,-1
 581 683 l 1,5,6
 458 615 458 615 377 532 c 128,-1,7
 296 449 296 449 248.5 345.5 c 128,-1,8
 201 242 201 242 182.5 114 c 128,-1,9
 164 -14 164 -14 166 -173 c 1,10,-1
 58 -100 l 1,11,12
 51 45 51 45 69 170 c 256,0,1
EndSplineSet
EndChar

StartChar: ring
Encoding: 730 730 118
Width: 355
Flags: W
LayerCount: 2
Fore
SplineSet
164 564 m 0,0,1
 143 573 143 573 127 589 c 128,-1,2
 111 605 111 605 102 626 c 128,-1,3
 93 647 93 647 93 671 c 0,4,5
 93 722 93 722 126.5 755.5 c 128,-1,6
 160 789 160 789 211 789 c 0,7,8
 235 789 235 789 256 780 c 128,-1,9
 277 771 277 771 293 755 c 128,-1,10
 309 739 309 739 318 717.5 c 128,-1,11
 327 696 327 696 327 671 c 0,12,13
 327 647 327 647 318 626 c 128,-1,14
 309 605 309 605 293 589 c 128,-1,15
 277 573 277 573 256 564 c 128,-1,16
 235 555 235 555 211 555 c 0,17,18
 186 555 186 555 164 564 c 0,0,1
210 625 m 0,19,20
 229 625 229 625 242.5 638.5 c 128,-1,21
 256 652 256 652 256 671 c 0,22,23
 256 691 256 691 242.5 705 c 128,-1,24
 229 719 229 719 210 719 c 0,25,26
 190 719 190 719 176 705 c 128,-1,27
 162 691 162 691 162 671 c 0,28,29
 162 652 162 652 176 638.5 c 128,-1,30
 190 625 190 625 210 625 c 0,19,20
EndSplineSet
EndChar

StartChar: ring.cap
Encoding: 65540 -1 120
Width: 355
Flags: W
LayerCount: 2
Fore
SplineSet
225 645 m 0,0,1
 204 654 204 654 188 670 c 128,-1,2
 172 686 172 686 163 707 c 128,-1,3
 154 728 154 728 154 752 c 0,4,5
 154 803 154 803 187.5 836.5 c 128,-1,6
 221 870 221 870 272 870 c 0,7,8
 296 870 296 870 317.5 861 c 128,-1,9
 339 852 339 852 354.5 836 c 128,-1,10
 370 820 370 820 379 798.5 c 128,-1,11
 388 777 388 777 388 752 c 0,12,13
 388 728 388 728 379 707 c 128,-1,14
 370 686 370 686 354.5 670 c 128,-1,15
 339 654 339 654 317.5 645 c 128,-1,16
 296 636 296 636 272 636 c 0,17,18
 247 636 247 636 225 645 c 0,0,1
271 706 m 0,19,20
 290 706 290 706 304 719.5 c 128,-1,21
 318 733 318 733 318 752 c 0,22,23
 318 772 318 772 304 786 c 128,-1,24
 290 800 290 800 271 800 c 0,25,26
 251 800 251 800 237 786 c 128,-1,27
 223 772 223 772 223 752 c 0,28,29
 223 733 223 733 237 719.5 c 128,-1,30
 251 706 251 706 271 706 c 0,19,20
EndSplineSet
EndChar

StartChar: zero
Encoding: 48 48 122
Width: 664
Flags: W
LayerCount: 2
Fore
SplineSet
46 61 m 1,0,1
 23 147 23 147 23 220 c 0,2,3
 23 302 23 302 47.5 373.5 c 128,-1,4
 72 445 72 445 119 503.5 c 128,-1,5
 166 562 166 562 234 605.5 c 128,-1,6
 302 649 302 649 389 674 c 1,7,-1
 560 575 l 1,8,9
 576 495 576 495 576 422 c 0,10,11
 576 256 576 256 488.5 143.5 c 128,-1,12
 401 31 401 31 217 -36 c 1,13,-1
 46 61 l 1,0,1
173 103 m 1,14,15
 295 145 295 145 364 226.5 c 128,-1,16
 433 308 433 308 433 436 c 0,17,18
 433 460 433 460 430 485.5 c 128,-1,19
 427 511 427 511 422 539 c 1,20,21
 302 501 302 501 233.5 412 c 128,-1,22
 165 323 165 323 165 192 c 0,23,24
 165 171 165 171 166.5 148.5 c 128,-1,25
 168 126 168 126 173 103 c 1,14,15
EndSplineSet
EndChar

StartChar: circumflex
Encoding: 710 710 123
Width: 355
Flags: W
LayerCount: 2
Fore
SplineSet
71 687 m 1,0,1
 104 705 104 705 130 718 c 128,-1,2
 156 731 156 731 181.5 743 c 128,-1,3
 207 755 207 755 235.5 767.5 c 128,-1,4
 264 780 264 780 302 795 c 1,5,-1
 421 734 l 1,6,7
 429 704 429 704 435.5 679 c 128,-1,8
 442 654 442 654 447.5 629.5 c 128,-1,9
 453 605 453 605 458 578 c 128,-1,10
 463 551 463 551 469 518 c 1,11,-1
 370 493 l 1,12,13
 356 546 356 546 342 589 c 128,-1,14
 328 632 328 632 309 675 c 1,15,16
 279 665 279 665 256.5 657 c 128,-1,17
 234 649 234 649 213 641 c 128,-1,18
 192 633 192 633 170 623 c 128,-1,19
 148 613 148 613 119 598 c 1,20,-1
 71 687 l 1,0,1
EndSplineSet
EndChar

StartChar: circumflex.cap
Encoding: 65541 -1 128
Width: 355
Flags: W
LayerCount: 2
Fore
SplineSet
161 822 m 1,0,1
 194 840 194 840 220 853 c 128,-1,2
 246 866 246 866 271.5 877 c 128,-1,3
 297 888 297 888 325.5 898.5 c 128,-1,4
 354 909 354 909 392 921 c 1,5,-1
 511 860 l 1,6,7
 523 836 523 836 532.5 813 c 128,-1,8
 542 790 542 790 551 765.5 c 128,-1,9
 560 741 560 741 568.5 713.5 c 128,-1,10
 577 686 577 686 586 653 c 1,11,-1
 487 628 l 1,12,13
 467 676 467 676 447 718 c 128,-1,14
 427 760 427 760 402 804 c 1,15,16
 373 796 373 796 350 789 c 128,-1,17
 327 782 327 782 305.5 774 c 128,-1,18
 284 766 284 766 261 756 c 128,-1,19
 238 746 238 746 209 733 c 1,20,-1
 161 822 l 1,0,1
EndSplineSet
EndChar

StartChar: caron
Encoding: 711 711 136
Width: 355
Flags: W
LayerCount: 2
Fore
SplineSet
119 616 m 1,0,1
 111 646 111 646 104.5 671 c 128,-1,2
 98 696 98 696 92.5 720.5 c 128,-1,3
 87 745 87 745 82 771.5 c 128,-1,4
 77 798 77 798 71 832 c 1,5,-1
 170 857 l 1,6,7
 184 803 184 803 197.5 760 c 128,-1,8
 211 717 211 717 230 674 c 1,9,10
 260 684 260 684 283 692 c 128,-1,11
 306 700 306 700 327 708 c 128,-1,12
 348 716 348 716 370 726 c 128,-1,13
 392 736 392 736 421 751 c 1,14,-1
 469 663 l 1,15,16
 436 645 436 645 410 632 c 128,-1,17
 384 619 384 619 358.5 607 c 128,-1,18
 333 595 333 595 304 582.5 c 128,-1,19
 275 570 275 570 238 555 c 1,20,-1
 119 616 l 1,0,1
EndSplineSet
EndChar

StartChar: caron.cap
Encoding: 65542 -1 139
Width: 355
Flags: W
LayerCount: 2
Fore
SplineSet
236 688 m 1,0,1
 224 712 224 712 214 734.5 c 128,-1,2
 204 757 204 757 195 781.5 c 128,-1,3
 186 806 186 806 178 833.5 c 128,-1,4
 170 861 170 861 161 895 c 1,5,-1
 260 920 l 1,6,7
 280 871 280 871 299.5 829 c 128,-1,8
 319 787 319 787 345 743 c 1,9,10
 374 751 374 751 397 758 c 128,-1,11
 420 765 420 765 441.5 773 c 128,-1,12
 463 781 463 781 486 790.5 c 128,-1,13
 509 800 509 800 538 814 c 1,14,-1
 586 726 l 1,15,16
 553 708 553 708 527 695 c 128,-1,17
 501 682 501 682 475.5 671 c 128,-1,18
 450 660 450 660 421 649.5 c 128,-1,19
 392 639 392 639 355 627 c 1,20,-1
 236 688 l 1,0,1
EndSplineSet
EndChar

StartChar: macron
Encoding: 175 175 141
Width: 355
Flags: W
LayerCount: 2
Fore
SplineSet
222 673 m 0,0,1
 142 700 142 700 61 720 c 1,2,-1
 103 834 l 1,3,4
 188 813 188 813 269 785 c 128,-1,5
 350 757 350 757 434 720 c 1,6,-1
 387 608 l 1,7,8
 303 646 303 646 222 673 c 0,0,1
EndSplineSet
EndChar

StartChar: macron.cap
Encoding: 65543 -1 142
Width: 355
Flags: W
LayerCount: 2
Fore
SplineSet
184 956 m 1,0,1
 269 935 269 935 350 907 c 128,-1,2
 431 879 431 879 515 842 c 1,3,-1
 468 730 l 1,4,5
 384 768 384 768 303.5 795 c 128,-1,6
 223 822 223 822 142 842 c 1,7,-1
 184 956 l 1,0,1
EndSplineSet
EndChar

StartChar: commaaccent
Encoding: 63171 63171 143
Width: 355
Flags: W
LayerCount: 2
Fore
SplineSet
190 -77 m 1,0,1
 158 -136 158 -136 121.5 -189 c 128,-1,2
 85 -242 85 -242 43 -290 c 1,3,-1
 -55 -236 l 1,4,5
 -20 -187 -20 -187 10 -128.5 c 128,-1,6
 40 -70 40 -70 68 -4 c 1,7,-1
 190 -77 l 1,0,1
EndSplineSet
EndChar

StartChar: tilde
Encoding: 732 732 147
Width: 355
Flags: W
LayerCount: 2
Fore
SplineSet
303 549 m 0,0,1
 281 567 281 567 259.5 586.5 c 128,-1,2
 238 606 238 606 218 622.5 c 128,-1,3
 198 639 198 639 179 643 c 1,4,-1
 98 637 l 1,5,-1
 88 732 l 1,6,7
 100 736 100 736 118 740 c 128,-1,8
 136 744 136 744 155.5 747.5 c 128,-1,9
 175 751 175 751 193.5 753.5 c 128,-1,10
 212 756 212 756 226 756 c 1,11,12
 250 749 250 749 272.5 731 c 128,-1,13
 295 713 295 713 316.5 693.5 c 128,-1,14
 338 674 338 674 358 657.5 c 128,-1,15
 378 641 378 641 397 637 c 1,16,-1
 477 643 l 1,17,-1
 489 549 l 1,18,19
 476 545 476 545 457.5 540.5 c 128,-1,20
 439 536 439 536 419.5 532.5 c 128,-1,21
 400 529 400 529 381 527 c 128,-1,22
 362 525 362 525 349 525 c 1,23,24
 325 532 325 532 303 549 c 0,0,1
EndSplineSet
EndChar

StartChar: tilde.cap
Encoding: 65544 -1 152
Width: 355
Flags: W
LayerCount: 2
Fore
SplineSet
358 685 m 1,0,1
 335 703 335 703 313 722.5 c 128,-1,2
 291 742 291 742 271.5 758.5 c 128,-1,3
 252 775 252 775 236 779 c 1,4,-1
 155 774 l 1,5,-1
 145 868 l 1,6,7
 157 872 157 872 175 876.5 c 128,-1,8
 193 881 193 881 212.5 884.5 c 128,-1,9
 232 888 232 888 250.5 890.5 c 128,-1,10
 269 893 269 893 283 893 c 1,11,12
 307 886 307 886 330.5 868 c 128,-1,13
 354 850 354 850 376 830.5 c 128,-1,14
 398 811 398 811 418 794.5 c 128,-1,15
 438 778 438 778 454 774 c 1,16,-1
 534 779 l 1,17,-1
 545 686 l 1,18,19
 533 682 533 682 514.5 677.5 c 128,-1,20
 496 673 496 673 476.5 669.5 c 128,-1,21
 457 666 457 666 438 663.5 c 128,-1,22
 419 661 419 661 406 661 c 1,23,24
 382 668 382 668 358 685 c 1,0,1
EndSplineSet
EndChar

StartChar: Eth
Encoding: 208 208 158
Width: 692
Flags: W
LayerCount: 2
Fore
SplineSet
-57 92 m 1,0,1
 -27 160 -27 160 3 221 c 0,2,3
 28 270 28 270 54 317 c 1,4,5
 13 327 13 327 -29 336 c 1,6,-1
 13 448 l 1,7,8
 58 439 58 439 97 429 c 2,9,-1
 121 423 l 1,10,11
 131 438 131 438 141 452 c 0,12,13
 180 507 180 507 227 564 c 1,14,15
 192 569 192 569 160 572 c 128,-1,16
 128 575 128 575 102 575 c 1,17,-1
 145 694 l 1,18,19
 265 689 265 689 376 670.5 c 128,-1,20
 487 652 487 652 593 606 c 1,21,-1
 652 472 l 1,22,23
 627 366 627 366 571.5 282 c 128,-1,24
 516 198 516 198 439 136 c 128,-1,25
 362 74 362 74 268 33.5 c 128,-1,26
 174 -7 174 -7 71 -26 c 1,27,-1
 -57 92 l 1,0,1
119 123 m 1,28,29
 185 142 185 142 246.5 176 c 128,-1,30
 308 210 308 210 360 257 c 128,-1,31
 412 304 412 304 450 363 c 128,-1,32
 488 422 488 422 506 490 c 1,33,34
 454 512 454 512 388 530 c 128,-1,35
 322 548 322 548 256 559 c 1,36,-1
 344 487 l 1,37,38
 301 433 301 433 264 378 c 1,39,40
 297 366 297 366 335 351 c 1,41,-1
 288 239 l 1,42,43
 241 258 241 258 197 273 c 1,44,45
 155 203 155 203 119 123 c 1,28,29
EndSplineSet
EndChar

StartChar: lslash
Encoding: 322 322 159
Width: 465
Flags: W
LayerCount: 2
Fore
SplineSet
98 735 m 1,0,1
 146 764 146 764 189.5 782.5 c 128,-1,2
 233 801 233 801 274 810 c 1,3,4
 309 791 309 791 341 772 c 128,-1,5
 373 753 373 753 404 732 c 128,-1,6
 435 711 435 711 466 687 c 128,-1,7
 497 663 497 663 530 635 c 1,8,-1
 487 550 l 1,9,10
 454 577 454 577 424 598.5 c 128,-1,11
 394 620 394 620 366.5 638 c 128,-1,12
 339 656 339 656 311.5 672 c 128,-1,13
 284 688 284 688 255 703 c 1,14,15
 232 699 232 699 202.5 691.5 c 128,-1,16
 173 684 173 684 141 673 c 1,17,-1
 98 735 l 1,0,1
-63 88 m 1,18,19
 -47 145 -47 145 -16.5 216 c 128,-1,20
 14 287 14 287 55 362.5 c 128,-1,21
 96 438 96 438 146 513.5 c 128,-1,22
 196 589 196 589 250 655 c 1,23,-1
 362 579 l 1,24,25
 309 514 309 514 263 445.5 c 128,-1,26
 217 377 217 377 180.5 313 c 128,-1,27
 144 249 144 249 118.5 193.5 c 128,-1,28
 93 138 93 138 81 99 c 1,29,30
 121 102 121 102 168 111 c 128,-1,31
 215 120 215 120 265.5 136 c 128,-1,32
 316 152 316 152 368 175.5 c 128,-1,33
 420 199 420 199 470 232 c 1,34,-1
 491 131 l 1,35,36
 445 99 445 99 392.5 71.5 c 128,-1,37
 340 44 340 44 284.5 23 c 128,-1,38
 229 2 229 2 172 -11 c 128,-1,39
 115 -24 115 -24 61 -27 c 1,40,-1
 -63 88 l 1,18,19
EndSplineSet
EndChar

StartChar: ldot
Encoding: 320 320 160
Width: 465
Flags: W
LayerCount: 2
Fore
SplineSet
-63 88 m 1,0,1
 -47 148 -47 148 -12 230.5 c 128,-1,2
 23 313 23 313 71 402 c 128,-1,3
 119 491 119 491 175.5 578.5 c 128,-1,4
 232 666 232 666 292 736 c 1,5,-1
 394 661 l 1,6,7
 337 593 337 593 286 513.5 c 128,-1,8
 235 434 235 434 193.5 357 c 128,-1,9
 152 280 152 280 123.5 211.5 c 128,-1,10
 95 143 95 143 83 97 c 1,11,12
 123 100 123 100 169.5 109.5 c 128,-1,13
 216 119 216 119 266.5 135.5 c 128,-1,14
 317 152 317 152 368.5 175.5 c 128,-1,15
 420 199 420 199 470 232 c 1,16,-1
 491 131 l 1,17,18
 445 99 445 99 392.5 71.5 c 128,-1,19
 340 44 340 44 284.5 23 c 128,-1,20
 229 2 229 2 172 -11 c 128,-1,21
 115 -24 115 -24 61 -27 c 1,22,-1
 -63 88 l 1,0,1
238 301 m 0,23,24
 238 335 238 335 262 359 c 128,-1,25
 286 383 286 383 321 383 c 256,26,27
 356 383 356 383 380 359 c 128,-1,28
 404 335 404 335 404 301 c 0,29,30
 404 266 404 266 380 242 c 128,-1,31
 356 218 356 218 321 218 c 256,32,33
 286 218 286 218 262 242 c 128,-1,34
 238 266 238 266 238 301 c 0,23,24
EndSplineSet
EndChar

StartChar: oslash
Encoding: 248 248 161
Width: 586
Flags: W
LayerCount: 2
Fore
SplineSet
-35 25 m 0,0,1
 -19 44 -19 44 -1 64 c 1,2,-1
 -34 92 l 1,3,4
 -34 117 -34 117 -30.5 148 c 128,-1,5
 -27 179 -27 179 -18.5 213 c 128,-1,6
 -10 247 -10 247 4 281.5 c 128,-1,7
 18 316 18 316 39 349 c 0,8,9
 61 385 61 385 92.5 416.5 c 128,-1,10
 124 448 124 448 161.5 473 c 128,-1,11
 199 498 199 498 241 514 c 128,-1,12
 283 530 283 530 327 536 c 1,13,-1
 376 494 l 1,14,15
 392 514 392 514 408 533 c 0,16,17
 428 557 428 557 445 580 c 1,18,-1
 511 526 l 1,19,20
 491 503 491 503 471 478 c 0,21,22
 456 459 456 459 440 439 c 1,23,-1
 486 400 l 1,24,25
 478 349 478 349 464 302 c 128,-1,26
 450 255 450 255 428 212 c 1,27,28
 466 214 466 214 506 219 c 128,-1,29
 546 224 546 224 591 232 c 1,30,-1
 613 131 l 1,31,32
 584 119 584 119 558.5 108.5 c 128,-1,33
 533 98 533 98 508.5 89.5 c 128,-1,34
 484 81 484 81 460 73 c 128,-1,35
 436 65 436 65 409 58 c 1,36,-1
 361 113 l 1,37,38
 315 60 315 60 252 24 c 128,-1,39
 189 -12 189 -12 108 -27 c 1,40,-1
 64 10 l 1,41,-1
 -13 -77 l 1,42,-1
 -77 -22 l 1,43,44
 -56 1 -56 1 -35 25 c 0,0,1
100 109 m 1,45,46
 143 119 143 119 184 144.5 c 128,-1,47
 225 170 225 170 259 208 c 0,48,49
 274 226 274 226 290 250 c 128,-1,50
 306 274 306 274 319 302 c 128,-1,51
 332 330 332 330 341 359.5 c 128,-1,52
 350 389 350 389 351 416 c 1,53,54
 322 412 322 412 294.5 399.5 c 128,-1,55
 267 387 267 387 242.5 369.5 c 128,-1,56
 218 352 218 352 197 330.5 c 128,-1,57
 176 309 176 309 160 287 c 0,58,59
 128 241 128 241 115 197 c 128,-1,60
 102 153 102 153 100 109 c 1,45,46
EndSplineSet
EndChar

StartChar: Lslash
Encoding: 321 321 163
Width: 510
Flags: W
LayerCount: 2
Fore
SplineSet
-62 113 m 1,0,1
 -29 182 -29 182 12 255 c 1,2,3
 -14 251 -14 251 -40 248 c 1,4,-1
 -52 339 l 1,5,6
 -1 346 -1 346 57 356 c 0,7,8
 65 357 65 357 73 359 c 1,9,10
 91 388 91 388 110 417 c 0,11,12
 158 493 158 493 206.5 562.5 c 128,-1,13
 255 632 255 632 297 689 c 1,14,-1
 400 585 l 1,15,16
 370 544 370 544 335 492 c 0,17,18
 304 446 304 446 272 394 c 1,19,20
 283 397 283 397 295 399 c 0,21,22
 355 411 355 411 410 422 c 1,23,-1
 427 322 l 1,24,25
 319 300 319 300 204 282 c 1,26,-1
 193 263 l 2,27,28
 158 201 158 201 125 140 c 1,29,30
 186 127 186 127 247.5 118.5 c 128,-1,31
 309 110 309 110 391 102 c 1,32,-1
 348 -37 l 1,33,34
 301 -33 301 -33 262.5 -28.5 c 128,-1,35
 224 -24 224 -24 190 -19.5 c 128,-1,36
 156 -15 156 -15 124 -9 c 128,-1,37
 92 -3 92 -3 58 4 c 1,38,-1
 -62 113 l 1,0,1
EndSplineSet
EndChar

StartChar: hbar
Encoding: 295 295 164
Width: 629
Flags: W
LayerCount: 2
Fore
SplineSet
-81 50 m 1,0,1
 -69 91 -69 91 -46.5 146 c 128,-1,2
 -24 201 -24 201 4 262.5 c 128,-1,3
 32 324 32 324 64 388.5 c 128,-1,4
 96 453 96 453 128 513 c 0,5,6
 142 538 142 538 155 561 c 1,7,8
 123 577 123 577 91 591 c 1,9,-1
 139 677 l 1,10,11
 171 664 171 664 205 648 c 1,12,13
 228 685 228 685 247 714 c 1,14,-1
 349 637 l 1,15,16
 333 612 333 612 318 586 c 1,17,18
 349 567 349 567 379 547 c 1,19,-1
 325 463 l 1,20,21
 297 482 297 482 268 500 c 1,22,-1
 266 496 l 1,23,24
 226 424 226 424 188 349 c 1,25,26
 238 387 238 387 288 418.5 c 128,-1,27
 338 450 338 450 402 484 c 1,28,-1
 523 389 l 1,29,30
 506 317 506 317 476 252 c 128,-1,31
 446 187 446 187 407 133 c 1,32,33
 471 155 471 155 524 179 c 128,-1,34
 577 203 577 203 634 232 c 1,35,-1
 655 131 l 1,36,37
 629 114 629 114 585 91 c 128,-1,38
 541 68 541 68 493.5 44.5 c 128,-1,39
 446 21 446 21 402 1.5 c 128,-1,40
 358 -18 358 -18 331 -27 c 1,41,-1
 207 61 l 1,42,43
 267 133 267 133 307.5 203.5 c 128,-1,44
 348 274 348 274 360 327 c 1,45,46
 326 310 326 310 295.5 294.5 c 128,-1,47
 265 279 265 279 235 262.5 c 128,-1,48
 205 246 205 246 175.5 227 c 128,-1,49
 146 208 146 208 113 185 c 1,50,51
 91 131 91 131 72 78.5 c 128,-1,52
 53 26 53 26 38 -27 c 1,53,-1
 -81 50 l 1,0,1
EndSplineSet
EndChar

StartChar: thorn
Encoding: 254 254 165
Width: 611
Flags: W
LayerCount: 2
Fore
SplineSet
16 -8 m 0,0,1
 2 -44 2 -44 -12.5 -85 c 128,-1,2
 -27 -126 -27 -126 -43 -174.5 c 128,-1,3
 -59 -223 -59 -223 -79 -284 c 1,4,-1
 -194 -207 l 1,5,6
 -110 29 -110 29 3 263.5 c 128,-1,7
 116 498 116 498 259 714 c 1,8,-1
 363 637 l 1,9,10
 330 589 330 589 304 549 c 128,-1,11
 278 509 278 509 256.5 474.5 c 128,-1,12
 235 440 235 440 217.5 409.5 c 128,-1,13
 200 379 200 379 184 351 c 1,14,15
 224 386 224 386 268 417.5 c 128,-1,16
 312 449 312 449 375 484 c 1,17,-1
 496 389 l 1,18,19
 488 309 488 309 470 251 c 128,-1,20
 452 193 452 193 411 151 c 1,21,22
 465 169 465 169 515 188.5 c 128,-1,23
 565 208 565 208 616 232 c 1,24,-1
 637 131 l 1,25,26
 594 107 594 107 538 84.5 c 128,-1,27
 482 62 482 62 417.5 41.5 c 128,-1,28
 353 21 353 21 283 3.5 c 128,-1,29
 213 -14 213 -14 142 -27 c 1,30,-1
 45 62 l 1,31,32
 30 27 30 27 16 -8 c 0,0,1
54 83 m 1,33,34
 80 87 80 87 105.5 92 c 128,-1,35
 131 97 131 97 152.5 102.5 c 128,-1,36
 174 108 174 108 191.5 112.5 c 128,-1,37
 209 117 209 117 219 122 c 0,38,39
 240 132 240 132 262 153 c 128,-1,40
 284 174 284 174 302 202.5 c 128,-1,41
 320 231 320 231 333.5 265.5 c 128,-1,42
 347 300 347 300 352 336 c 1,43,44
 314 316 314 316 282 297 c 128,-1,45
 250 278 250 278 219.5 257.5 c 128,-1,46
 189 237 189 237 158 214.5 c 128,-1,47
 127 192 127 192 91 165 c 1,48,-1
 54 83 l 1,33,34
EndSplineSet
EndChar

StartChar: ae
Encoding: 230 230 166
Width: 839
Flags: W
LayerCount: 2
Fore
SplineSet
-34 88 m 1,0,1
 -34 167 -34 167 -10 243 c 128,-1,2
 14 319 14 319 61 380 c 128,-1,3
 108 441 108 441 177.5 481.5 c 128,-1,4
 247 522 247 522 338 530 c 1,5,-1
 379 467 l 1,6,7
 389 491 389 491 399.5 515 c 128,-1,8
 410 539 410 539 424 562 c 1,9,-1
 499 483 l 1,10,11
 551 515 551 515 600 531 c 1,12,-1
 769 391 l 1,13,14
 744 287 744 287 674 240 c 128,-1,15
 604 193 604 193 507 193 c 0,16,17
 487 193 487 193 465 194 c 128,-1,18
 443 195 443 195 424 200 c 1,19,20
 416 180 416 180 411 155 c 128,-1,21
 406 130 406 130 404 103 c 1,22,23
 457 106 457 106 514 115.5 c 128,-1,24
 571 125 571 125 628 141 c 128,-1,25
 685 157 685 157 740 179.5 c 128,-1,26
 795 202 795 202 844 232 c 1,27,-1
 866 131 l 1,28,29
 820 102 820 102 764.5 75.5 c 128,-1,30
 709 49 709 49 648.5 27 c 128,-1,31
 588 5 588 5 523.5 -9.5 c 128,-1,32
 459 -24 459 -24 395 -27 c 1,33,-1
 272 86 l 1,34,35
 238 54 238 54 196.5 26.5 c 128,-1,36
 155 -1 155 -1 90 -27 c 1,37,-1
 -34 88 l 1,0,1
466 290 m 1,38,39
 491 290 491 290 519 298 c 128,-1,40
 547 306 547 306 571 322.5 c 128,-1,41
 595 339 595 339 610.5 365.5 c 128,-1,42
 626 392 626 392 626 428 c 1,43,44
 575 404 575 404 532 367.5 c 128,-1,45
 489 331 489 331 466 290 c 1,38,39
106 117 m 1,46,47
 157 131 157 131 210 165 c 128,-1,48
 263 199 263 199 310 259 c 1,49,50
 321 297 321 297 327.5 330 c 128,-1,51
 334 363 334 363 340 401 c 1,52,53
 288 396 288 396 245 372 c 128,-1,54
 202 348 202 348 171 310 c 128,-1,55
 140 272 140 272 123 222.5 c 128,-1,56
 106 173 106 173 106 117 c 1,46,47
EndSplineSet
EndChar

StartChar: oe
Encoding: 339 339 167
Width: 830
Flags: W
LayerCount: 2
Fore
SplineSet
-34 92 m 1,0,1
 -34 117 -34 117 -30.5 148 c 128,-1,2
 -27 179 -27 179 -18.5 213 c 128,-1,3
 -10 247 -10 247 4 281.5 c 128,-1,4
 18 316 18 316 39 349 c 0,5,6
 61 385 61 385 92.5 416.5 c 128,-1,7
 124 448 124 448 161.5 473 c 128,-1,8
 199 498 199 498 241 514 c 128,-1,9
 283 530 283 530 327 536 c 1,10,-1
 436 442 l 1,11,12
 474 475 474 475 513 496.5 c 128,-1,13
 552 518 552 518 591 531 c 1,14,-1
 760 391 l 1,15,16
 735 287 735 287 665 240 c 128,-1,17
 595 193 595 193 498 193 c 0,18,19
 478 193 478 193 456 194 c 128,-1,20
 434 195 434 195 415 200 c 1,21,22
 407 180 407 180 402 155 c 128,-1,23
 397 130 397 130 395 103 c 1,24,25
 448 106 448 106 505 115.5 c 128,-1,26
 562 125 562 125 619 141 c 128,-1,27
 676 157 676 157 731 179.5 c 128,-1,28
 786 202 786 202 835 232 c 1,29,-1
 857 131 l 1,30,31
 811 102 811 102 755.5 75.5 c 128,-1,32
 700 49 700 49 639.5 27 c 128,-1,33
 579 5 579 5 514.5 -9.5 c 128,-1,34
 450 -24 450 -24 386 -27 c 1,35,-1
 289 62 l 1,36,37
 251 33 251 33 206 10 c 128,-1,38
 161 -13 161 -13 108 -27 c 1,39,-1
 -34 92 l 1,0,1
457 290 m 1,40,41
 482 290 482 290 510 298 c 128,-1,42
 538 306 538 306 562 322.5 c 128,-1,43
 586 339 586 339 601.5 365.5 c 128,-1,44
 617 392 617 392 617 428 c 1,45,46
 566 404 566 404 523 367.5 c 128,-1,47
 480 331 480 331 457 290 c 1,40,41
100 109 m 1,48,49
 143 119 143 119 184 144.5 c 128,-1,50
 225 170 225 170 259 208 c 0,51,52
 274 226 274 226 290 250 c 128,-1,53
 306 274 306 274 319 302 c 128,-1,54
 332 330 332 330 341 359.5 c 128,-1,55
 350 389 350 389 351 416 c 1,56,57
 322 412 322 412 294.5 399.5 c 128,-1,58
 267 387 267 387 242.5 369.5 c 128,-1,59
 218 352 218 352 197 330.5 c 128,-1,60
 176 309 176 309 160 287 c 0,61,62
 128 241 128 241 115 197 c 128,-1,63
 102 153 102 153 100 109 c 1,48,49
EndSplineSet
EndChar

StartChar: Oslash
Encoding: 216 216 168
Width: 695
Flags: W
LayerCount: 2
Fore
SplineSet
-18 84 m 1,0,1
 -9 181 -9 181 21 270 c 128,-1,2
 51 359 51 359 104 437 c 128,-1,3
 157 515 157 515 235 580.5 c 128,-1,4
 313 646 313 646 418 695 c 1,5,6
 452 678 452 678 483 659 c 128,-1,7
 514 640 514 640 543 618 c 1,8,9
 567 644 567 644 591 669.5 c 128,-1,10
 615 695 615 695 637 719 c 1,11,-1
 708 652 l 1,12,-1
 619 554 l 1,13,-1
 652 521 l 1,14,-1
 607 386 l 1,15,16
 575 296 575 296 532.5 223 c 128,-1,17
 490 150 490 150 432.5 95 c 128,-1,18
 375 40 375 40 300.5 3 c 128,-1,19
 226 -34 226 -34 130 -52 c 1,20,-1
 85 -11 l 1,21,22
 59 -37 59 -37 35 -61.5 c 128,-1,23
 11 -86 11 -86 -11 -109 c 1,24,-1
 -81 -39 l 1,25,26
 -58 -17 -58 -17 -34.5 6.5 c 128,-1,27
 -11 30 -11 30 12 56 c 1,28,-1
 -18 84 l 1,0,1
136 91 m 1,29,30
 184 104 184 104 231.5 132 c 128,-1,31
 279 160 279 160 322.5 203 c 128,-1,32
 366 246 366 246 403.5 304 c 128,-1,33
 441 362 441 362 469 436 c 1,34,-1
 607 386 l 1,35,36
 578 412 578 412 553.5 432.5 c 128,-1,37
 529 453 529 453 506.5 470.5 c 128,-1,38
 484 488 484 488 460.5 504 c 128,-1,39
 437 520 437 520 409 537 c 1,40,41
 359 511 359 511 312 464 c 128,-1,42
 265 417 265 417 227.5 357 c 128,-1,43
 190 297 190 297 165.5 228.5 c 128,-1,44
 141 160 141 160 136 91 c 1,29,30
EndSplineSet
EndChar

StartChar: AE
Encoding: 198 198 169
Width: 951
Flags: W
LayerCount: 2
Fore
SplineSet
-82 72 m 1,0,1
 -47 136 -47 136 -5.5 198.5 c 128,-1,2
 36 261 36 261 82 320 c 1,3,4
 65 331 65 331 47 340.5 c 128,-1,5
 29 350 29 350 10 361 c 1,6,-1
 96 469 l 1,7,8
 116 458 116 458 134.5 447.5 c 128,-1,9
 153 437 153 437 170 426 c 1,10,11
 233 498 233 498 292 555 c 128,-1,12
 351 612 351 612 397 649 c 1,13,-1
 472 580 l 1,14,15
 487 641 487 641 493 695 c 1,16,-1
 592 607 l 1,17,-1
 603 669 l 1,18,19
 643 664 643 664 687 654.5 c 128,-1,20
 731 645 731 645 776 632.5 c 128,-1,21
 821 620 821 620 864.5 604.5 c 128,-1,22
 908 589 908 589 947 573 c 1,23,-1
 893 446 l 1,24,25
 824 475 824 475 749 497.5 c 128,-1,26
 674 520 674 520 604 533 c 1,27,28
 596 498 596 498 586.5 463 c 128,-1,29
 577 428 577 428 566 393 c 1,30,31
 597 385 597 385 624 378.5 c 128,-1,32
 651 372 651 372 677 366 c 128,-1,33
 703 360 703 360 730.5 354.5 c 128,-1,34
 758 349 758 349 791 343 c 1,35,-1
 747 220 l 1,36,37
 712 227 712 227 683 233.5 c 128,-1,38
 654 240 654 240 628 246.5 c 128,-1,39
 602 253 602 253 576.5 260 c 128,-1,40
 551 267 551 267 524 275 c 1,41,42
 498 212 498 212 467 146 c 1,43,44
 546 126 546 126 624 113 c 128,-1,45
 702 100 702 100 790 92 c 1,46,-1
 745 -36 l 1,47,48
 661 -28 661 -28 571.5 -12 c 128,-1,49
 482 4 482 4 408 24 c 1,50,-1
 374 -41 l 1,51,-1
 261 62 l 1,52,53
 272 82 272 82 284 103.5 c 128,-1,54
 296 125 296 125 308 148 c 1,55,56
 256 203 256 203 199 244 c 1,57,58
 153 182 153 182 111 114 c 128,-1,59
 69 46 69 46 35 -29 c 1,60,-1
 -82 72 l 1,0,1
280 344 m 1,61,62
 303 324 303 324 323 303.5 c 128,-1,63
 343 283 343 283 361 262 c 1,64,65
 389 326 389 326 414 392.5 c 128,-1,66
 439 459 439 459 457 525 c 1,67,68
 419 490 419 490 373.5 444.5 c 128,-1,69
 328 399 328 399 280 344 c 1,61,62
EndSplineSet
EndChar

StartChar: OE
Encoding: 338 338 170
Width: 951
Flags: W
LayerCount: 2
Fore
SplineSet
-18 84 m 1,0,1
 -9 181 -9 181 21 270 c 128,-1,2
 51 359 51 359 104 437 c 128,-1,3
 157 515 157 515 235 580.5 c 128,-1,4
 313 646 313 646 418 695 c 1,5,6
 450 678 450 678 479 660.5 c 128,-1,7
 508 643 508 643 536 623 c 1,8,-1
 562 679 l 1,9,10
 677 663 677 663 773 634.5 c 128,-1,11
 869 606 869 606 947 573 c 1,12,-1
 893 446 l 1,13,14
 845 466 845 466 783 485 c 128,-1,15
 721 504 721 504 652 521 c 1,16,-1
 609 394 l 1,17,18
 659 381 659 381 705.5 371 c 128,-1,19
 752 361 752 361 802 352 c 1,20,-1
 758 229 l 1,21,22
 726 236 726 236 698.5 241.5 c 128,-1,23
 671 247 671 247 646 253 c 128,-1,24
 621 259 621 259 597.5 265 c 128,-1,25
 574 271 574 271 550 279 c 1,26,27
 533 249 533 249 515 214 c 128,-1,28
 497 179 497 179 478 141 c 1,29,30
 551 122 551 122 624 109.5 c 128,-1,31
 697 97 697 97 786 92 c 1,32,-1
 741 -36 l 1,33,34
 647 -31 647 -31 569 -17.5 c 128,-1,35
 491 -4 491 -4 422 13 c 1,36,-1
 380 51 l 1,37,38
 331 13 331 13 269.5 -13 c 128,-1,39
 208 -39 208 -39 130 -52 c 1,40,-1
 -18 84 l 1,0,1
136 96 m 1,41,42
 174 102 174 102 212 115.5 c 128,-1,43
 250 129 250 129 291 164 c 128,-1,44
 332 199 332 199 377.5 262.5 c 128,-1,45
 423 326 423 326 476 433 c 1,46,47
 508 422 508 422 536.5 414 c 128,-1,48
 565 406 565 406 593 398 c 1,49,50
 567 421 567 421 544.5 439.5 c 128,-1,51
 522 458 522 458 500.5 474.5 c 128,-1,52
 479 491 479 491 457 506 c 128,-1,53
 435 521 435 521 409 537 c 1,54,55
 360 511 360 511 313.5 464.5 c 128,-1,56
 267 418 267 418 229.5 359 c 128,-1,57
 192 300 192 300 167 232 c 128,-1,58
 142 164 142 164 136 96 c 1,41,42
EndSplineSet
EndChar

StartChar: yen
Encoding: 165 165 171
Width: 659
Flags: W
LayerCount: 2
Fore
SplineSet
88 128 m 1,0,1
 32 164 32 164 -5 193 c 1,2,-1
 38 255 l 1,3,4
 71 229 71 229 122 197 c 1,5,6
 130 214 130 214 143 237 c 1,7,8
 119 253 119 253 98.5 267.5 c 128,-1,9
 78 282 78 282 61 295 c 1,10,-1
 104 356 l 1,11,12
 118 345 118 345 136.5 333 c 128,-1,13
 155 321 155 321 175 307 c 1,14,15
 177 395 177 395 186 489.5 c 128,-1,16
 195 584 195 584 222 682 c 1,17,-1
 337 572 l 1,18,19
 324 522 324 522 316.5 470 c 128,-1,20
 309 418 309 418 305 367 c 1,21,22
 334 388 334 388 361.5 409.5 c 128,-1,23
 389 431 389 431 418 457 c 128,-1,24
 447 483 447 483 479.5 514.5 c 128,-1,25
 512 546 512 546 551 586 c 1,26,-1
 651 495 l 1,27,28
 610 453 610 453 573 418 c 128,-1,29
 536 383 536 383 496 351.5 c 128,-1,30
 456 320 456 320 411.5 289 c 128,-1,31
 367 258 367 258 311 224 c 1,32,33
 357 198 357 198 394 181 c 1,34,-1
 357 117 l 1,35,36
 319 132 319 132 265 163 c 1,37,-1
 245 123 l 1,38,39
 268 109 268 109 289 98 c 128,-1,40
 310 87 310 87 328 79 c 1,41,-1
 291 16 l 1,42,43
 275 23 275 23 255.5 32.5 c 128,-1,44
 236 42 236 42 215 53 c 1,45,46
 206 32 206 32 197 8.5 c 128,-1,47
 188 -15 188 -15 179 -42 c 1,48,-1
 56 56 l 1,49,-1
 88 128 l 1,0,1
EndSplineSet
EndChar

StartChar: eight
Encoding: 56 56 172
Width: 620
Flags: W
LayerCount: 2
Fore
SplineSet
26 56 m 1,0,1
 6 88 6 88 -10.5 124.5 c 128,-1,2
 -27 161 -27 161 -27 203 c 0,3,4
 -27 249 -27 249 -10 281.5 c 128,-1,5
 7 314 7 314 35.5 336 c 128,-1,6
 64 358 64 358 101.5 370 c 128,-1,7
 139 382 139 382 181 387 c 1,8,9
 169 415 169 415 161 443 c 128,-1,10
 153 471 153 471 153 494 c 0,11,12
 153 537 153 537 169 570 c 128,-1,13
 185 603 185 603 214 625.5 c 128,-1,14
 243 648 243 648 282.5 661 c 128,-1,15
 322 674 322 674 369 678 c 1,16,-1
 544 579 l 1,17,18
 561 547 561 547 574.5 513.5 c 128,-1,19
 588 480 588 480 588 445 c 256,20,21
 588 410 588 410 573 384.5 c 128,-1,22
 558 359 558 359 533 342 c 128,-1,23
 508 325 508 325 475 314.5 c 128,-1,24
 442 304 442 304 407 300 c 1,25,26
 464 222 464 222 464 148 c 0,27,28
 464 106 464 106 443 71 c 128,-1,29
 422 36 422 36 387 10.5 c 128,-1,30
 352 -15 352 -15 306 -30 c 128,-1,31
 260 -45 260 -45 210 -47 c 1,32,-1
 26 56 l 1,0,1
335 390 m 1,33,34
 357 393 357 393 378.5 399 c 128,-1,35
 400 405 400 405 417.5 415.5 c 128,-1,36
 435 426 435 426 446 442.5 c 128,-1,37
 457 459 457 459 457 483 c 0,38,39
 457 502 457 502 448 526 c 128,-1,40
 439 550 439 550 422 575 c 1,41,42
 362 573 362 573 329 548.5 c 128,-1,43
 296 524 296 524 296 482 c 0,44,45
 296 462 296 462 307 439 c 128,-1,46
 318 416 318 416 335 390 c 1,33,34
161 77 m 1,47,48
 185 78 185 78 212 84.5 c 128,-1,49
 239 91 239 91 262 103 c 128,-1,50
 285 115 285 115 300 133.5 c 128,-1,51
 315 152 315 152 315 179 c 256,52,53
 315 206 315 206 294.5 234.5 c 128,-1,54
 274 263 274 263 244 294 c 1,55,56
 182 288 182 288 145 266 c 128,-1,57
 108 244 108 244 108 197 c 0,58,59
 108 165 108 165 124.5 134 c 128,-1,60
 141 103 141 103 161 77 c 1,47,48
EndSplineSet
EndChar

StartChar: Thorn
Encoding: 222 222 173
Width: 667
Flags: W
LayerCount: 2
Fore
SplineSet
-66 78 m 1,0,1
 -31 156 -31 156 7 232 c 128,-1,2
 45 308 45 308 87.5 383.5 c 128,-1,3
 130 459 130 459 179 535 c 128,-1,4
 228 611 228 611 285 690 c 1,5,-1
 394 594 l 1,6,7
 381 576 381 576 368.5 558 c 128,-1,8
 356 540 356 540 343 520 c 1,9,10
 384 503 384 503 423 482.5 c 128,-1,11
 462 462 462 462 508 435 c 1,12,-1
 586 260 l 1,13,14
 530 225 530 225 481.5 198.5 c 128,-1,15
 433 172 433 172 386.5 152.5 c 128,-1,16
 340 133 340 133 293 119.5 c 128,-1,17
 246 106 246 106 194 96 c 1,18,-1
 145 176 l 1,19,20
 92 70 92 70 50 -29 c 1,21,-1
 -66 78 l 1,0,1
172 229 m 1,22,23
 214 238 214 238 249 248.5 c 128,-1,24
 284 259 284 259 314.5 271 c 128,-1,25
 345 283 345 283 373.5 297 c 128,-1,26
 402 311 402 311 430 328 c 1,27,28
 388 354 388 354 349.5 372.5 c 128,-1,29
 311 391 311 391 271 408 c 1,30,31
 245 364 245 364 220.5 319.5 c 128,-1,32
 196 275 196 275 172 229 c 1,22,23
EndSplineSet
EndChar

StartChar: cedilla
Encoding: 184 184 174
Width: 355
Flags: W
LayerCount: 2
Fore
SplineSet
119 58 m 1,0,-1
 217 62 l 1,1,-1
 148 -38 l 1,2,3
 166 -52 166 -52 184 -68.5 c 128,-1,4
 202 -85 202 -85 222 -104 c 1,5,-1
 187 -179 l 1,6,7
 131 -196 131 -196 67.5 -204 c 128,-1,8
 4 -212 4 -212 -61 -214 c 1,9,-1
 -75 -133 l 1,10,11
 -36 -129 -36 -129 4 -122 c 128,-1,12
 44 -115 44 -115 81 -104 c 1,13,14
 70 -91 70 -91 59 -80.5 c 128,-1,15
 48 -70 48 -70 33 -58 c 1,16,-1
 119 58 l 1,0,-1
EndSplineSet
EndChar

StartChar: ccedilla
Encoding: 231 231 175
Width: 531
Flags: W
LayerCount: 2
Fore
SplineSet
-32 88 m 1,0,1
 -32 114 -32 114 -30.5 143 c 128,-1,2
 -29 172 -29 172 -21.5 204 c 128,-1,3
 -14 236 -14 236 0 270 c 128,-1,4
 14 304 14 304 40 340 c 0,5,6
 67 379 67 379 100 410 c 128,-1,7
 133 441 133 441 168.5 464.5 c 128,-1,8
 204 488 204 488 239 504.5 c 128,-1,9
 274 521 274 521 306 531 c 1,10,-1
 466 412 l 1,11,12
 463 398 463 398 452.5 372.5 c 128,-1,13
 442 347 442 347 429 318.5 c 128,-1,14
 416 290 416 290 402 264 c 128,-1,15
 388 238 388 238 378 224 c 1,16,-1
 252 304 l 1,17,18
 275 333 275 333 294 364 c 128,-1,19
 313 395 313 395 320 418 c 1,20,21
 278 400 278 400 238.5 369.5 c 128,-1,22
 199 339 199 339 164 286 c 0,23,24
 133 239 133 239 121.5 191.5 c 128,-1,25
 110 144 110 144 110 103 c 1,26,27
 217 117 217 117 327 148 c 128,-1,28
 437 179 437 179 536 232 c 1,29,-1
 558 131 l 1,30,31
 512 102 512 102 456.5 75 c 128,-1,32
 401 48 401 48 340 26.5 c 128,-1,33
 279 5 279 5 216 -9 c 0,34,35
 184 -17 184 -17 153 -21 c 1,36,-1
 135 -47 l 1,37,38
 153 -61 153 -61 171 -77.5 c 128,-1,39
 189 -94 189 -94 209 -113 c 1,40,-1
 174 -188 l 1,41,42
 118 -205 118 -205 54.5 -213 c 128,-1,43
 -9 -221 -9 -221 -74 -223 c 1,44,-1
 -88 -142 l 1,45,46
 -49 -138 -49 -138 -9 -131 c 128,-1,47
 31 -124 31 -124 68 -113 c 1,48,49
 57 -100 57 -100 46 -89.5 c 128,-1,50
 35 -79 35 -79 20 -67 c 1,51,-1
 67 -3 l 1,52,-1
 -32 88 l 1,0,1
EndSplineSet
EndChar

StartChar: Ccedilla
Encoding: 199 199 176
Width: 608
Flags: W
LayerCount: 2
Fore
SplineSet
-52 86 m 1,0,1
 -31 177 -31 177 9 268 c 128,-1,2
 49 359 49 359 108.5 441 c 128,-1,3
 168 523 168 523 247 590 c 128,-1,4
 326 657 326 657 426 699 c 1,5,-1
 616 562 l 1,6,7
 607 532 607 532 592 498 c 128,-1,8
 577 464 577 464 559 430 c 128,-1,9
 541 396 541 396 522 365 c 128,-1,10
 503 334 503 334 486 310 c 1,11,-1
 370 374 l 1,12,13
 398 422 398 422 422.5 472 c 128,-1,14
 447 522 447 522 461 571 c 1,15,16
 398 540 398 540 341.5 490.5 c 128,-1,17
 285 441 285 441 240.5 381 c 128,-1,18
 196 321 196 321 166.5 254.5 c 128,-1,19
 137 188 137 188 127 124 c 1,20,21
 200 129 200 129 270 145.5 c 128,-1,22
 340 162 340 162 415 199 c 1,23,-1
 454 85 l 1,24,25
 407 56 407 56 357.5 35.5 c 128,-1,26
 308 15 308 15 259 1 c 128,-1,27
 210 -13 210 -13 163 -21 c 0,28,29
 143 -24 143 -24 125 -27 c 1,30,-1
 105 -56 l 1,31,32
 123 -70 123 -70 141 -86.5 c 128,-1,33
 159 -103 159 -103 179 -122 c 1,34,-1
 144 -197 l 1,35,36
 88 -214 88 -214 24.5 -222 c 128,-1,37
 -39 -230 -39 -230 -104 -232 c 1,38,-1
 -118 -151 l 1,39,40
 -79 -147 -79 -147 -39 -140 c 128,-1,41
 1 -133 1 -133 38 -122 c 1,42,43
 27 -109 27 -109 16 -98.5 c 128,-1,44
 5 -88 5 -88 -10 -76 c 1,45,-1
 44 -3 l 1,46,-1
 -52 86 l 1,0,1
EndSplineSet
EndChar

StartChar: germandbls
Encoding: 223 223 177
Width: 679
Flags: W
LayerCount: 2
Fore
SplineSet
-87 49 m 1,0,1
 -71 102 -71 102 -41.5 170.5 c 128,-1,2
 -12 239 -12 239 23.5 312.5 c 128,-1,3
 59 386 59 386 98.5 460 c 128,-1,4
 138 534 138 534 175 598 c 1,5,6
 210 621 210 621 250.5 639.5 c 128,-1,7
 291 658 291 658 336 672 c 1,8,9
 400 655 400 655 468 625.5 c 128,-1,10
 536 596 536 596 590 559 c 1,11,-1
 606 431 l 1,12,13
 551 408 551 408 500.5 378 c 128,-1,14
 450 348 450 348 418 313 c 1,15,16
 439 281 439 281 478.5 246 c 128,-1,17
 518 211 518 211 560 171 c 1,18,19
 590 185 590 185 621 200 c 128,-1,20
 652 215 652 215 684 232 c 1,21,-1
 706 131 l 1,22,23
 621 71 621 71 522.5 29.5 c 128,-1,24
 424 -12 424 -12 315 -35 c 1,25,26
 262 -4 262 -4 225 24 c 128,-1,27
 188 52 188 52 153 87 c 1,28,-1
 231 181 l 1,29,30
 261 152 261 152 289.5 131 c 128,-1,31
 318 110 318 110 347 93 c 1,32,33
 367 98 367 98 388.5 104.5 c 128,-1,34
 410 111 410 111 433 119 c 1,35,36
 408 144 408 144 380.5 170.5 c 128,-1,37
 353 197 353 197 327 222.5 c 128,-1,38
 301 248 301 248 279 271 c 128,-1,39
 257 294 257 294 245 312 c 1,40,41
 261 336 261 336 284 360.5 c 128,-1,42
 307 385 307 385 335.5 408.5 c 128,-1,43
 364 432 364 432 396 454 c 128,-1,44
 428 476 428 476 461 495 c 1,45,46
 420 517 420 517 381 532.5 c 128,-1,47
 342 548 342 548 304 561 c 1,48,49
 273 511 273 511 234.5 440 c 128,-1,50
 196 369 196 369 158 289 c 128,-1,51
 120 209 120 209 86.5 126.5 c 128,-1,52
 53 44 53 44 31 -29 c 1,53,-1
 -87 49 l 1,0,1
EndSplineSet
EndChar

StartChar: Euro
Encoding: 8364 8364 178
Width: 659
Flags: W
LayerCount: 2
Fore
SplineSet
31 91 m 1,0,1
 43 153 43 153 61 211.5 c 128,-1,2
 79 270 79 270 105 325 c 1,3,4
 85 336 85 336 66.5 346 c 128,-1,5
 48 356 48 356 32 364 c 1,6,-1
 70 427 l 1,7,8
 85 421 85 421 103 412 c 128,-1,9
 121 403 121 403 141 392 c 1,10,-1
 166 430 l 1,11,12
 147 441 147 441 129.5 449.5 c 128,-1,13
 112 458 112 458 97 466 c 1,14,-1
 135 529 l 1,15,16
 151 522 151 522 171 512 c 128,-1,17
 191 502 191 502 214 490 c 1,18,19
 260 543 260 543 319.5 587.5 c 128,-1,20
 379 632 379 632 454 667 c 1,21,-1
 642 541 l 1,22,23
 636 521 636 521 627.5 498 c 128,-1,24
 619 475 619 475 608.5 451 c 128,-1,25
 598 427 598 427 587 404.5 c 128,-1,26
 576 382 576 382 564 364 c 1,27,-1
 447 421 l 1,28,29
 464 451 464 451 477 484.5 c 128,-1,30
 490 518 490 518 498 549 c 1,31,32
 452 525 452 525 410.5 491.5 c 128,-1,33
 369 458 369 458 333 419 c 1,34,35
 361 401 361 401 385.5 383.5 c 128,-1,36
 410 366 410 366 430 352 c 1,37,-1
 387 290 l 1,38,39
 367 304 367 304 340.5 322 c 128,-1,40
 314 340 314 340 284 359 c 1,41,-1
 259 322 l 1,42,43
 290 302 290 302 317 283.5 c 128,-1,44
 344 265 344 265 365 249 c 1,45,-1
 322 187 l 1,46,-1
 277 218 l 2,47,48
 252 236 252 236 223 254 c 1,49,50
 188 180 188 180 179 105 c 1,51,52
 236 112 236 112 304 132.5 c 128,-1,53
 372 153 372 153 435 180 c 1,54,-1
 475 71 l 1,55,56
 396 29 396 29 313.5 6.5 c 128,-1,57
 231 -16 231 -16 161 -23 c 1,58,-1
 31 91 l 1,59,-1
 31 91 l 1,0,1
EndSplineSet
EndChar

StartChar: cent
Encoding: 162 162 179
Width: 608
Flags: W
LayerCount: 2
Fore
SplineSet
1 16 m 1,0,1
 17 39 17 39 36 64.5 c 128,-1,2
 55 90 55 90 73 117 c 1,3,-1
 42 143 l 1,4,5
 40 168 40 168 40 197.5 c 128,-1,6
 40 227 40 227 45 259.5 c 128,-1,7
 50 292 50 292 61.5 327 c 128,-1,8
 73 362 73 362 96 400 c 0,9,10
 121 441 121 441 152 474 c 128,-1,11
 183 507 183 507 216.5 533 c 128,-1,12
 250 559 250 559 283.5 578 c 128,-1,13
 317 597 317 597 348 609 c 1,14,-1
 400 576 l 1,15,16
 419 602 419 602 439.5 628 c 128,-1,17
 460 654 460 654 477 678 c 1,18,-1
 546 625 l 1,19,20
 530 602 530 602 512 577.5 c 128,-1,21
 494 553 494 553 476 528 c 1,22,-1
 523 499 l 1,23,24
 521 488 521 488 515.5 468.5 c 128,-1,25
 510 449 510 449 501.5 426 c 128,-1,26
 493 403 493 403 483.5 379.5 c 128,-1,27
 474 356 474 356 465 337 c 1,28,-1
 339 400 l 1,29,30
 355 424 355 424 365 447 c 128,-1,31
 375 470 375 470 380 488 c 1,32,33
 332 468 332 468 289.5 432.5 c 128,-1,34
 247 397 247 397 224 355 c 1,35,36
 198 305 198 305 189.5 256.5 c 128,-1,37
 181 208 181 208 184 167 c 1,38,39
 238 177 238 177 288 189 c 128,-1,40
 338 201 338 201 390 220 c 1,41,-1
 425 106 l 1,42,43
 365 79 365 79 304.5 60.5 c 128,-1,44
 244 42 244 42 178 31 c 1,45,-1
 143 59 l 1,46,47
 125 34 125 34 106 10 c 128,-1,48
 87 -14 87 -14 70 -37 c 1,49,-1
 1 16 l 1,50,-1
 1 16 l 1,0,1
EndSplineSet
EndChar

StartChar: dollar
Encoding: 36 36 180
Width: 661
Flags: W
LayerCount: 2
Fore
SplineSet
16 -23 m 1,0,1
 33 -2 33 -2 51 21.5 c 128,-1,2
 69 45 69 45 87 71 c 1,3,4
 60 85 60 85 35 99 c 128,-1,5
 10 113 10 113 -15 129 c 1,6,-1
 47 251 l 1,7,8
 110 211 110 211 174 181 c 128,-1,9
 238 151 238 151 306 133 c 1,10,11
 283 176 283 176 257.5 212 c 128,-1,12
 232 248 232 248 209.5 284 c 128,-1,13
 187 320 187 320 168.5 358 c 128,-1,14
 150 396 150 396 141 443 c 1,15,16
 175 480 175 480 207 510.5 c 128,-1,17
 239 541 239 541 271 567.5 c 128,-1,18
 303 594 303 594 336.5 617 c 128,-1,19
 370 640 370 640 406 663 c 1,20,-1
 460 629 l 1,21,22
 481 658 481 658 501 686.5 c 128,-1,23
 521 715 521 715 541 742 c 1,24,-1
 619 684 l 1,25,-1
 545 577 l 1,26,-1
 603 542 l 1,27,28
 596 500 596 500 578.5 452 c 128,-1,29
 561 404 561 404 541 360 c 1,30,-1
 419 419 l 1,31,32
 433 451 433 451 440.5 483.5 c 128,-1,33
 448 516 448 516 455 548 c 1,34,35
 431 532 431 532 414 519 c 128,-1,36
 397 506 397 506 381.5 492 c 128,-1,37
 366 478 366 478 349.5 461 c 128,-1,38
 333 444 333 444 311 420 c 1,39,40
 318 387 318 387 334.5 355.5 c 128,-1,41
 351 324 351 324 373.5 289 c 128,-1,42
 396 254 396 254 422 214.5 c 128,-1,43
 448 175 448 175 473 126 c 1,44,-1
 393 -16 l 1,45,46
 333 -11 333 -11 281.5 0.5 c 128,-1,47
 230 12 230 12 182 29 c 1,48,49
 159 0 159 0 136.5 -29 c 128,-1,50
 114 -58 114 -58 94 -84 c 1,51,-1
 16 -23 l 1,52,-1
 16 -23 l 1,0,1
EndSplineSet
EndChar

StartChar: exclamdown
Encoding: 161 161 181
Width: 482
Flags: W
LayerCount: 2
Fore
SplineSet
373 556 m 0,0,1
 360 569 360 569 353 586 c 128,-1,2
 346 603 346 603 346 622 c 0,3,4
 346 661 346 661 373 688 c 128,-1,5
 400 715 400 715 439 715 c 256,6,7
 478 715 478 715 505 688 c 128,-1,8
 532 661 532 661 532 622 c 0,9,10
 532 603 532 603 525 586 c 128,-1,11
 518 569 518 569 505 556.5 c 128,-1,12
 492 544 492 544 475 536.5 c 128,-1,13
 458 529 458 529 439 529 c 0,14,15
 419 529 419 529 402.5 536.5 c 128,-1,16
 386 544 386 544 373 556 c 0,0,1
-1 12 m 1,17,18
 29 75 29 75 59 132 c 128,-1,19
 89 189 89 189 122 246 c 128,-1,20
 155 303 155 303 192 362 c 128,-1,21
 229 421 229 421 273 489 c 1,22,-1
 382 388 l 1,23,24
 340 327 340 327 305.5 272 c 128,-1,25
 271 217 271 217 239 161 c 128,-1,26
 207 105 207 105 175.5 45 c 128,-1,27
 144 -15 144 -15 110 -86 c 1,28,-1
 -1 12 l 1,17,18
EndSplineSet
EndChar

StartChar: quotesingle
Encoding: 39 39 183
Width: 260
Flags: W
LayerCount: 2
Fore
SplineSet
66 465 m 1,0,1
 88 501 88 501 107 533 c 128,-1,2
 126 565 126 565 144 596 c 128,-1,3
 162 627 162 627 180 658.5 c 128,-1,4
 198 690 198 690 217 726 c 1,5,-1
 331 662 l 1,6,7
 310 625 310 625 291 593.5 c 128,-1,8
 272 562 272 562 253.5 532 c 128,-1,9
 235 502 235 502 215 472 c 128,-1,10
 195 442 195 442 172 407 c 1,11,-1
 66 465 l 1,0,1
EndSplineSet
EndChar

StartChar: quoteleft
Encoding: 8216 8216 185
Width: 284
Flags: W
LayerCount: 2
Fore
SplineSet
81 490 m 1,0,1
 104 525 104 525 125 555 c 128,-1,2
 146 585 146 585 166.5 613.5 c 128,-1,3
 187 642 187 642 209 670 c 128,-1,4
 231 698 231 698 257 730 c 1,5,-1
 353 670 l 1,6,7
 330 635 330 635 311.5 605 c 128,-1,8
 293 575 293 575 275.5 544.5 c 128,-1,9
 258 514 258 514 241.5 482 c 128,-1,10
 225 450 225 450 206 411 c 1,11,-1
 81 490 l 1,0,1
EndSplineSet
EndChar

StartChar: quoteright
Encoding: 8217 8217 187
Width: 289
Flags: W
LayerCount: 2
Fore
SplineSet
71 473 m 1,0,1
 94 508 94 508 112.5 538 c 128,-1,2
 131 568 131 568 148.5 598.5 c 128,-1,3
 166 629 166 629 182.5 661 c 128,-1,4
 199 693 199 693 218 732 c 1,5,-1
 343 653 l 1,6,7
 320 618 320 618 299 588 c 128,-1,8
 278 558 278 558 257.5 529.5 c 128,-1,9
 237 501 237 501 215 473 c 128,-1,10
 193 445 193 445 167 413 c 1,11,-1
 71 473 l 1,0,1
EndSplineSet
EndChar

StartChar: quotesinglbase
Encoding: 8218 8218 189
Width: 353
Flags: W
LayerCount: 2
Fore
SplineSet
27 31 m 0,0,1
 44 63 44 63 63 102 c 1,2,-1
 188 23 l 1,3,4
 165 -12 165 -12 144 -42 c 128,-1,5
 123 -72 123 -72 102.5 -100.5 c 128,-1,6
 82 -129 82 -129 60 -157 c 128,-1,7
 38 -185 38 -185 12 -217 c 1,8,-1
 -84 -157 l 1,9,10
 -61 -122 -61 -122 -42.5 -92 c 128,-1,11
 -24 -62 -24 -62 -6.5 -31.5 c 128,-1,12
 11 -1 11 -1 27 31 c 0,0,1
EndSplineSet
EndChar

StartChar: hyphen
Encoding: 45 45 191
Width: 591
Flags: W
LayerCount: 2
Fore
SplineSet
83 424 m 1,0,1
 125 413 125 413 174 397.5 c 128,-1,2
 223 382 223 382 273 365 c 128,-1,3
 323 348 323 348 371.5 329 c 128,-1,4
 420 310 420 310 461 292 c 1,5,-1
 415 181 l 1,6,7
 373 199 373 199 325.5 217.5 c 128,-1,8
 278 236 278 236 228.5 253 c 128,-1,9
 179 270 179 270 130 284.5 c 128,-1,10
 81 299 81 299 37 310 c 1,11,-1
 83 424 l 1,0,1
EndSplineSet
EndChar

StartChar: endash
Encoding: 8211 8211 192
Width: 689
Flags: W
LayerCount: 2
Fore
SplineSet
80 421 m 1,0,1
 137 409 137 409 193 395.5 c 128,-1,2
 249 382 249 382 307 366 c 128,-1,3
 365 350 365 350 427 332 c 128,-1,4
 489 314 489 314 558 292 c 1,5,-1
 517 178 l 1,6,7
 451 199 451 199 390 217 c 128,-1,8
 329 235 329 235 270.5 251 c 128,-1,9
 212 267 212 267 155 280.5 c 128,-1,10
 98 294 98 294 40 306 c 1,11,-1
 80 421 l 1,0,1
EndSplineSet
EndChar

StartChar: emdash
Encoding: 8212 8212 193
Width: 917
Flags: W
LayerCount: 2
Fore
SplineSet
83 416 m 1,0,1
 241 387 241 387 413.5 342.5 c 128,-1,2
 586 298 586 298 772 238 c 1,3,-1
 735 122 l 1,4,5
 557 184 557 184 382.5 228 c 128,-1,6
 208 272 208 272 47 299 c 1,7,-1
 83 416 l 1,0,1
EndSplineSet
EndChar

StartChar: slash
Encoding: 47 47 194
Width: 563
Flags: W
LayerCount: 2
Fore
SplineSet
-19 67 m 1,0,1
 64 156 64 156 139.5 233.5 c 128,-1,2
 215 311 215 311 289 383.5 c 128,-1,3
 363 456 363 456 439.5 526.5 c 128,-1,4
 516 597 516 597 600 671 c 1,5,-1
 659 603 l 1,6,7
 575 529 575 529 499 459.5 c 128,-1,8
 423 390 423 390 350 317.5 c 128,-1,9
 277 245 277 245 203 166 c 128,-1,10
 129 87 129 87 48 -5 c 1,11,-1
 -19 67 l 1,0,1
EndSplineSet
EndChar

StartChar: backslash
Encoding: 92 92 195
Width: 470
Flags: W
LayerCount: 2
Fore
SplineSet
264 98 m 256,0,1
 243 163 243 163 223.5 220 c 128,-1,2
 204 277 204 277 185 330 c 128,-1,3
 166 383 166 383 145 436.5 c 128,-1,4
 124 490 124 490 100 547 c 128,-1,5
 76 604 76 604 46 671 c 1,6,-1
 129 715 l 1,7,8
 159 644 159 644 183.5 584 c 128,-1,9
 208 524 208 524 229.5 469.5 c 128,-1,10
 251 415 251 415 270.5 363 c 128,-1,11
 290 311 290 311 309 256 c 128,-1,12
 328 201 328 201 348 139 c 128,-1,13
 368 77 368 77 391 4 c 1,14,-1
 309 -44 l 1,15,16
 285 33 285 33 264 98 c 256,0,1
EndSplineSet
EndChar

StartChar: bar
Encoding: 124 124 196
Width: 502
Flags: W
LayerCount: 2
Fore
SplineSet
201 731 m 1,0,-1
 270 668 l 1,1,-1
 270 -185 l 1,2,-1
 201 -117 l 1,3,-1
 201 731 l 1,0,-1
EndSplineSet
EndChar

StartChar: brokenbar
Encoding: 166 166 197
Width: 502
Flags: W
LayerCount: 2
Fore
SplineSet
201 404 m 1,0,-1
 201 731 l 1,1,-1
 270 668 l 1,2,-1
 270 337 l 1,3,-1
 201 404 l 1,0,-1
201 210 m 1,4,-1
 270 147 l 1,5,-1
 270 -185 l 1,6,-1
 201 -117 l 1,7,-1
 201 210 l 1,4,-1
EndSplineSet
EndChar

StartChar: sterling
Encoding: 163 163 198
Width: 659
Flags: W
LayerCount: 2
Fore
SplineSet
9 212 m 1,0,1
 52 193 52 193 90.5 178 c 128,-1,2
 129 163 129 163 167 150 c 1,3,-1
 75 218 l 1,4,5
 90 250 90 250 105 279.5 c 128,-1,6
 120 309 120 309 137 338 c 1,7,8
 122 346 122 346 107.5 354 c 128,-1,9
 93 362 93 362 79 370 c 1,10,-1
 127 457 l 1,11,-1
 188 424 l 1,12,13
 196 438 196 438 205 452 c 2,14,-1
 223 480 l 2,15,16
 259 535 259 535 310 585.5 c 128,-1,17
 361 636 361 636 427 670 c 1,18,-1
 624 544 l 1,19,20
 613 502 613 502 595 453.5 c 128,-1,21
 577 405 577 405 553 364 c 1,22,-1
 436 427 l 1,23,24
 456 458 456 458 472 496 c 128,-1,25
 488 534 488 534 496 566 c 1,26,27
 472 548 472 548 446.5 523.5 c 128,-1,28
 421 499 421 499 397 472 c 128,-1,29
 373 445 373 445 352 417.5 c 128,-1,30
 331 390 331 390 317 367 c 1,31,-1
 315 364 l 1,32,33
 345 351 345 351 375 339.5 c 128,-1,34
 405 328 405 328 436 317 c 1,35,-1
 399 225 l 1,36,37
 366 236 366 236 332.5 249.5 c 128,-1,38
 299 263 299 263 266 277 c 1,39,40
 250 248 250 248 233 213 c 128,-1,41
 216 178 216 178 197 140 c 1,42,43
 251 123 251 123 310 109 c 128,-1,44
 369 95 369 95 443 82 c 1,45,-1
 404 -41 l 1,46,47
 335 -31 335 -31 278 -19 c 128,-1,48
 221 -7 221 -7 169 9 c 128,-1,49
 117 25 117 25 64.5 45 c 128,-1,50
 12 65 12 65 -48 91 c 1,51,-1
 9 212 l 1,0,1
EndSplineSet
EndChar

StartChar: guilsinglleft
Encoding: 8249 8249 199
Width: 457
Flags: W
LayerCount: 2
Fore
SplineSet
180 148 m 0,0,1
 161 173 161 173 142 199.5 c 128,-1,2
 123 226 123 226 104 254.5 c 128,-1,3
 85 283 85 283 64 316 c 1,4,-1
 121 416 l 1,5,6
 172 446 172 446 223.5 468.5 c 128,-1,7
 275 491 275 491 341 513 c 1,8,-1
 391 426 l 1,9,10
 333 398 333 398 289 374.5 c 128,-1,11
 245 351 245 351 202 323 c 1,12,13
 225 279 225 279 248 240 c 128,-1,14
 271 201 271 201 300 157 c 1,15,-1
 222 98 l 1,16,17
 200 123 200 123 180 148 c 0,0,1
EndSplineSet
EndChar

StartChar: guilsinglright
Encoding: 8250 8250 200
Width: 493
Flags: W
LayerCount: 2
Fore
SplineSet
63 176 m 1,0,1
 124 207 124 207 167 232 c 128,-1,2
 210 257 210 257 251 285 c 1,3,4
 229 327 229 327 206 364 c 128,-1,5
 183 401 183 401 155 445 c 1,6,-1
 232 504 l 1,7,8
 256 477 256 477 276.5 452.5 c 128,-1,9
 297 428 297 428 315.5 403.5 c 128,-1,10
 334 379 334 379 352.5 352 c 128,-1,11
 371 325 371 325 391 293 c 1,12,-1
 334 193 l 1,13,14
 308 178 308 178 283.5 165 c 128,-1,15
 259 152 259 152 233 139.5 c 128,-1,16
 207 127 207 127 177.5 114.5 c 128,-1,17
 148 102 148 102 113 89 c 1,18,-1
 63 176 l 1,0,1
EndSplineSet
EndChar

StartChar: ampersand
Encoding: 38 38 203
Width: 756
Flags: W
LayerCount: 2
Fore
SplineSet
-77 166 m 1,0,1
 -40 202 -40 202 -6 230.5 c 128,-1,2
 28 259 28 259 63 282.5 c 128,-1,3
 98 306 98 306 136 327 c 128,-1,4
 174 348 174 348 219 369 c 1,5,6
 215 432 215 432 222 497 c 128,-1,7
 229 562 229 562 249 630 c 1,8,-1
 418 679 l 1,9,10
 459 659 459 659 505.5 630.5 c 128,-1,11
 552 602 552 602 590 573 c 1,12,-1
 640 449 l 1,13,14
 609 422 609 422 579 399.5 c 128,-1,15
 549 377 549 377 516.5 359 c 128,-1,16
 484 341 484 341 449.5 326.5 c 128,-1,17
 415 312 415 312 375 300 c 1,18,19
 380 274 380 274 388 247.5 c 128,-1,20
 396 221 396 221 406 195 c 1,21,22
 445 210 445 210 482.5 228 c 128,-1,23
 520 246 520 246 555 268 c 1,24,-1
 615 171 l 1,25,26
 546 124 546 124 458 85 c 1,27,28
 475 56 475 56 493 29 c 128,-1,29
 511 2 511 2 532 -24 c 1,30,-1
 404 -98 l 1,31,32
 357 -35 357 -35 320 33 c 1,33,34
 191 -8 191 -8 49 -20 c 1,35,-1
 -77 166 l 1,0,1
360 418 m 1,36,37
 399 432 399 432 431.5 448 c 128,-1,38
 464 464 464 464 495 486 c 1,39,40
 464 506 464 506 432 525 c 128,-1,41
 400 544 400 544 371 559 c 1,42,43
 364 524 364 524 361.5 488.5 c 128,-1,44
 359 453 359 453 360 418 c 1,36,37
85 126 m 1,45,46
 170 131 170 131 265 152 c 1,47,48
 249 194 249 194 238 240 c 1,49,50
 214 226 214 226 195 213 c 128,-1,51
 176 200 176 200 158 186.5 c 128,-1,52
 140 173 140 173 122.5 158 c 128,-1,53
 105 143 105 143 85 126 c 1,45,46
EndSplineSet
EndChar

StartChar: section
Encoding: 167 167 205
Width: 706
Flags: W
LayerCount: 2
Fore
SplineSet
70 -69 m 256,0,1
 111 -57 111 -57 147 -42 c 128,-1,2
 183 -27 183 -27 212.5 -8.5 c 128,-1,3
 242 10 242 10 262 34 c 1,4,5
 230 55 230 55 192.5 77 c 128,-1,6
 155 99 155 99 118.5 120.5 c 128,-1,7
 82 142 82 142 51 162 c 128,-1,8
 20 182 20 182 1 199 c 1,9,10
 20 245 20 245 48 285.5 c 128,-1,11
 76 326 76 326 108.5 359 c 128,-1,12
 141 392 141 392 176 417 c 128,-1,13
 211 442 211 442 244 457 c 1,14,15
 209 479 209 479 188 499 c 1,16,17
 254 614 254 614 351.5 682.5 c 128,-1,18
 449 751 449 751 559 778 c 1,19,-1
 640 668 l 1,20,21
 551 654 551 654 486 616 c 128,-1,22
 421 578 421 578 382 524 c 1,23,24
 403 511 403 511 422 500 c 128,-1,25
 441 489 441 489 461 477.5 c 128,-1,26
 481 466 481 466 505 452 c 128,-1,27
 529 438 529 438 560 419 c 1,28,-1
 598 299 l 1,29,30
 558 235 558 235 508 184.5 c 128,-1,31
 458 134 458 134 397 91 c 1,32,-1
 424 13 l 1,33,34
 372 -71 372 -71 276.5 -127.5 c 128,-1,35
 181 -184 181 -184 58 -211 c 1,36,-1
 -14 -90 l 1,37,38
 29 -81 29 -81 70 -69 c 256,0,1
189 239 m 1,39,40
 215 223 215 223 240 205 c 128,-1,41
 265 187 265 187 292 168 c 1,42,43
 341 199 341 199 383.5 239.5 c 128,-1,44
 426 280 426 280 458 329 c 1,45,46
 435 344 435 344 409.5 359.5 c 128,-1,47
 384 375 384 375 357 390 c 1,48,49
 309 372 309 372 263.5 330.5 c 128,-1,50
 218 289 218 289 189 239 c 1,39,40
EndSplineSet
EndChar

StartChar: paragraph
Encoding: 182 182 206
Width: 768
Flags: W
LayerCount: 2
Fore
SplineSet
144 -83 m 1,0,1
 181 -2 181 -2 222.5 78.5 c 128,-1,2
 264 159 264 159 310 240 c 1,3,4
 234 314 234 314 179.5 405.5 c 128,-1,5
 125 497 125 497 94 594 c 1,6,-1
 234 747 l 1,7,8
 261 750 261 750 283 750 c 0,9,10
 354 750 354 750 415 742.5 c 128,-1,11
 476 735 476 735 534 718 c 128,-1,12
 592 701 592 701 651.5 673 c 128,-1,13
 711 645 711 645 779 604 c 1,14,-1
 783 466 l 1,15,16
 746 483 746 483 713.5 497 c 128,-1,17
 681 511 681 511 650 524 c 1,18,19
 544 364 544 364 444.5 190 c 128,-1,20
 345 16 345 16 258 -185 c 1,21,-1
 144 -83 l 1,0,1
386 368 m 1,22,23
 418 420 418 420 449.5 471 c 128,-1,24
 481 522 481 522 514 573 c 1,25,26
 455 590 455 590 399 598.5 c 128,-1,27
 343 607 343 607 281 607 c 2,28,-1
 263 607 l 2,29,30
 255 607 255 607 246 606 c 1,31,32
 269 540 269 540 303.5 481.5 c 128,-1,33
 338 423 338 423 386 368 c 1,22,23
EndSplineSet
EndChar

StartChar: percent
Encoding: 37 37 207
Width: 788
Flags: W
LayerCount: 2
Fore
SplineSet
181 414 m 0,0,1
 157 425 157 425 139 442.5 c 128,-1,2
 121 460 121 460 111 484 c 128,-1,3
 101 508 101 508 101 535 c 256,4,5
 101 562 101 562 111 586 c 128,-1,6
 121 610 121 610 139 628 c 128,-1,7
 157 646 157 646 181 656 c 128,-1,8
 205 666 205 666 233 666 c 0,9,10
 260 666 260 666 283.5 656 c 128,-1,11
 307 646 307 646 325 628 c 128,-1,12
 343 610 343 610 353 586 c 128,-1,13
 363 562 363 562 363 535 c 256,14,15
 363 508 363 508 353 484 c 128,-1,16
 343 460 343 460 325 442.5 c 128,-1,17
 307 425 307 425 283.5 414.5 c 128,-1,18
 260 404 260 404 233 404 c 0,19,20
 205 404 205 404 181 414 c 0,0,1
40 85 m 1,21,22
 126 169 126 169 201 237.5 c 128,-1,23
 276 306 276 306 350 368 c 128,-1,24
 424 430 424 430 504 489 c 128,-1,25
 584 548 584 548 681 614 c 1,26,-1
 735 546 l 1,27,28
 639 481 639 481 559.5 422.5 c 128,-1,29
 480 364 480 364 406.5 303.5 c 128,-1,30
 333 243 333 243 259.5 174.5 c 128,-1,31
 186 106 186 106 103 22 c 1,32,-1
 40 85 l 1,21,22
232 473 m 0,33,34
 257 473 257 473 275 491 c 128,-1,35
 293 509 293 509 293 535 c 256,36,37
 293 561 293 561 275 579 c 128,-1,38
 257 597 257 597 232 597 c 0,39,40
 206 597 206 597 188 579 c 128,-1,41
 170 561 170 561 170 535 c 256,42,43
 170 509 170 509 188 491 c 128,-1,44
 206 473 206 473 232 473 c 0,33,34
371 121 m 256,45,46
 371 148 371 148 381 172 c 128,-1,47
 391 196 391 196 409 214 c 128,-1,48
 427 232 427 232 451 242 c 128,-1,49
 475 252 475 252 503 252 c 0,50,51
 530 252 530 252 553.5 242 c 128,-1,52
 577 232 577 232 595 214 c 128,-1,53
 613 196 613 196 623 172 c 128,-1,54
 633 148 633 148 633 121 c 256,55,56
 633 94 633 94 623 70 c 128,-1,57
 613 46 613 46 595 28.5 c 128,-1,58
 577 11 577 11 553.5 0.5 c 128,-1,59
 530 -10 530 -10 503 -10 c 0,60,61
 475 -10 475 -10 451 0.5 c 128,-1,62
 427 11 427 11 409 28.5 c 128,-1,63
 391 46 391 46 381 70 c 128,-1,64
 371 94 371 94 371 121 c 256,45,46
458 77 m 256,65,66
 476 59 476 59 502 59 c 0,67,68
 527 59 527 59 545 77 c 128,-1,69
 563 95 563 95 563 121 c 256,70,71
 563 147 563 147 545 165 c 128,-1,72
 527 183 527 183 502 183 c 0,73,74
 476 183 476 183 458 165 c 128,-1,75
 440 147 440 147 440 121 c 256,76,77
 440 95 440 95 458 77 c 256,65,66
EndSplineSet
EndChar

StartChar: registered
Encoding: 174 174 208
Width: 1203
Flags: W
LayerCount: 2
Fore
SplineSet
111 90 m 0,0,1
 85 165 85 165 85 246 c 0,2,3
 85 330 85 330 111.5 412.5 c 128,-1,4
 138 495 138 495 190 564 c 1,5,-1
 308 520 l 1,6,7
 263 463 263 463 237 387 c 128,-1,8
 211 311 211 311 211 233 c 0,9,10
 211 176 211 176 228.5 122.5 c 128,-1,11
 246 69 246 69 282.5 28.5 c 128,-1,12
 319 -12 319 -12 375.5 -36.5 c 128,-1,13
 432 -61 432 -61 510 -61 c 256,14,15
 588 -61 588 -61 664.5 -26.5 c 128,-1,16
 741 8 741 8 802.5 68 c 128,-1,17
 864 128 864 128 902 209 c 128,-1,18
 940 290 940 290 940 384 c 0,19,20
 940 445 940 445 917.5 495.5 c 128,-1,21
 895 546 895 546 855 582 c 128,-1,22
 815 618 815 618 759.5 638 c 128,-1,23
 704 658 704 658 638 658 c 0,24,25
 558 658 558 658 471.5 637 c 128,-1,26
 385 616 385 616 310 580 c 1,27,-1
 275 678 l 1,28,29
 312 699 312 699 356.5 716 c 128,-1,30
 401 733 401 733 448 744.5 c 128,-1,31
 495 756 495 756 543 762.5 c 128,-1,32
 591 769 591 769 636 769 c 0,33,34
 733 769 733 769 812 740.5 c 128,-1,35
 891 712 891 712 946.5 661.5 c 128,-1,36
 1002 611 1002 611 1032.5 541 c 128,-1,37
 1063 471 1063 471 1063 389 c 0,38,39
 1063 268 1063 268 1015.5 165.5 c 128,-1,40
 968 63 968 63 890 -12 c 128,-1,41
 812 -87 812 -87 712.5 -129.5 c 128,-1,42
 613 -172 613 -172 508 -172 c 0,43,44
 402 -172 402 -172 322.5 -137 c 128,-1,45
 243 -102 243 -102 190.5 -43.5 c 128,-1,46
 138 15 138 15 111 90 c 0,0,1
287 116 m 1,47,48
 312 171 312 171 336 217.5 c 128,-1,49
 360 264 360 264 385.5 306 c 128,-1,50
 411 348 411 348 439 388 c 128,-1,51
 467 428 467 428 501 469 c 1,52,53
 480 472 480 472 460.5 474 c 128,-1,54
 441 476 441 476 424 476 c 1,55,-1
 459 577 l 1,56,57
 504 575 504 575 545.5 570.5 c 128,-1,58
 587 566 587 566 627 558.5 c 128,-1,59
 667 551 667 551 706 539.5 c 128,-1,60
 745 528 745 528 785 510 c 1,61,-1
 842 381 l 1,62,63
 804 328 804 328 745 288.5 c 128,-1,64
 686 249 686 249 614 220 c 1,65,-1
 703 91 l 1,66,-1
 588 23 l 1,67,-1
 476 226 l 1,68,69
 450 181 450 181 426.5 133.5 c 128,-1,70
 403 86 403 86 380 31 c 1,71,-1
 287 116 l 1,47,48
510 284 m 1,72,73
 537 295 537 295 565.5 309 c 128,-1,74
 594 323 594 323 621.5 339.5 c 128,-1,75
 649 356 649 356 673.5 373.5 c 128,-1,76
 698 391 698 391 717 409 c 1,77,78
 681 426 681 426 634.5 440 c 128,-1,79
 588 454 588 454 540 463 c 1,80,-1
 602 412 l 1,81,82
 577 380 577 380 554.5 348.5 c 128,-1,83
 532 317 532 317 510 284 c 1,72,73
EndSplineSet
EndChar

StartChar: copyright
Encoding: 169 169 209
Width: 1202
Flags: W
LayerCount: 2
Fore
SplineSet
111 90 m 0,0,1
 85 165 85 165 85 246 c 0,2,3
 85 330 85 330 111.5 412.5 c 128,-1,4
 138 495 138 495 190 564 c 1,5,-1
 308 520 l 1,6,7
 263 463 263 463 237 387 c 128,-1,8
 211 311 211 311 211 233 c 0,9,10
 211 176 211 176 228.5 122.5 c 128,-1,11
 246 69 246 69 282.5 28.5 c 128,-1,12
 319 -12 319 -12 375.5 -36.5 c 128,-1,13
 432 -61 432 -61 510 -61 c 256,14,15
 588 -61 588 -61 664.5 -26.5 c 128,-1,16
 741 8 741 8 802.5 68 c 128,-1,17
 864 128 864 128 902 209 c 128,-1,18
 940 290 940 290 940 384 c 0,19,20
 940 445 940 445 917.5 495.5 c 128,-1,21
 895 546 895 546 855 582 c 128,-1,22
 815 618 815 618 759.5 638 c 128,-1,23
 704 658 704 658 638 658 c 0,24,25
 558 658 558 658 471.5 637 c 128,-1,26
 385 616 385 616 310 580 c 1,27,-1
 275 678 l 1,28,29
 312 699 312 699 356.5 716 c 128,-1,30
 401 733 401 733 448 744.5 c 128,-1,31
 495 756 495 756 543 762.5 c 128,-1,32
 591 769 591 769 636 769 c 0,33,34
 733 769 733 769 812 740.5 c 128,-1,35
 891 712 891 712 946.5 661.5 c 128,-1,36
 1002 611 1002 611 1032.5 541 c 128,-1,37
 1063 471 1063 471 1063 389 c 0,38,39
 1063 268 1063 268 1015.5 165.5 c 128,-1,40
 968 63 968 63 890 -12 c 128,-1,41
 812 -87 812 -87 712.5 -129.5 c 128,-1,42
 613 -172 613 -172 508 -172 c 0,43,44
 402 -172 402 -172 322.5 -137 c 128,-1,45
 243 -102 243 -102 190.5 -43.5 c 128,-1,46
 138 15 138 15 111 90 c 0,0,1
303 139 m 1,47,48
 319 207 319 207 350 276.5 c 128,-1,49
 381 346 381 346 427 408 c 128,-1,50
 473 470 473 470 533.5 521 c 128,-1,51
 594 572 594 572 670 604 c 1,52,-1
 813 500 l 1,53,54
 807 477 807 477 797 453 c 128,-1,55
 787 429 787 429 775 405 c 128,-1,56
 763 381 763 381 750 359 c 128,-1,57
 737 337 737 337 724 319 c 1,58,-1
 631 373 l 1,59,60
 641 391 641 391 649.5 406 c 128,-1,61
 658 421 658 421 665 436 c 128,-1,62
 672 451 672 451 678 467 c 128,-1,63
 684 483 684 483 689 501 c 1,64,65
 641 478 641 478 600.5 441.5 c 128,-1,66
 560 405 560 405 528.5 361.5 c 128,-1,67
 497 318 497 318 476.5 269 c 128,-1,68
 456 220 456 220 448 171 c 1,69,70
 491 176 491 176 523 180.5 c 128,-1,71
 555 185 555 185 584.5 190.5 c 128,-1,72
 614 196 614 196 645 203 c 128,-1,73
 676 210 676 210 716 220 c 1,74,-1
 738 117 l 1,75,76
 695 102 695 102 657.5 91 c 128,-1,77
 620 80 620 80 581.5 72 c 128,-1,78
 543 64 543 64 499.5 57.5 c 128,-1,79
 456 51 456 51 402 45 c 1,80,-1
 303 139 l 1,47,48
EndSplineSet
EndChar

StartChar: bracketleft
Encoding: 91 91 210
Width: 513
Flags: W
LayerCount: 2
Fore
SplineSet
-8 -35 m 1,0,1
 45 84 45 84 94 184.5 c 128,-1,2
 143 285 143 285 195 379 c 128,-1,3
 247 473 247 473 305.5 568 c 128,-1,4
 364 663 364 663 436 771 c 1,5,6
 469 760 469 760 495 751.5 c 128,-1,7
 521 743 521 743 544 734.5 c 128,-1,8
 567 726 567 726 591.5 715.5 c 128,-1,9
 616 705 616 705 646 692 c 1,10,-1
 614 607 l 1,11,12
 579 621 579 621 550.5 630 c 128,-1,13
 522 639 522 639 496 647 c 1,14,15
 445 565 445 565 396.5 485 c 128,-1,16
 348 405 348 405 302 323 c 128,-1,17
 256 241 256 241 211 155 c 128,-1,18
 166 69 166 69 123 -26 c 1,19,20
 160 -40 160 -40 199.5 -54 c 128,-1,21
 239 -68 239 -68 287 -81 c 1,22,-1
 259 -170 l 1,23,24
 232 -166 232 -166 209.5 -161.5 c 128,-1,25
 187 -157 187 -157 167 -151.5 c 128,-1,26
 147 -146 147 -146 126 -139 c 128,-1,27
 105 -132 105 -132 81 -122 c 1,28,-1
 -8 -35 l 1,29,-1
 -8 -35 l 1,0,1
EndSplineSet
EndChar

StartChar: ordfeminine
Encoding: 170 170 212
Width: 612
Flags: W
LayerCount: 2
Fore
SplineSet
103 455 m 1,0,1
 103 515 103 515 121.5 573 c 128,-1,2
 140 631 140 631 176 677.5 c 128,-1,3
 212 724 212 724 265 754.5 c 128,-1,4
 318 785 318 785 387 791 c 1,5,-1
 436 716 l 1,6,7
 444 727 444 727 454 738.5 c 128,-1,8
 464 750 464 750 476 764 c 1,9,-1
 550 705 l 1,10,11
 535 685 535 685 518 659 c 128,-1,12
 501 633 501 633 483.5 604.5 c 128,-1,13
 466 576 466 576 450 546.5 c 128,-1,14
 434 517 434 517 422 491 c 1,15,16
 438 496 438 496 459.5 504 c 128,-1,17
 481 512 481 512 503 521.5 c 128,-1,18
 525 531 525 531 545.5 540.5 c 128,-1,19
 566 550 566 550 580 558 c 1,20,-1
 597 474 l 1,21,22
 586 466 586 466 559.5 450.5 c 128,-1,23
 533 435 533 435 502.5 418.5 c 128,-1,24
 472 402 472 402 441.5 387.5 c 128,-1,25
 411 373 411 373 393 367 c 1,26,-1
 333 434 l 1,27,28
 307 415 307 415 273.5 398 c 128,-1,29
 240 381 240 381 198 368 c 1,30,-1
 103 455 l 1,0,1
215 478 m 1,31,32
 257 489 257 489 286.5 507 c 128,-1,33
 316 525 316 525 335.5 550.5 c 128,-1,34
 355 576 355 576 367 609 c 128,-1,35
 379 642 379 642 387 684 c 1,36,37
 343 675 343 675 311 656 c 128,-1,38
 279 637 279 637 258 610 c 128,-1,39
 237 583 237 583 226.5 549 c 128,-1,40
 216 515 216 515 215 478 c 1,31,32
EndSplineSet
EndChar

StartChar: ordmasculine
Encoding: 186 186 213
Width: 519
Flags: W
LayerCount: 2
Fore
SplineSet
121 457 m 1,0,1
 121 476 121 476 124.5 500 c 128,-1,2
 128 524 128 524 135 550 c 128,-1,3
 142 576 142 576 152.5 602 c 128,-1,4
 163 628 163 628 178 651 c 0,5,6
 216 711 216 711 276.5 746 c 128,-1,7
 337 781 337 781 400 791 c 1,8,-1
 523 688 l 1,9,10
 514 627 514 627 489.5 569.5 c 128,-1,11
 465 512 465 512 424 467 c 1,12,13
 352 391 352 391 229 368 c 1,14,-1
 121 457 l 1,0,1
235 480 m 1,15,16
 264 487 264 487 293 501 c 128,-1,17
 322 515 322 515 345 542 c 0,18,19
 355 554 355 554 366.5 571.5 c 128,-1,20
 378 589 378 589 387.5 609.5 c 128,-1,21
 397 630 397 630 403.5 651 c 128,-1,22
 410 672 410 672 410 690 c 1,23,24
 390 689 390 689 371 680.5 c 128,-1,25
 352 672 352 672 334 659.5 c 128,-1,26
 316 647 316 647 300.5 630.5 c 128,-1,27
 285 614 285 614 274 597 c 0,28,29
 256 571 256 571 246.5 540 c 128,-1,30
 237 509 237 509 235 480 c 1,15,16
EndSplineSet
EndChar

StartChar: braceleft
Encoding: 123 123 215
Width: 490
Flags: W
LayerCount: 2
Fore
SplineSet
96 102 m 256,0,1
 110 160 110 160 130 205.5 c 128,-1,2
 150 251 150 251 164 277 c 0,3,4
 169 287 169 287 165 298.5 c 128,-1,5
 161 310 161 310 149 321.5 c 128,-1,6
 137 333 137 333 118.5 345.5 c 128,-1,7
 100 358 100 358 77 372 c 1,8,-1
 119 454 l 1,9,10
 179 440 179 440 216 442 c 128,-1,11
 253 444 253 444 261 458 c 0,12,13
 280 492 280 492 305 537 c 128,-1,14
 330 582 330 582 365 626 c 128,-1,15
 400 670 400 670 448.5 707 c 128,-1,16
 497 744 497 744 564 764 c 1,17,-1
 609 676 l 1,18,19
 559 654 559 654 523.5 622 c 128,-1,20
 488 590 488 590 459.5 551.5 c 128,-1,21
 431 513 431 513 407.5 470 c 128,-1,22
 384 427 384 427 358 383 c 1,23,24
 348 378 348 378 333 373.5 c 128,-1,25
 318 369 318 369 300.5 366 c 128,-1,26
 283 363 283 363 265.5 361.5 c 128,-1,27
 248 360 248 360 233 361 c 1,28,29
 269 284 269 284 266 219 c 1,30,31
 249 189 249 189 234 150.5 c 128,-1,32
 219 112 219 112 209 66 c 128,-1,33
 199 20 199 20 196 -33 c 128,-1,34
 193 -86 193 -86 199 -145 c 1,35,-1
 102 -166 l 1,36,37
 79 -93 79 -93 80.5 -24.5 c 128,-1,38
 82 44 82 44 96 102 c 256,0,1
EndSplineSet
EndChar

StartChar: trademark
Encoding: 8482 8482 217
Width: 968
Flags: W
LayerCount: 2
Fore
SplineSet
104 418 m 1,0,1
 136 498 136 498 171.5 555 c 128,-1,2
 207 612 207 612 241 659 c 1,3,4
 218 665 218 665 195 670 c 128,-1,5
 172 675 172 675 150 679 c 1,6,-1
 198 766 l 1,7,8
 264 757 264 757 334.5 739 c 128,-1,9
 405 721 405 721 474 698 c 1,10,-1
 431 600 l 1,11,12
 394 613 394 613 353.5 626.5 c 128,-1,13
 313 640 313 640 270 651 c 1,14,-1
 326 604 l 1,15,16
 303 573 303 573 285 544.5 c 128,-1,17
 267 516 267 516 250.5 485.5 c 128,-1,18
 234 455 234 455 218.5 420.5 c 128,-1,19
 203 386 203 386 186 344 c 1,20,-1
 104 418 l 1,0,1
391 417 m 1,21,22
 416 468 416 468 441.5 513 c 128,-1,23
 467 558 467 558 494 599.5 c 128,-1,24
 521 641 521 641 550 680 c 128,-1,25
 579 719 579 719 612 758 c 1,26,-1
 714 668 l 1,27,28
 699 620 699 620 689 580.5 c 128,-1,29
 679 541 679 541 671 499 c 1,30,31
 693 525 693 525 713.5 551 c 128,-1,32
 734 577 734 577 755 604.5 c 128,-1,33
 776 632 776 632 798 662 c 128,-1,34
 820 692 820 692 844 727 c 1,35,-1
 943 643 l 1,36,37
 929 594 929 594 917.5 555 c 128,-1,38
 906 516 906 516 893 478 c 128,-1,39
 880 440 880 440 863.5 399 c 128,-1,40
 847 358 847 358 824 305 c 1,41,-1
 743 371 l 1,42,43
 768 425 768 425 785.5 467.5 c 128,-1,44
 803 510 803 510 817 551 c 1,45,46
 797 525 797 525 777.5 499.5 c 128,-1,47
 758 474 758 474 737 447.5 c 128,-1,48
 716 421 716 421 692 392 c 128,-1,49
 668 363 668 363 640 329 c 1,50,-1
 567 391 l 1,51,52
 578 457 578 457 588 506.5 c 128,-1,53
 598 556 598 556 609 601 c 1,54,55
 572 545 572 545 539 484.5 c 128,-1,56
 506 424 506 424 469 345 c 1,57,-1
 391 417 l 1,21,22
EndSplineSet
EndChar

StartChar: plus
Encoding: 43 43 218
Width: 609
Flags: W
LayerCount: 2
Fore
SplineSet
148 140 m 1,0,1
 157 170 157 170 168 203.5 c 128,-1,2
 179 237 179 237 191 272 c 1,3,4
 156 283 156 283 122.5 292.5 c 128,-1,5
 89 302 89 302 58 310 c 1,6,-1
 103 424 l 1,7,8
 132 416 132 416 165 406 c 128,-1,9
 198 396 198 396 233 385 c 1,10,11
 247 421 247 421 260.5 454.5 c 128,-1,12
 274 488 274 488 288 518 c 1,13,-1
 399 473 l 1,14,15
 386 444 386 444 373 412 c 128,-1,16
 360 380 360 380 347 346 c 1,17,18
 383 332 383 332 417 319 c 128,-1,19
 451 306 451 306 481 292 c 1,20,-1
 436 181 l 1,21,22
 406 194 406 194 373 207 c 128,-1,23
 340 220 340 220 305 233 c 1,24,25
 293 197 293 197 282 163 c 128,-1,26
 271 129 271 129 263 100 c 1,27,-1
 148 140 l 1,28,-1
 148 140 l 1,0,1
EndSplineSet
EndChar

StartChar: multiply
Encoding: 215 215 220
Width: 609
Flags: W
LayerCount: 2
Fore
SplineSet
43 233 m 1,0,1
 70 250 70 250 105.5 271 c 128,-1,2
 141 292 141 292 180 313 c 1,3,4
 162 349 162 349 146 383 c 128,-1,5
 130 417 130 417 117 446 c 1,6,-1
 225 497 l 1,7,8
 237 468 237 468 253 436 c 2,9,-1
 286 370 l 1,10,11
 326 390 326 390 363.5 409 c 128,-1,12
 401 428 401 428 432 442 c 1,13,-1
 485 335 l 1,14,15
 454 321 454 321 418 302 c 128,-1,16
 382 283 382 283 344 263 c 1,17,18
 366 225 366 225 386.5 190.5 c 128,-1,19
 407 156 407 156 426 130 c 1,20,-1
 318 73 l 1,21,22
 299 100 299 100 278.5 134 c 128,-1,23
 258 168 258 168 237 205 c 1,24,25
 199 183 199 183 164 163 c 128,-1,26
 129 143 129 143 102 126 c 1,27,-1
 43 233 l 1,0,1
EndSplineSet
EndChar

StartChar: divide
Encoding: 247 247 221
Width: 609
Flags: W
LayerCount: 2
Fore
SplineSet
284 443 m 1,0,1
 260 468 260 468 260 503 c 0,2,3
 260 539 260 539 284.5 563.5 c 128,-1,4
 309 588 309 588 344 588 c 256,5,6
 379 588 379 588 403.5 563.5 c 128,-1,7
 428 539 428 539 428 503 c 0,8,9
 428 486 428 486 421.5 470.5 c 128,-1,10
 415 455 415 455 403.5 443.5 c 128,-1,11
 392 432 392 432 377 425.5 c 128,-1,12
 362 419 362 419 344 419 c 0,13,14
 309 419 309 419 284 443 c 1,0,1
110 433 m 1,15,16
 152 422 152 422 201 406.5 c 128,-1,17
 250 391 250 391 300 374 c 128,-1,18
 350 357 350 357 398.5 338 c 128,-1,19
 447 319 447 319 488 301 c 1,20,-1
 442 190 l 1,21,22
 400 208 400 208 352.5 226.5 c 128,-1,23
 305 245 305 245 255.5 262 c 128,-1,24
 206 279 206 279 157 293.5 c 128,-1,25
 108 308 108 308 64 319 c 1,26,-1
 110 433 l 1,15,16
125 125 m 0,27,28
 125 161 125 161 149.5 185.5 c 128,-1,29
 174 210 174 210 209 210 c 256,30,31
 244 210 244 210 268.5 185.5 c 128,-1,32
 293 161 293 161 293 125 c 0,33,34
 293 108 293 108 286.5 92.5 c 128,-1,35
 280 77 280 77 268.5 65.5 c 128,-1,36
 257 54 257 54 242 47.5 c 128,-1,37
 227 41 227 41 209 41 c 0,38,39
 174 41 174 41 149.5 65.5 c 128,-1,40
 125 90 125 90 125 125 c 0,27,28
EndSplineSet
EndChar

StartChar: logicalnot
Encoding: 172 172 223
Width: 609
Flags: W
LayerCount: 2
Fore
SplineSet
269 117 m 1,0,1
 298 173 298 173 321 226 c 1,2,3
 284 240 284 240 246 253 c 0,4,5
 197 270 197 270 148 284.5 c 128,-1,6
 99 299 99 299 55 310 c 1,7,-1
 101 424 l 1,8,9
 143 413 143 413 192 397.5 c 128,-1,10
 241 382 241 382 291 365 c 128,-1,11
 341 348 341 348 389.5 329 c 128,-1,12
 438 310 438 310 479 292 c 1,13,14
 456 234 456 234 431.5 174 c 128,-1,15
 407 114 407 114 385 66 c 1,16,-1
 269 117 l 1,17,-1
 269 117 l 1,0,1
EndSplineSet
EndChar

StartChar: less
Encoding: 60 60 224
Width: 609
Flags: W
LayerCount: 2
Fore
SplineSet
188 163 m 256,0,1
 147 225 147 225 111 294 c 1,2,-1
 153 389 l 1,3,4
 210 417 210 417 285 440 c 128,-1,5
 360 463 360 463 438 482 c 1,6,-1
 478 381 l 1,7,8
 410 361 410 361 354.5 342 c 128,-1,9
 299 323 299 323 251 298 c 1,10,11
 264 272 264 272 280 245 c 2,12,-1
 312 191 l 2,13,14
 328 164 328 164 343.5 139 c 128,-1,15
 359 114 359 114 373 94 c 1,16,-1
 277 40 l 1,17,18
 229 101 229 101 188 163 c 256,0,1
EndSplineSet
EndChar

StartChar: asciitilde
Encoding: 126 126 226
Width: 620
Flags: W
LayerCount: 2
Fore
SplineSet
94 414 m 1,0,1
 115 418 115 418 133 421 c 128,-1,2
 151 424 151 424 171 424 c 0,3,4
 211 424 211 424 242.5 405.5 c 128,-1,5
 274 387 274 387 304 364.5 c 128,-1,6
 334 342 334 342 366 323.5 c 128,-1,7
 398 305 398 305 440 305 c 0,8,9
 462 305 462 305 488 308 c 1,10,-1
 452 195 l 1,11,12
 431 190 431 190 412.5 187.5 c 128,-1,13
 394 185 394 185 374 185 c 0,14,15
 334 185 334 185 303.5 203.5 c 128,-1,16
 273 222 273 222 244 244.5 c 128,-1,17
 215 267 215 267 182.5 285.5 c 128,-1,18
 150 304 150 304 106 304 c 0,19,20
 85 304 85 304 58 301 c 1,21,-1
 94 414 l 1,0,1
EndSplineSet
EndChar

StartChar: mu
Encoding: 181 181 227
Width: 691
Flags: W
LayerCount: 2
Fore
SplineSet
47 -86 m 256,0,1
 30 -142 30 -142 13 -205 c 1,2,-1
 -95 -125 l 1,3,4
 -67 -29 -67 -29 -37 56.5 c 128,-1,5
 -7 142 -7 142 27.5 222.5 c 128,-1,6
 62 303 62 303 103 381 c 128,-1,7
 144 459 144 459 194 540 c 1,8,-1
 298 461 l 1,9,10
 246 380 246 380 201.5 297 c 128,-1,11
 157 214 157 214 118 118 c 1,12,13
 168 131 168 131 217.5 164 c 128,-1,14
 267 197 267 197 316 259 c 1,15,16
 344 316 344 316 379.5 379 c 128,-1,17
 415 442 415 442 450 491 c 1,18,-1
 556 408 l 1,19,20
 516 348 516 348 475 276 c 128,-1,21
 434 204 434 204 403 135 c 1,22,-1
 399 133 l 1,23,24
 425 140 425 140 462 154 c 128,-1,25
 499 168 499 168 537 185 c 1,26,-1
 565 75 l 1,27,28
 539 60 539 60 510.5 45 c 128,-1,29
 482 30 482 30 455 16.5 c 128,-1,30
 428 3 428 3 404 -7.5 c 128,-1,31
 380 -18 380 -18 364 -23 c 1,32,-1
 284 66 l 1,33,34
 271 54 271 54 257.5 42.5 c 128,-1,35
 244 31 244 31 227.5 19.5 c 128,-1,36
 211 8 211 8 189.5 -3.5 c 128,-1,37
 168 -15 168 -15 140 -27 c 1,38,-1
 82 22 l 1,39,40
 64 -30 64 -30 47 -86 c 256,0,1
EndSplineSet
EndChar

StartChar: asterisk
Encoding: 42 42 228
Width: 576
Flags: W
LayerCount: 2
Fore
SplineSet
111 443 m 1,0,1
 143 468 143 468 170 488 c 128,-1,2
 197 508 197 508 228 528 c 1,3,4
 178 578 178 578 124 620 c 1,5,-1
 185 697 l 1,6,7
 219 674 219 674 247.5 654 c 128,-1,8
 276 634 276 634 305 610 c 1,9,10
 322 642 322 642 336.5 675 c 128,-1,11
 351 708 351 708 362 742 c 1,12,-1
 454 706 l 1,13,14
 443 666 443 666 432.5 633 c 128,-1,15
 422 600 422 600 408 565 c 1,16,17
 442 560 442 560 476 556.5 c 128,-1,18
 510 553 510 553 544 553 c 1,19,-1
 539 455 l 1,20,21
 499 453 499 453 466 452 c 128,-1,22
 433 451 433 451 398 453 c 1,23,24
 403 419 403 419 410.5 385 c 128,-1,25
 418 351 418 351 428 319 c 1,26,-1
 334 292 l 1,27,28
 319 330 319 330 308 363.5 c 128,-1,29
 297 397 297 397 287 433 c 1,30,31
 255 416 255 416 224.5 397.5 c 128,-1,32
 194 379 194 379 166 359 c 1,33,-1
 111 443 l 1,0,1
EndSplineSet
EndChar

StartChar: asciicircum
Encoding: 94 94 229
Width: 654
Flags: W
LayerCount: 2
Fore
SplineSet
43 302 m 1,0,1
 76 336 76 336 113.5 370.5 c 128,-1,2
 151 405 151 405 190.5 437 c 128,-1,3
 230 469 230 469 269.5 497.5 c 128,-1,4
 309 526 309 526 347 549 c 1,5,-1
 445 504 l 1,6,7
 453 460 453 460 461 410 c 128,-1,8
 469 360 469 360 475 308 c 128,-1,9
 481 256 481 256 486 206.5 c 128,-1,10
 491 157 491 157 493 115 c 1,11,-1
 379 91 l 1,12,13
 371 160 371 160 359.5 233.5 c 128,-1,14
 348 307 348 307 334 383 c 1,15,16
 269 339 269 339 213 295.5 c 128,-1,17
 157 252 157 252 102 205 c 1,18,-1
 43 302 l 1,0,1
EndSplineSet
EndChar

StartChar: numbersign
Encoding: 35 35 230
Width: 688
Flags: W
LayerCount: 2
Fore
SplineSet
116 256 m 1,0,1
 96 264 96 264 76.5 270 c 128,-1,2
 57 276 57 276 37 283 c 1,3,-1
 78 380 l 1,4,-1
 157 354 l 1,5,-1
 195 438 l 1,6,7
 176 445 176 445 157 451 c 2,8,-1
 119 463 l 1,9,-1
 159 562 l 1,10,11
 180 555 180 555 200.5 548 c 128,-1,12
 221 541 221 541 242 533 c 1,13,-1
 297 641 l 1,14,-1
 395 595 l 1,15,16
 381 569 381 569 368 544.5 c 128,-1,17
 355 520 355 520 343 496 c 1,18,-1
 421 465 l 1,19,20
 433 489 433 489 446.5 514 c 128,-1,21
 460 539 460 539 474 566 c 1,22,-1
 571 522 l 1,23,24
 557 495 557 495 544 470.5 c 128,-1,25
 531 446 531 446 519 422 c 1,26,27
 539 413 539 413 558.5 403.5 c 128,-1,28
 578 394 578 394 598 385 c 1,29,-1
 553 289 l 1,30,-1
 473 327 l 1,31,32
 463 306 463 306 454 285 c 2,33,-1
 436 243 l 1,34,-1
 517 204 l 1,35,-1
 472 107 l 1,36,37
 453 116 453 116 434.5 125.5 c 128,-1,38
 416 135 416 135 396 144 c 1,39,40
 385 115 385 115 373.5 85 c 128,-1,41
 362 55 362 55 351 22 c 1,42,-1
 248 65 l 1,43,44
 260 98 260 98 272 128 c 128,-1,45
 284 158 284 158 295 187 c 1,46,47
 276 195 276 195 257.5 202.5 c 128,-1,48
 239 210 239 210 219 218 c 1,49,-1
 174 94 l 1,50,-1
 71 139 l 1,51,-1
 116 256 l 1,0,1
336 286 m 1,52,-1
 374 369 l 1,53,54
 354 377 354 377 335 385 c 128,-1,55
 316 393 316 393 296 401 c 1,56,57
 286 380 286 380 277 359 c 2,58,-1
 259 317 l 1,59,-1
 336 286 l 1,52,-1
EndSplineSet
EndChar

StartChar: currency
Encoding: 164 164 231
Width: 683
Flags: W
LayerCount: 2
Fore
SplineSet
13 217 m 1,0,1
 39 235 39 235 62 249.5 c 128,-1,2
 85 264 85 264 110 278 c 1,3,4
 108 288 108 288 107 298 c 128,-1,5
 106 308 106 308 106 319 c 0,6,7
 106 363 106 363 121.5 400 c 128,-1,8
 137 437 137 437 164 465 c 1,9,10
 153 491 153 491 140.5 515 c 128,-1,11
 128 539 128 539 116 560 c 1,12,-1
 204 614 l 1,13,14
 221 588 221 588 235 565.5 c 128,-1,15
 249 543 249 543 263 520 c 1,16,17
 287 526 287 526 313 526 c 0,18,19
 355 526 355 526 392.5 510 c 128,-1,20
 430 494 430 494 457 466 c 1,21,22
 506 488 506 488 550 515 c 1,23,-1
 603 426 l 1,24,25
 577 409 577 409 555 395 c 128,-1,26
 533 381 533 381 510 367 c 1,27,28
 516 344 516 344 516 319 c 0,29,30
 516 275 516 275 499 237.5 c 128,-1,31
 482 200 482 200 453 172 c 1,32,33
 465 146 465 146 477.5 122 c 128,-1,34
 490 98 490 98 503 78 c 1,35,-1
 415 25 l 1,36,37
 396 51 396 51 381.5 73.5 c 128,-1,38
 367 96 367 96 353 121 c 1,39,40
 336 117 336 117 313 117 c 0,41,42
 267 117 267 117 228.5 133.5 c 128,-1,43
 190 150 190 150 162 179 c 1,44,45
 136 167 136 167 111.5 154.5 c 128,-1,46
 87 142 87 142 67 130 c 1,47,-1
 13 217 l 1,0,1
273 231 m 0,48,49
 291 224 291 224 311 224 c 256,50,51
 331 224 331 224 348 231.5 c 128,-1,52
 365 239 365 239 378 252 c 128,-1,53
 391 265 391 265 398 282 c 128,-1,54
 405 299 405 299 405 319 c 0,55,56
 405 360 405 360 378 387.5 c 128,-1,57
 351 415 351 415 311 415 c 0,58,59
 270 415 270 415 242 387.5 c 128,-1,60
 214 360 214 360 214 319 c 0,61,62
 214 299 214 299 221.5 282 c 128,-1,63
 229 265 229 265 242 252 c 128,-1,64
 255 239 255 239 273 231 c 0,48,49
EndSplineSet
EndChar

StartChar: underscore
Encoding: 95 95 232
Width: 679
Flags: W
LayerCount: 2
Fore
SplineSet
626 -106 m 1,0,-1
 626 -200 l 1,1,-1
 -91 -200 l 1,2,-1
 -91 -106 l 1,3,-1
 626 -106 l 1,0,-1
EndSplineSet
EndChar

StartChar: ij
Encoding: 307 307 235
Width: 663
Flags: W
LayerCount: 2
Fore
SplineSet
551 624 m 256,0,1
 551 658 551 658 574.5 681.5 c 128,-1,2
 598 705 598 705 632 705 c 256,3,4
 666 705 666 705 689.5 681.5 c 128,-1,5
 713 658 713 658 713 624 c 256,6,7
 713 590 713 590 689.5 566.5 c 128,-1,8
 666 543 666 543 632 543 c 256,9,10
 598 543 598 543 574.5 566.5 c 128,-1,11
 551 590 551 590 551 624 c 256,0,1
243 566 m 1,12,13
 220 590 220 590 220 624 c 256,14,15
 220 658 220 658 243.5 681.5 c 128,-1,16
 267 705 267 705 301 705 c 256,17,18
 335 705 335 705 358.5 681.5 c 128,-1,19
 382 658 382 658 382 624 c 256,20,21
 382 590 382 590 358.5 566.5 c 128,-1,22
 335 543 335 543 301 543 c 256,23,24
 267 543 267 543 243 566 c 1,12,13
-81 79 m 1,25,26
 -67 117 -67 117 -39.5 173.5 c 128,-1,27
 -12 230 -12 230 22.5 291.5 c 128,-1,28
 57 353 57 353 95 413 c 128,-1,29
 133 473 133 473 169 518 c 1,30,-1
 268 445 l 1,31,32
 244 412 244 412 219 371.5 c 128,-1,33
 194 331 194 331 170.5 288.5 c 128,-1,34
 147 246 147 246 126.5 204 c 128,-1,35
 106 162 106 162 92 126 c 1,36,37
 153 145 153 145 206.5 168.5 c 128,-1,38
 260 192 260 192 309 217 c 1,39,40
 329 255 329 255 352.5 296 c 128,-1,41
 376 337 376 337 401 376.5 c 128,-1,42
 426 416 426 416 451.5 452 c 128,-1,43
 477 488 477 488 500 518 c 1,44,-1
 599 445 l 1,45,46
 575 412 575 412 548.5 371 c 128,-1,47
 522 330 522 330 497 287.5 c 128,-1,48
 472 245 472 245 450.5 202.5 c 128,-1,49
 429 160 429 160 414 124 c 1,50,51
 488 146 488 146 549.5 174.5 c 128,-1,52
 611 203 611 203 668 232 c 1,53,-1
 689 131 l 1,54,55
 663 114 663 114 628 94.5 c 128,-1,56
 593 75 593 75 553.5 55 c 128,-1,57
 514 35 514 35 470.5 16 c 128,-1,58
 427 -3 427 -3 383 -18 c 1,59,-1
 356 8 l 1,60,61
 321 -68 321 -68 294.5 -141.5 c 128,-1,62
 268 -215 268 -215 243 -294 c 1,63,-1
 127 -221 l 1,64,65
 147 -157 147 -157 174.5 -85.5 c 128,-1,66
 202 -14 202 -14 234 60 c 1,67,68
 186 36 186 36 134.5 13 c 128,-1,69
 83 -10 83 -10 34 -27 c 1,70,-1
 -81 79 l 1,25,26
EndSplineSet
EndChar

StartChar: threequarters
Encoding: 190 190 236
Width: 1026
Flags: W
LayerCount: 2
Fore
SplineSet
63 476 m 1,0,1
 86 470 86 470 113 465 c 128,-1,2
 140 460 140 460 169 460 c 256,3,4
 198 460 198 460 228.5 468 c 128,-1,5
 259 476 259 476 284 496 c 1,6,7
 258 512 258 512 220 529.5 c 128,-1,8
 182 547 182 547 147 558 c 1,9,-1
 191 636 l 1,10,11
 246 636 246 636 288.5 647 c 128,-1,12
 331 658 331 658 366 683 c 1,13,14
 339 693 339 693 309.5 698.5 c 128,-1,15
 280 704 280 704 247 704 c 0,16,17
 234 704 234 704 222.5 703.5 c 128,-1,18
 211 703 211 703 200 702 c 1,19,-1
 245 794 l 1,20,21
 255 796 255 796 266 796 c 2,22,-1
 289 796 l 2,23,24
 337 796 337 796 380 785 c 128,-1,25
 423 774 423 774 455 756 c 1,26,-1
 486 648 l 1,27,28
 447 615 447 615 409.5 595 c 128,-1,29
 372 575 372 575 334 565 c 1,30,31
 346 560 346 560 358 554 c 128,-1,32
 370 548 370 548 383 541 c 1,33,-1
 410 456 l 1,34,35
 365 407 365 407 309 383 c 128,-1,36
 253 359 253 359 190 359 c 0,37,38
 164 359 164 359 137 363 c 128,-1,39
 110 367 110 367 83 376 c 1,40,-1
 63 476 l 1,0,1
142 67 m 1,41,42
 225 156 225 156 300.5 233.5 c 128,-1,43
 376 311 376 311 450 383.5 c 128,-1,44
 524 456 524 456 600.5 526.5 c 128,-1,45
 677 597 677 597 761 671 c 1,46,-1
 820 603 l 1,47,48
 736 529 736 529 660 459.5 c 128,-1,49
 584 390 584 390 511 317.5 c 128,-1,50
 438 245 438 245 364 166 c 128,-1,51
 290 87 290 87 209 -5 c 1,52,-1
 142 67 l 1,41,42
521 175 m 1,53,54
 564 235 564 235 609 281 c 128,-1,55
 654 327 654 327 707 368 c 1,56,-1
 784 303 l 1,57,58
 745 271 745 271 711.5 238 c 128,-1,59
 678 205 678 205 646 167 c 1,60,61
 664 164 664 164 683 160 c 128,-1,62
 702 156 702 156 722 151 c 1,63,64
 751 198 751 198 782.5 242.5 c 128,-1,65
 814 287 814 287 847 329 c 1,66,-1
 922 265 l 1,67,68
 897 232 897 232 873 196 c 128,-1,69
 849 160 849 160 826 122 c 1,70,-1
 887 101 l 1,71,-1
 846 12 l 1,72,-1
 776 33 l 1,73,74
 759 1 759 1 744 -31.5 c 128,-1,75
 729 -64 729 -64 715 -96 c 1,76,-1
 632 -21 l 1,77,78
 640 -1 640 -1 649 19 c 128,-1,79
 658 39 658 39 669 60 c 1,80,81
 634 68 634 68 600 74.5 c 128,-1,82
 566 81 566 81 534 87 c 1,83,-1
 521 175 l 1,53,54
EndSplineSet
EndChar

StartChar: onequarter
Encoding: 188 188 237
Width: 904
Flags: W
LayerCount: 2
Fore
SplineSet
75 449 m 1,0,1
 104 501 104 501 138 554 c 128,-1,2
 172 607 172 607 208 659 c 1,3,4
 167 641 167 641 129 621 c 1,5,-1
 95 707 l 1,6,7
 144 733 144 733 191.5 754.5 c 128,-1,8
 239 776 239 776 293 795 c 1,9,-1
 376 709 l 1,10,11
 321 631 321 631 269.5 546.5 c 128,-1,12
 218 462 218 462 169 365 c 1,13,-1
 75 449 l 1,0,1
25 67 m 1,14,15
 108 156 108 156 183.5 233.5 c 128,-1,16
 259 311 259 311 333 383.5 c 128,-1,17
 407 456 407 456 483.5 526.5 c 128,-1,18
 560 597 560 597 644 671 c 1,19,-1
 703 603 l 1,20,21
 619 529 619 529 543 459.5 c 128,-1,22
 467 390 467 390 394 317.5 c 128,-1,23
 321 245 321 245 247 166 c 128,-1,24
 173 87 173 87 92 -5 c 1,25,-1
 25 67 l 1,14,15
400 175 m 1,26,27
 442 235 442 235 487.5 281 c 128,-1,28
 533 327 533 327 586 368 c 1,29,-1
 662 303 l 1,30,31
 623 271 623 271 589.5 238.5 c 128,-1,32
 556 206 556 206 524 168 c 1,33,34
 542 164 542 164 561 160 c 128,-1,35
 580 156 580 156 600 151 c 1,36,37
 629 198 629 198 660.5 242.5 c 128,-1,38
 692 287 692 287 725 329 c 1,39,-1
 801 265 l 1,40,41
 776 232 776 232 752 196 c 128,-1,42
 728 160 728 160 705 122 c 1,43,-1
 766 101 l 1,44,-1
 724 12 l 1,45,-1
 690 22 l 2,46,47
 673 27 673 27 655 32 c 1,48,49
 638 0 638 0 623 -32 c 128,-1,50
 608 -64 608 -64 594 -96 c 1,51,-1
 510 -21 l 1,52,53
 518 -1 518 -1 527 19 c 128,-1,54
 536 39 536 39 547 60 c 1,55,56
 512 68 512 68 478 74.5 c 128,-1,57
 444 81 444 81 412 87 c 1,58,-1
 400 175 l 1,26,27
EndSplineSet
EndChar

StartChar: threesuperior
Encoding: 179 179 239
Width: 437
Flags: W
LayerCount: 2
Fore
SplineSet
45 476 m 1,0,1
 68 470 68 470 95 465 c 128,-1,2
 122 460 122 460 151 460 c 256,3,4
 180 460 180 460 210.5 468 c 128,-1,5
 241 476 241 476 266 496 c 1,6,7
 240 512 240 512 202 529.5 c 128,-1,8
 164 547 164 547 129 558 c 1,9,-1
 173 636 l 1,10,11
 228 636 228 636 270.5 647 c 128,-1,12
 313 658 313 658 348 683 c 1,13,14
 321 693 321 693 291.5 698.5 c 128,-1,15
 262 704 262 704 229 704 c 0,16,17
 216 704 216 704 204.5 703.5 c 128,-1,18
 193 703 193 703 182 702 c 1,19,-1
 227 794 l 1,20,21
 237 796 237 796 248 796 c 2,22,-1
 271 796 l 2,23,24
 319 796 319 796 362 785 c 128,-1,25
 405 774 405 774 437 756 c 1,26,-1
 468 648 l 1,27,28
 429 615 429 615 391.5 595 c 128,-1,29
 354 575 354 575 316 565 c 1,30,31
 328 560 328 560 340 554 c 128,-1,32
 352 548 352 548 365 541 c 1,33,-1
 392 456 l 1,34,35
 347 407 347 407 291 383 c 128,-1,36
 235 359 235 359 172 359 c 0,37,38
 146 359 146 359 119 363 c 128,-1,39
 92 367 92 367 65 376 c 1,40,-1
 45 476 l 1,0,1
EndSplineSet
EndChar

StartChar: twosuperior
Encoding: 178 178 240
Width: 434
Flags: W
LayerCount: 2
Fore
SplineSet
64 525 m 1,0,1
 101 556 101 556 139 577.5 c 128,-1,2
 177 599 177 599 213 616.5 c 128,-1,3
 249 634 249 634 281 650.5 c 128,-1,4
 313 667 313 667 338 688 c 1,5,6
 311 696 311 696 283 700 c 128,-1,7
 255 704 255 704 230 704 c 0,8,9
 219 704 219 704 206.5 703.5 c 128,-1,10
 194 703 194 703 183 702 c 1,11,-1
 227 793 l 1,12,13
 251 796 251 796 276 796 c 0,14,15
 311 796 311 796 353.5 787.5 c 128,-1,16
 396 779 396 779 435 760 c 1,17,-1
 468 655 l 1,18,19
 435 614 435 614 403.5 591 c 128,-1,20
 372 568 372 568 341 553 c 128,-1,21
 310 538 310 538 280 525.5 c 128,-1,22
 250 513 250 513 219 494 c 1,23,24
 252 483 252 483 290.5 475 c 128,-1,25
 329 467 329 467 377 461 c 1,26,-1
 328 358 l 1,27,28
 299 361 299 361 267.5 367.5 c 128,-1,29
 236 374 236 374 205 382 c 128,-1,30
 174 390 174 390 146 399 c 128,-1,31
 118 408 118 408 96 417 c 1,32,-1
 64 525 l 1,0,1
EndSplineSet
EndChar

StartChar: onesuperior
Encoding: 185 185 241
Width: 335
Flags: W
LayerCount: 2
Fore
SplineSet
84 449 m 1,0,1
 113 501 113 501 147 554 c 128,-1,2
 181 607 181 607 217 659 c 1,3,4
 176 641 176 641 138 621 c 1,5,-1
 104 707 l 1,6,7
 153 733 153 733 200.5 754.5 c 128,-1,8
 248 776 248 776 302 795 c 1,9,-1
 385 709 l 1,10,11
 330 631 330 631 278.5 546.5 c 128,-1,12
 227 462 227 462 178 365 c 1,13,-1
 84 449 l 1,0,1
EndSplineSet
EndChar

StartChar: i
Encoding: 105 105 242
Width: 332
Flags: W
LayerCount: 2
Fore
SplineSet
243 566 m 1,0,1
 220 590 220 590 220 624 c 256,2,3
 220 658 220 658 243.5 681.5 c 128,-1,4
 267 705 267 705 301 705 c 256,5,6
 335 705 335 705 358.5 681.5 c 128,-1,7
 382 658 382 658 382 624 c 256,8,9
 382 590 382 590 358.5 566.5 c 128,-1,10
 335 543 335 543 301 543 c 256,11,12
 267 543 267 543 243 566 c 1,0,1
-81 79 m 1,13,14
 -67 117 -67 117 -39.5 173.5 c 128,-1,15
 -12 230 -12 230 22.5 291.5 c 128,-1,16
 57 353 57 353 95 413 c 128,-1,17
 133 473 133 473 169 518 c 1,18,-1
 268 445 l 1,19,20
 244 412 244 412 219 371.5 c 128,-1,21
 194 331 194 331 170.5 288.5 c 128,-1,22
 147 246 147 246 126.5 204 c 128,-1,23
 106 162 106 162 92 126 c 1,24,25
 162 147 162 147 222 175 c 128,-1,26
 282 203 282 203 337 232 c 1,27,-1
 358 131 l 1,28,29
 332 114 332 114 294.5 93 c 128,-1,30
 257 72 257 72 213.5 50 c 128,-1,31
 170 28 170 28 124 8 c 128,-1,32
 78 -12 78 -12 34 -27 c 1,33,-1
 -81 79 l 1,13,14
EndSplineSet
EndChar

StartChar: a
Encoding: 97 97 243
Width: 616
Flags: W
LayerCount: 2
Fore
SplineSet
-34 88 m 1,0,1
 -34 167 -34 167 -10 243 c 128,-1,2
 14 319 14 319 61 380 c 128,-1,3
 108 441 108 441 177.5 481.5 c 128,-1,4
 247 522 247 522 338 530 c 1,5,-1
 404 429 l 1,6,7
 415 446 415 446 428 462 c 128,-1,8
 441 478 441 478 455 495 c 1,9,-1
 553 411 l 1,10,11
 533 385 533 385 510.5 351.5 c 128,-1,12
 488 318 488 318 466 281.5 c 128,-1,13
 444 245 444 245 424 207 c 128,-1,14
 404 169 404 169 389 135 c 1,15,-1
 386 133 l 1,16,17
 409 139 409 139 440.5 151 c 128,-1,18
 472 163 472 163 505 177.5 c 128,-1,19
 538 192 538 192 569 206.5 c 128,-1,20
 600 221 600 221 621 232 c 1,21,-1
 643 131 l 1,22,23
 632 123 632 123 611 110 c 128,-1,24
 590 97 590 97 563 81.5 c 128,-1,25
 536 66 536 66 506 50 c 128,-1,26
 476 34 476 34 447 19.5 c 128,-1,27
 418 5 418 5 392 -6 c 128,-1,28
 366 -17 366 -17 349 -23 c 1,29,-1
 272 63 l 1,30,31
 240 38 240 38 198 14.5 c 128,-1,32
 156 -9 156 -9 90 -27 c 1,33,-1
 -34 88 l 1,0,1
106 117 m 1,34,35
 157 131 157 131 205.5 165 c 128,-1,36
 254 199 254 199 301 259 c 1,37,38
 318 297 318 297 326 330 c 128,-1,39
 334 363 334 363 340 401 c 1,40,41
 288 396 288 396 245 372 c 128,-1,42
 202 348 202 348 171 310 c 128,-1,43
 140 272 140 272 123 222.5 c 128,-1,44
 106 173 106 173 106 117 c 1,34,35
EndSplineSet
EndChar

StartChar: d
Encoding: 100 100 246
Width: 611
Flags: W
LayerCount: 2
Fore
SplineSet
-34 88 m 1,0,1
 -34 167 -34 167 -10 243 c 128,-1,2
 14 319 14 319 61 380 c 128,-1,3
 108 441 108 441 177.5 481.5 c 128,-1,4
 247 522 247 522 338 530 c 1,5,-1
 393 446 l 1,6,7
 412 483 412 483 433.5 521 c 128,-1,8
 455 559 455 559 477 594.5 c 128,-1,9
 499 630 499 630 519.5 660.5 c 128,-1,10
 540 691 540 691 557 714 c 1,11,-1
 654 630 l 1,12,13
 621 588 621 588 585.5 530.5 c 128,-1,14
 550 473 550 473 515.5 407.5 c 128,-1,15
 481 342 481 342 449 272 c 128,-1,16
 417 202 417 202 392 135 c 1,17,18
 415 142 415 142 445.5 154 c 128,-1,19
 476 166 476 166 507 179.5 c 128,-1,20
 538 193 538 193 567 207 c 128,-1,21
 596 221 596 221 616 232 c 1,22,-1
 638 131 l 1,23,24
 622 119 622 119 585 96.5 c 128,-1,25
 548 74 548 74 504 50.5 c 128,-1,26
 460 27 460 27 417.5 6.5 c 128,-1,27
 375 -14 375 -14 349 -23 c 1,28,-1
 272 63 l 1,29,30
 240 38 240 38 198 14.5 c 128,-1,31
 156 -9 156 -9 90 -27 c 1,32,-1
 -34 88 l 1,0,1
106 117 m 1,33,34
 157 131 157 131 205.5 165 c 128,-1,35
 254 199 254 199 301 259 c 1,36,37
 318 297 318 297 326 330 c 128,-1,38
 334 363 334 363 340 401 c 1,39,40
 288 396 288 396 245 372 c 128,-1,41
 202 348 202 348 171 310 c 128,-1,42
 140 272 140 272 123 222.5 c 128,-1,43
 106 173 106 173 106 117 c 1,33,34
EndSplineSet
EndChar

StartChar: o
Encoding: 111 111 269
Width: 586
Flags: W
LayerCount: 2
Fore
SplineSet
-34 92 m 1,0,1
 -34 117 -34 117 -30.5 148 c 128,-1,2
 -27 179 -27 179 -18.5 213 c 128,-1,3
 -10 247 -10 247 4 281.5 c 128,-1,4
 18 316 18 316 39 349 c 0,5,6
 61 385 61 385 92.5 416.5 c 128,-1,7
 124 448 124 448 161.5 473 c 128,-1,8
 199 498 199 498 241 514 c 128,-1,9
 283 530 283 530 327 536 c 1,10,-1
 486 400 l 1,11,12
 478 349 478 349 464 302 c 128,-1,13
 450 255 450 255 428 212 c 1,14,15
 466 214 466 214 506 219 c 128,-1,16
 546 224 546 224 591 232 c 1,17,-1
 613 131 l 1,18,19
 584 119 584 119 558.5 108.5 c 128,-1,20
 533 98 533 98 508.5 89.5 c 128,-1,21
 484 81 484 81 460 73 c 128,-1,22
 436 65 436 65 409 58 c 1,23,-1
 361 113 l 1,24,25
 315 60 315 60 252 24 c 128,-1,26
 189 -12 189 -12 108 -27 c 1,27,-1
 -34 92 l 1,0,1
100 109 m 1,28,29
 143 119 143 119 184 144.5 c 128,-1,30
 225 170 225 170 259 208 c 0,31,32
 274 226 274 226 290 250 c 128,-1,33
 306 274 306 274 319 302 c 128,-1,34
 332 330 332 330 341 359.5 c 128,-1,35
 350 389 350 389 351 416 c 1,36,37
 322 412 322 412 294.5 399.5 c 128,-1,38
 267 387 267 387 242.5 369.5 c 128,-1,39
 218 352 218 352 197 330.5 c 128,-1,40
 176 309 176 309 160 287 c 0,41,42
 128 241 128 241 115 197 c 128,-1,43
 102 153 102 153 100 109 c 1,28,29
EndSplineSet
EndChar

